<?xml version="1.0" encoding="iso-8859-1"?>
<!-- Generator: Adobe Illustrator 19.0.0, SVG Export Plug-In . SVG Version: 6.00 Build 0)  -->
<svg version="1.1" id="Layer_1" xmlns="http://www.w3.org/2000/svg" xmlns:xlink="http://www.w3.org/1999/xlink" x="0px" y="0px"
	 viewBox="0 0 296.143 296.143" style="enable-background:new 0 0 296.143 296.143;" xml:space="preserve">
<g>
	<g>
		<path style="fill:#333333;" d="M280.99,129.025H162.357v-23.81h-9.524v109.524h9.524v-9.524h51.209l19.048-66.667h23.562
			l-22.438,85.267l4.457,62.352h-23.81l-4.762-61.905H16.057l1.733-19.048h44.567v-66.667h19.048v66.667h52.381v9.524h9.524V105.215
			h-9.524v23.81H15.152L0,295.69h296.143L280.99,129.025z M206.386,195.691h-44.029v-57.143h60.352L206.386,195.691z
			 M243.352,224.71l22.676-86.162h6.267l13.419,147.619h-37.971L243.352,224.71z M133.786,195.691H90.929v-57.143h42.857V195.691z
			 M52.833,138.549v57.143H18.652l5.195-57.143H52.833z M15.19,233.786h185.614l4.029,52.381H10.429L15.19,233.786z"/>
		<rect x="133.786" y="52.833" style="fill:#333333;" width="9.524" height="23.81"/>
		<rect x="152.833" y="52.833" style="fill:#333333;" width="9.524" height="23.81"/>
		<path style="fill:#333333;" d="M143.309,14.739c0-2.624,2.138-4.762,4.762-4.762s4.762,2.138,4.762,4.762v9.524h9.524v-9.524
			c0-7.876-6.41-14.286-14.286-14.286c-7.876,0-14.286,6.41-14.286,14.286v9.524h9.524V14.739z"/>
		<path style="fill:#F9BA48;" d="M211.562,57.596H81.405V19.501h130.157l26.986,19.048L211.562,57.596z"/>
		<path style="fill:#F9BA48;" d="M214.738,109.977H84.581L57.595,90.929l26.986-19.048h130.157V109.977z"/>
	</g>
</g>
<g>
</g>
<g>
</g>
<g>
</g>
<g>
</g>
<g>
</g>
<g>
</g>
<g>
</g>
<g>
</g>
<g>
</g>
<g>
</g>
<g>
</g>
<g>
</g>
<g>
</g>
<g>
</g>
<g>
</g>
</svg>
