<?xml version="1.0" encoding="iso-8859-1"?>
<!-- Generator: Adobe Illustrator 19.0.0, SVG Export Plug-In . SVG Version: 6.00 Build 0)  -->
<svg version="1.1" id="Layer_1" xmlns="http://www.w3.org/2000/svg" xmlns:xlink="http://www.w3.org/1999/xlink" x="0px" y="0px"
	 viewBox="0 0 295.24 295.24" style="enable-background:new 0 0 295.24 295.24;" xml:space="preserve">
<g>
	<g>
		<g>
			<g>
				<path style="fill:#F9BA48;" d="M50.001,176.19c-9.19,0-16.667-7.476-16.667-16.667c0-9.19,7.476-16.667,16.667-16.667
					s16.667,7.476,16.667,16.667S59.192,176.19,50.001,176.19z M50.001,152.381c-3.938,0-7.143,3.205-7.143,7.143
					s3.205,7.143,7.143,7.143s7.143-3.205,7.143-7.143S53.939,152.381,50.001,152.381z"/>
			</g>
		</g>
		<g>
			<g>
				<path style="fill:#F9BA48;" d="M83.334,176.19c-9.19,0-16.667-7.476-16.667-16.667c0-9.19,7.476-16.667,16.667-16.667
					s16.667,7.477,16.667,16.668C100.001,168.714,92.525,176.19,83.334,176.19z M83.334,152.381c-3.938,0-7.143,3.205-7.143,7.143
					s3.205,7.143,7.143,7.143c3.938,0,7.143-3.205,7.143-7.143S87.272,152.381,83.334,152.381z"/>
			</g>
		</g>
		<g>
			<g>
				<path style="fill:#F9BA48;" d="M211.906,176.19c-9.19,0-16.667-7.476-16.667-16.667c0-9.19,7.476-16.667,16.667-16.667
					c9.19,0,16.667,7.476,16.667,16.667C228.572,168.714,221.096,176.19,211.906,176.19z M211.906,152.381
					c-3.938,0-7.143,3.205-7.143,7.143s3.205,7.143,7.143,7.143s7.143-3.205,7.143-7.143S215.844,152.381,211.906,152.381z"/>
			</g>
		</g>
		<g>
			<g>
				<path style="fill:#F9BA48;" d="M245.239,176.19c-9.19,0-16.667-7.476-16.667-16.667c0-9.19,7.476-16.667,16.667-16.667
					s16.667,7.476,16.667,16.667S254.43,176.19,245.239,176.19z M245.239,152.381c-3.938,0-7.143,3.205-7.143,7.143
					s3.205,7.143,7.143,7.143s7.143-3.205,7.143-7.143S249.177,152.381,245.239,152.381z"/>
			</g>
		</g>
		<g>
			<path style="fill:#333333;" d="M276.191,204.762v-47.619c0-15.757-12.814-28.571-28.571-28.571h-0.267l9.79-5.876v1.114h19.048
				c10.505,0,19.048-8.543,19.048-19.048s-8.543-19.048-19.048-19.048h-19.048v9.524h-17.89L234.134,41.5
				c-0.705-7.371-6.824-12.929-14.219-12.929h-34.2V14.286C185.715,6.41,179.306,0,171.43,0h-47.619
				c-7.876,0-14.286,6.41-14.286,14.286v14.286h-34.2c-7.4,0-13.514,5.557-14.219,12.933l-5.119,53.733h-17.89v-9.524H19.049
				c-10.505,0-19.048,8.543-19.048,19.048s8.543,19.048,19.048,19.048h19.048v-1.114l9.79,5.876H47.62
				c-15.757,0-28.571,12.814-28.571,28.571v47.619c-7.876,0-14.286,6.41-14.286,14.286v19.048c0,7.876,6.41,14.286,14.286,14.286
				h4.762v21.429c0,11.814,9.614,21.429,21.429,21.429s21.429-9.614,21.429-21.429v-21.429h161.905v21.429
				c0,11.814,9.614,21.429,21.429,21.429s21.429-9.614,21.429-21.429v-21.429h4.762c7.876,0,14.286-6.41,14.286-14.286v-19.048
				C290.477,211.171,284.068,204.762,276.191,204.762z M266.668,95.238h9.524c5.252,0,9.524,4.271,9.524,9.524
				c0,5.252-4.271,9.524-9.524,9.524h-9.524V95.238z M257.144,104.762v6.829l-15.452,9.271l-1.533-16.1H257.144z M119.049,14.286
				c0-2.624,2.133-4.762,4.762-4.762h47.619c2.629,0,4.762,2.138,4.762,4.762v14.286h-57.143
				C119.049,28.572,119.049,14.286,119.049,14.286z M70.582,42.41c0.238-2.457,2.276-4.314,4.743-4.314h34.2h76.19h34.2
				c2.471,0,4.505,1.857,4.743,4.31l8.2,86.167H62.382L70.582,42.41z M178.163,166.667h-61.086l-0.795-9.524h62.667L178.163,166.667
				z M177.368,176.19l-0.795,9.524h-57.905l-0.795-9.524H177.368z M179.749,147.619h-64.258l-0.795-9.524h65.843L179.749,147.619z
				 M28.572,114.286h-9.524c-5.252,0-9.524-4.271-9.524-9.524c0-5.252,4.271-9.524,9.524-9.524h9.524V114.286z M38.096,104.762
				h16.986l-1.533,16.1l-15.452-9.271L38.096,104.762L38.096,104.762z M28.572,157.143c0-10.505,8.543-19.048,19.048-19.048h4.286
				h53.238l4.029,48.41c0.414,4.895,4.581,8.733,9.495,8.733h57.905c4.914,0,9.081-3.838,9.486-8.733l4.038-48.41h53.238h4.286
				c10.505,0,19.048,8.543,19.048,19.048v47.619H28.572V157.143z M57.144,273.81c0,6.567-5.338,11.905-11.905,11.905
				s-11.905-5.338-11.905-11.905v-21.429h23.81C57.144,252.381,57.144,273.81,57.144,273.81z M261.906,273.81
				c0,6.567-5.338,11.905-11.905,11.905s-11.905-5.338-11.905-11.905v-21.429h23.809v21.429H261.906z M280.953,238.095
				c0,2.629-2.133,4.762-4.762,4.762h-4.762h-42.857H66.668H23.811h-4.762c-2.629,0-4.762-2.133-4.762-4.762v-19.048
				c0-2.629,2.133-4.762,4.762-4.762h257.142c2.629,0,4.762,2.133,4.762,4.762V238.095z"/>
			
				<rect x="90.477" y="80.952" transform="matrix(0.6 -0.8 0.8 0.6 -18.0948 135.2391)" style="fill:#333333;" width="71.429" height="9.524"/>
			
				<rect x="128.573" y="80.957" transform="matrix(0.6002 -0.7999 0.7999 0.6002 -2.8767 165.6824)" style="fill:#333333;" width="71.434" height="9.524"/>
		</g>
	</g>
</g>
<g>
</g>
<g>
</g>
<g>
</g>
<g>
</g>
<g>
</g>
<g>
</g>
<g>
</g>
<g>
</g>
<g>
</g>
<g>
</g>
<g>
</g>
<g>
</g>
<g>
</g>
<g>
</g>
<g>
</g>
</svg>
