<svg id="Layer_1" data-name="Layer 1" xmlns="http://www.w3.org/2000/svg" xmlns:xlink="http://www.w3.org/1999/xlink" viewBox="0 0 400 300"><defs><style>.cls-1{fill:none;}.cls-2{fill:#f9ba48;}.cls-3{clip-path:url(#clip-path);}.cls-4{fill:#333;}.cls-5{clip-path:url(#clip-path-2);}</style><clipPath id="clip-path"><rect class="cls-1" x="49.5" y="33" width="134.88" height="233.76"/></clipPath><clipPath id="clip-path-2"><rect class="cls-1" x="196.5" y="95.14" width="154" height="171.62"/></clipPath></defs><title>Artboard 1</title><rect class="cls-2" x="90.73" y="153.34" width="52.48" height="26.24"/><g class="cls-3"><path class="cls-2" d="M142.12,63.38a33.74,33.74,0,1,1-50.29,0Zm0,0"/><path class="cls-4" d="M184.44,194.58v-45A33.77,33.77,0,0,0,159.15,117a52.48,52.48,0,1,0-84.35,0,33.77,33.77,0,0,0-25.3,32.63v45A30,30,0,0,0,75.74,224.3v6a33.76,33.76,0,0,0-22.49,31.77v3.75H180.7v-3.75a33.77,33.77,0,0,0-22.49-31.77v-6a30,30,0,0,0,26.24-29.73Zm-26.24,22.15V202.07h17.43a22.52,22.52,0,0,1-17.43,14.66ZM117,40.88a45,45,0,1,1-45,45,45,45,0,0,1,45-45ZM58.31,202.07H75.74v14.66a22.53,22.53,0,0,1-17.43-14.66ZM87,235.81a26.21,26.21,0,0,1,21.5,11.25h-43A26.21,26.21,0,0,1,87,235.81ZM61,258.3a25.9,25.9,0,0,1,.85-3.75h50.25a25.91,25.91,0,0,1,.85,3.75Zm60,0a26,26,0,0,1,.85-3.75h50.25a26,26,0,0,1,.85,3.75Zm47.48-11.24h-43a26.18,26.18,0,0,1,43,0ZM147,228.31A33.61,33.61,0,0,0,120.72,241V202.07h-7.5V241A33.62,33.62,0,0,0,87,228.31a34,34,0,0,0-3.75.22V153.34h-7.5v41.23H57v-45A26.28,26.28,0,0,1,80.48,123.5a52.28,52.28,0,0,0,73,0,26.28,26.28,0,0,1,23.48,26.09v45H158.21V153.34h-7.5v75.19a33.91,33.91,0,0,0-3.75-.22Zm0,0"/></g><rect class="cls-4" x="105.73" y="164.59" width="22.49" height="7.5"/><rect class="cls-4" x="90.73" y="187.08" width="7.5" height="7.5"/><rect class="cls-4" x="120.72" y="70.87" width="7.5" height="7.5"/><rect class="cls-4" x="94.48" y="70.87" width="18.75" height="7.5"/><g class="cls-5"><path class="cls-2" d="M301.08,175.24a27.52,27.52,0,1,1-27.52-27.52,27.52,27.52,0,0,1,27.52,27.52Zm0,0"/><path class="cls-4" d="M339.61,244a8.27,8.27,0,0,1-8.26-8.26V183.49a57.68,57.68,0,0,0-22-45.3v-23.5h-5.5v19.66a57.26,57.26,0,0,0-60.54,0V114.69h-5.51v23.5a57.68,57.68,0,0,0-22,45.3v52.29a8.26,8.26,0,0,1-8.25,8.26,11,11,0,1,0,0,22H257V263.3a16.51,16.51,0,0,1,33,0v2.75h49.54a11,11,0,0,0,0-22Zm0,16.51H295.4a22,22,0,0,0-43.69,0H207.51a5.5,5.5,0,1,1,0-11,13.77,13.77,0,0,0,13.76-13.76V183.49a52.29,52.29,0,1,1,104.58,0v52.29a13.78,13.78,0,0,0,13.76,13.76,5.5,5.5,0,1,1,0,11Zm0,0"/></g><path class="cls-4" d="M292.82,211H254.29a8.27,8.27,0,0,0-8.26,8.26c0,3.44,4.44,12.36,5.81,15l2.45,4.77,2.45-4.77c1.36-2.66,5.81-11.58,5.81-15a8.14,8.14,0,0,0-.51-2.75h23a8.14,8.14,0,0,0-.51,2.75c0,3.44,4.44,12.36,5.8,15l2.45,4.77,2.45-4.77c1.36-2.66,5.81-11.58,5.81-15a8.27,8.27,0,0,0-8.26-8.26ZM257,219.27c0,1-1.22,4.06-2.75,7.44-1.54-3.38-2.74-6.45-2.75-7.43a2.75,2.75,0,1,1,5.5,0Zm35.78,7.44c-1.53-3.38-2.74-6.45-2.75-7.43a2.75,2.75,0,0,1,5.5,0c0,1-1.22,4.06-2.75,7.44Zm0,0"/><path class="cls-4" d="M273.56,191.75A16.51,16.51,0,1,0,257,175.24a16.53,16.53,0,0,0,16.51,16.51Zm10.62-19.26h-7.86v-7.87a11,11,0,0,1,7.86,7.87Zm-13.37-7.87V178h13.37a11,11,0,1,1-13.37-13.37Zm0,0"/><rect class="cls-4" x="226.77" y="175.24" width="5.51" height="24.77"/><rect class="cls-4" x="226.77" y="205.51" width="5.51" height="5.5"/><path class="cls-2" d="M251.54,106.44a11,11,0,1,1-11-11,11,11,0,0,1,11,11Zm0,0"/><path class="cls-2" d="M317.59,106.44a11,11,0,1,1-11-11,11,11,0,0,1,11,11Zm0,0"/></svg>