<svg xmlns="http://www.w3.org/2000/svg" xmlns:xlink="http://www.w3.org/1999/xlink" viewBox="0 0 800 400"><defs><style>.cls-1{fill:none;}.cls-2{clip-path:url(#clip-path);}.cls-3{opacity:0.05;}.cls-4{fill:#fff;}.cls-5{clip-path:url(#clip-path-2);}</style><clipPath id="clip-path"><rect class="cls-1" width="400" height="400"/></clipPath><clipPath id="clip-path-2"><rect class="cls-1" x="400" width="400.63" height="400" transform="translate(1200.63 400) rotate(-180)"/></clipPath></defs><title>Skycab_community_image</title><g id="icons"><g class="cls-2"><g class="cls-3"><rect class="cls-4" x="53.41" y="-43.97" width="6" height="77.83" transform="translate(1.34 8.17) rotate(-8.38)"/><polygon class="cls-4" points="86.25 27.37 80.32 28.31 89.16 83.89 17.69 99.45 18.97 105.31 95.97 88.54 86.25 27.37"/><path class="cls-4" d="M109.82,295.08l-155,5.37-3,70.45,6,.25,2.76-64.89,149.19-5.18m5.06,4.59L378,307.18l-2,68.2,6,.18,2-68.34,60.43.39L442,419l0,1.5,6,.13,2.52-112.94,80.29.51,0-6-80.2-.51,1.77-79.08-6-.13-1.77,79.18-60.38-.39,2.29-77,3.73-144.89,46.1-.13-5.6,146.19,6,.23,5.61-146.44,35.3-.1,0-6-87.38.25-1.32-58.07.93-125v-1.5l-6,0-.94,126.6,1.32,58-27.34.08,3.38-198.18-6-.1-3.38,198.3-63.41.18.6-61.65-6-.06-.6,61.72-58.72.17-25-.29L203-74.68l-6-.21L191.72,73.48l-17.82-.2,7.81-145-6-.32L167.9,73.21,139,72.88l-3.9,96.26L37.68,208.33l2.24,5.57,94.86-38.18-2.11,51.93,6,.24,2.18-53.63,47.28,1-1.82,51.36,6,.21,1.82-51.45,92.34,1.92.95-97.63,96.81-.27-3.73,144.71-2.29,77.1L115,300m27.83,5.68M114.5,329.2m2-71.24,199.25,4.86.15-6L116.43,252l.74-26.79-6,.06-2.66,103.56-7.43,187.49,6,.24L114.5,329.2Zm77.84-88.6,3.18-89.82,25.21.29,58.69-.17-.89,91.49Zm-25.58-.53,4.82-89.56,17.93.2-3.17,89.76Zm-1.18-89.63-4.82,89.51-21.67-.45,3.62-89.32Z"/><polygon class="cls-4" points="47.55 246.93 -37.66 251.5 -36.53 186.54 -42.53 186.44 -43.77 257.83 47.87 252.92 47.55 246.93"/><path class="cls-4" d="M515.42,223.9l-.07-6L318.4,220.24c1.17-70.16,2.39-144.12,3.37-204.24l133.29,1.15.05-6L321.87,10c1.13-69.53,1.9-119.15,1.82-120.21l-6,.34c.05,2-.72,51.22-1.83,119.82l-90-.78,2.21-104.59-6-.13L219.91,9.25,7.55,37.06l-6,.6L12.38,90.73l-93,7.6-61.67-20L-144.14,84l62.82,20.37,94.92-7.76,18.12,88.77-134.26,3.21.14,6L32.93,191.4l8.82,43.2L56.17,368.78c-88-.08-132.68,0-133.41.18l.91,3.31.15,2.57c2.51-.15,57.46-.14,133-.06l.93,171.64,6,0-.93-171.6c46.38.05,100,.13,153.78.22l.92,113,6,0L222.58,375l87.23.15c-.78,46.62-1.3,77.44-1.32,78.74l6,.1c.19-11.33.68-40,1.33-78.83,109.07.2,198.88.39,201.16.39v-6l-201.07-.4c.68-40.21,1.52-90.35,2.39-142.93ZM315.77,16c-1,60.24-2.21,134.34-3.37,204.36l-91,1.08,4.37-206.22Zm-96-.63-4.36,206.2-169.22,4.9L8.75,43ZM62.2,368.78l-14.5-135,0-.14-.26-1.29,168-4.87L216.53,369Q125.25,368.84,62.2,368.78Zm247.71.37L222.53,369l-1.15-141.61,90.92-1.08C311.42,279.18,310.58,329.41,309.91,369.16Z"/><path class="cls-4" d="M158.32,83.6l-5.09-.06a4.32,4.32,0,0,0-4.37,4.15L146,159.45a4.32,4.32,0,0,0,4.23,4.5l4.13.09a4.32,4.32,0,0,0,4.41-4.09l3.87-71.79A4.32,4.32,0,0,0,158.32,83.6Z"/><path class="cls-4" d="M183.16,68.88a4.32,4.32,0,0,0,4.37-4.17l1.38-39.15-8,1-2,37.8A4.32,4.32,0,0,0,183.16,68.88Z"/><path class="cls-4" d="M182,83.87A4.32,4.32,0,0,0,177.62,88l-3.88,72a4.32,4.32,0,0,0,4.23,4.55l1.77,0a4.32,4.32,0,0,0,4.41-4.17l2.55-72a4.32,4.32,0,0,0-4.27-4.47Z"/><path class="cls-4" d="M292,67.16a2,2,0,0,0,2,2l14.32,0a2,2,0,0,0,2-1.91l.5-19.42-18.54-.12Z"/><path class="cls-4" d="M311.34,24.91a2,2,0,0,0-1.92-2l-15-.27a2,2,0,0,0-2,1.94l-.19,20.06,18.59.12Z"/><polygon class="cls-4" points="215.36 22.34 203.98 23.73 202.38 69.1 213.94 69.24 215.36 22.34"/><path class="cls-4" d="M231.94,69.31l43.14-.12a2,2,0,0,0,2-1.94l.19-19.71-44.61-.29Z"/><path class="cls-4" d="M277.45,24.28a2,2,0,0,0-1.92-2l-40.2-.71a2,2,0,0,0-2,1.9l-.63,20.76,44.55.29Z"/><path class="cls-4" d="M145,183.08l-1.38,34,38.55-.77L183.31,184a4.32,4.32,0,0,0-4.23-4.47l-29.68-.62A4.32,4.32,0,0,0,145,183.08Z"/><path class="cls-4" d="M374.86,233.2l-50.06.14a.82.82,0,0,0-.82.8l-1.58,61.35a.82.82,0,0,0,.82.84l49.81.32a.82.82,0,0,0,.83-.8L375.69,234A.82.82,0,0,0,374.86,233.2Z"/><path class="cls-4" d="M305.15,233.39l-77.93.21,0,16.54,77.49,1.9a.82.82,0,0,0,.84-.8l.44-17A.82.82,0,0,0,305.15,233.39Z"/><path class="cls-4" d="M236.75,363.41l65.87.72L304,311.21l-76.84-.49,0,42.92A9.75,9.75,0,0,0,236.75,363.41Z"/><path class="cls-4" d="M389.67,296.76l49.7.32a.82.82,0,0,0,.83-.8l1.39-62.41a.82.82,0,0,0-.82-.84l-49.25.14a.82.82,0,0,0-.82.8l-1.84,62A.82.82,0,0,0,389.67,296.76Z"/><path class="cls-4" d="M129.73,189.17A4.32,4.32,0,0,0,123.8,185L53.46,213.29a4.32,4.32,0,0,0-2.63,4.84L51,219l77.59-1.54Z"/><path class="cls-4" d="M104,306l-43.12,1.37,5.33,54.24,36.48.37S104.1,306.46,104,306Z"/><path class="cls-4" d="M209.1,353.26l0-40.65S122.2,311.82,121,312l-2.3,50.14,80.53.86A9.76,9.76,0,0,0,209.1,353.26Z"/><path class="cls-4" d="M36.48,243l-.88-9-6.72-34.52a4.32,4.32,0,0,0-4.31-3.5l-27.39.4,5,48.41Z"/><polygon class="cls-4" points="37.95 257.96 -39.09 262.09 -30.25 295.45 41.39 293.02 37.95 257.96"/><path class="cls-4" d="M379.55,85.9a2,2,0,0,0-2-2L329.74,84a1.94,1.94,0,0,0-1.94,1.89c-.26,10.29-.53,20.76-.8,31.35l51.77-.72Z"/><path class="cls-4" d="M378.68,119.56l-51.77.72c-.44,17.25-.89,34.78-1.34,52.33l51.72,1Z"/><path class="cls-4" d="M324.49,214.5a.82.82,0,0,0,.82.84l50.1-.14a.82.82,0,0,0,.82-.8l1-37.79-51.72-1C325.16,188.61,324.82,201.61,324.49,214.5Z"/><path class="cls-4" d="M105,290l1.78-54.15L54,236.9l5.45,55.51S104.23,290.15,105,290Z"/><path class="cls-4" d="M418.88,85.24a2,2,0,0,0-1.9-1.45l-20.48.06a2,2,0,0,0-2,1.91l-.79,30.6,33.24-.46Z"/><path class="cls-4" d="M429.91,126.82l-2.1-7.94-34.11.47-1.41,54.55,35.88.7,1.81-47.2A2,2,0,0,0,429.91,126.82Z"/><path class="cls-4" d="M391.24,214.31a.82.82,0,0,0,.82.84l33.76-.09a.82.82,0,0,0,.82-.79L428,177.6l-35.84-.69Z"/><path class="cls-4" d="M322,312.13l-1.33,51.36a.82.82,0,0,0,.81.84l49.54.55a.82.82,0,0,0,.83-.8l1.53-51.58a.82.82,0,0,0-.82-.85l-49.74-.32A.82.82,0,0,0,322,312.13Z"/><path class="cls-4" d="M227.06,391.17a9.76,9.76,0,0,0,9.68,9.77l64.9.49.5-19.29-65.22-.71A9.76,9.76,0,0,0,227.06,391.17Z"/><path class="cls-4" d="M276.85,86.16a2,2,0,0,0-2-2l-43.4.12-1,34.3,46.09-.64Z"/><path class="cls-4" d="M229,165.59l45.06.94a2,2,0,0,0,2-1.94l.42-43.62-46.15.64Z"/><path class="cls-4" d="M304.39,295.41l.71-27.52a.82.82,0,0,0-.8-.84l-77.11-1.89,0,30.57,76.41.49A.82.82,0,0,0,304.39,295.41Z"/><path class="cls-4" d="M207.54,84.16a5.83,5.83,0,0,0-5.89,5.62l-2.44,69.09a6,6,0,0,0,5.88,6.22h0a6,6,0,0,0,6.13-5.82l2.09-69.1A5.83,5.83,0,0,0,207.54,84.16Z"/><polygon class="cls-4" points="209.5 215.81 210.58 180.21 198.46 179.96 197.19 216.05 209.5 215.81"/><polygon class="cls-4" points="121.89 247.57 209.21 249.71 209.22 233.81 121.78 235.55 121.89 247.57"/><path class="cls-4" d="M309.78,86.09a1.94,1.94,0,0,0-2-2l-14,0a2,2,0,0,0-2,1.94l-.31,31.69,17.43-.24Z"/><path class="cls-4" d="M290.94,179.9a2,2,0,0,1-2,1.94l-60.37-1.26-1.06,35,78.15-.21a.82.82,0,0,0,.82-.8c.8-31.19,1.62-63.06,2.42-94.07l-17.39.24Z"/><path class="cls-4" d="M209.16,295.61l0-30.89L122,262.58S120,293,120,295Z"/><path class="cls-4" d="M437.42,383.62l-117.27-1.29-.53,20.54,59.91,9.63a.82.82,0,0,0,.34,0l57.48-15.24a.82.82,0,0,0,.61-.78l.27-12A.82.82,0,0,0,437.42,383.62Z"/><path class="cls-4" d="M439,312.07l-49.82-.32a.82.82,0,0,0-.83.8l-1.54,51.66a.82.82,0,0,0,.81.85l50.19.56a.82.82,0,0,0,.83-.8l1.16-51.9A.82.82,0,0,0,439,312.07Z"/><path class="cls-4" d="M478.46,312.33l-22.81-.15a.82.82,0,0,0-.83.8l-1.16,52a.82.82,0,0,0,.81.84l37.83.42a.82.82,0,0,0,.8-1l-13.86-52.26A.82.82,0,0,0,478.46,312.33Z"/><path class="cls-4" d="M6,309.23l-32.35,1.1,13.39,50.52,27.69.26Z"/><path class="cls-4" d="M48.11,361.43,42.86,308,9.07,309.12l8.76,52Z"/><polygon class="cls-4" points="67.29 379.62 66.86 495.46 97.73 487.28 101.98 379.98 67.29 379.62"/><path class="cls-4" d="M117,380.14,112.9,483.26l50.7-13.44c-2.57-31.48-5.74-70.17-7.34-89.26Z"/><path class="cls-4" d="M199.41,381l-40.14-.43.6,7.22c1,11.63,2.24,27.13,3.51,42.64,1.13,13.77,2.25,27.54,3.16,38.59l35.2-9.33a9.76,9.76,0,0,0,7.26-9.42l.06-59.5A9.76,9.76,0,0,0,199.41,381Z"/><path class="cls-4" d="M457.42,233a.82.82,0,0,0-.82.8l-1.4,62.56a.82.82,0,0,0,.82.84l18,.11a.82.82,0,0,0,.8-1l-16.62-62.68A.82.82,0,0,0,457.42,233Z"/><path class="cls-4" d="M480.59,384.1l-26.54-.3a.82.82,0,0,0-.83.8l-.16,7.38a.82.82,0,0,0,1,.81l26.7-7.08A.82.82,0,0,0,480.59,384.1Z"/><path class="cls-4" d="M1.44,83.92a4.32,4.32,0,0,0,3.93-5.14L-7,15a4.32,4.32,0,0,0-5.35-3.35l-41.32,11,17,64.12Z"/><path class="cls-4" d="M-8.13,378.87,25.68,506.38l23.16-6.14.45-120.8Z"/><path class="cls-4" d="M362.57,3.89a2,2,0,0,0,1.92,2l12,.21a2,2,0,0,0,2-1.94L378.83-42l-15.46-1.1Z"/><path class="cls-4" d="M442.89,182.06l-1.23,32.1a.82.82,0,0,0,.82.85l9.73,0a.82.82,0,0,0,.79-1l-8.5-32.08A.82.82,0,0,0,442.89,182.06Z"/><path class="cls-4" d="M48.7,24.49a4.32,4.32,0,0,0,3.75-4.92L49.6.16a4.32,4.32,0,0,0-5.38-3.55l-8.29,2.2c1.6,7.35,3.7,16.49,6,26.5Z"/><path class="cls-4" d="M13.41,4.78a4.32,4.32,0,0,0-3.14,5l2.92,15A4.32,4.32,0,0,0,18,28.23l21-2.56C36.72,16.08,34.66,7,33.06-.43Z"/><path class="cls-4" d="M235.92,3.6l74,1.31a2,2,0,0,0,2-1.91c.32-12.63.62-24.53.9-35.52l-77.94,5.59L234,1.59A2,2,0,0,0,235.92,3.6Z"/><path class="cls-4" d="M347.2,25.54a2,2,0,0,0-1.92-2l-13.95-.25a2,2,0,0,0-2,1.9c-.16,6.42-.33,13-.5,19.69l18,.12Z"/><path class="cls-4" d="M328.28,67a2,2,0,0,0,2,2l14.3,0a2,2,0,0,0,2-1.92L346.82,48l-18.05-.12Z"/><path class="cls-4" d="M395.41,6.43a2,2,0,1,0-1.92-2h0a2,2,0,0,0,1.92,2Z"/><path class="cls-4" d="M361.5,66.95a2,2,0,0,0,2,2l14.17,0a2,2,0,0,0,2-2l-.42-18.68-17.34-.11Z"/><path class="cls-4" d="M378.65,26a2,2,0,0,0-1.92-1.91l-12.54-.22a2,2,0,0,0-2,1.92l-.33,19.3,17.22.11Z"/><path class="cls-4" d="M217.45-46.72a2,2,0,0,0-2.46-2l-8.53,2.26L204.63,5.52l11.28-1.37Z"/><path class="cls-4" d="M329.9,3.29a2,2,0,0,0,1.92,2l13.76.24a2,2,0,0,0,2-1.92L348-21.72,330.54-22Q330.23-10,329.9,3.29Z"/><path class="cls-4" d="M96.4,62.6,93.09,41.73a4.32,4.32,0,0,1,3.75-5L160.69,29a4.32,4.32,0,0,1,4.84,4.52l-1.67,31a4.32,4.32,0,0,1-4.37,4.09l-20.66-.24-38.06-1.85A4.65,4.65,0,0,1,96.4,62.6Z"/><path class="cls-4" d="M73.87,188.91l-21.78,8.76a4.32,4.32,0,0,1-5.86-3.18l-16.1-82.68a4.32,4.32,0,0,1,3.32-5l20-4.35A3.51,3.51,0,0,1,57.62,105l18.65,79.26A4,4,0,0,1,73.87,188.91Z"/><path class="cls-4" d="M87.82,183.3l40.26-16.2a4.32,4.32,0,0,0,2.7-3.83l3.51-86.48a4.38,4.38,0,0,0-4.07-4.55l-28.66-2a3.18,3.18,0,0,0-3.36,3.67L100.44,88a4.32,4.32,0,0,1-3.35,4.9L66.65,99.53a4,4,0,0,0-3,4.87L82.5,180.58A4,4,0,0,0,87.82,183.3Z"/><polygon class="cls-4" points="191.31 -42.39 184.54 -40.59 181.91 8.28 189.55 7.35 191.31 -42.39"/><path class="cls-4" d="M30.78,92l23.07-5c-2.79-11.19-6.77-27.32-10.7-43.67L22,45.87A4.32,4.32,0,0,0,18.3,51l7.32,37.61A4.32,4.32,0,0,0,30.78,92Z"/><path class="cls-4" d="M80.05,81.26a4.32,4.32,0,0,0,3.35-4.9L78.14,43.23a4.32,4.32,0,0,0-4.79-3.61L46.17,42.93c3.5,14.56,7.23,29.79,10.62,43.4Z"/><path class="cls-4" d="M19.53,178.11A4.32,4.32,0,0,0,23.71,173L18.46,146l-62.48.73-1.76,32.31Z"/><path class="cls-4" d="M10.5,105.13a4.32,4.32,0,0,0-4.56-3.49L-38,104.83a4.32,4.32,0,0,0-4,4.08l-1.9,34.87L17.88,143Z"/><path class="cls-4" d="M72.18,21.63l91-11.07A4.32,4.32,0,0,0,167,6.5l2.32-43.05L67.22-9.49A4.32,4.32,0,0,0,64-4.68L67.38,18A4.32,4.32,0,0,0,72.18,21.63Z"/><path class="cls-4" d="M396.55,68.84l15.44,0a2,2,0,0,0,1.89-2.46l-4.75-17.93-15-.1.42,18.61A2,2,0,0,0,396.55,68.84Z"/><path class="cls-4" d="M403.17,26a2,2,0,0,0-1.86-1.45l-5.66-.1a2,2,0,0,0-2,2l.43,18.88,14.23.09Z"/></g></g></g><g id="icons_2" data-name="icons 2"><g class="cls-5"><g class="cls-3"><rect class="cls-4" x="705.31" y="-8.06" width="77.83" height="6" transform="translate(640.75 731.95) rotate(-81.62)"/><polygon class="cls-4" points="714.39 27.37 720.31 28.31 711.48 83.89 782.94 99.45 781.67 105.31 704.66 88.54 714.39 27.37"/><path class="cls-4" d="M369.92,225.42l-5.6-146.19,46.1.13,3.73,144.89,2.29,77-60.38.39-1.77-79.18-6,.13,1.77,79.08-80.2.51,0,6,80.29-.51,2.52,112.94,6-.13,0-1.5-2.49-111.35,60.43-.39,2,68.34,6-.18-2-68.2,235.19-1.5a29.9,29.9,0,0,0,28.33,23.52l7.42,187.31,6-.24-7.43-187.49a29.91,29.91,0,0,0,24.74-26.7L840,306.26l2.76,64.89,6-.25-3-70.45-129-4.37A29.92,29.92,0,0,0,689,269.4l.42-44.17-6-.06L683.2,252l-198.46,4.86.15,6L683.14,258,683,269.6a29.92,29.92,0,0,0-25.93,30.09l-234.67,1.5-2.29-77.1L416.42,79.38l96.81.27.95,97.63,92.34-1.92,1.82,51.45,6-.21-1.82-51.36,47.28-1L662,227.89l6-.24-2.11-51.93,94.86,38.18,2.24-5.57-97.37-39.19-3.9-96.26-28.94.33L624.92-72.07l-6,.32,7.81,145-17.82.2L603.67-74.89l-6,.21,5.24,148.23-25,.29-58.72-.17-.6-61.72-6,.06.6,61.65-63.41-.18-3.38-198.3-6,.1,3.38,198.18-27.34-.08,1.32-58-.94-126.6-6,0v1.5l.93,125L410.4,73.36,323,73.11l0,6,35.3.1,5.61,146.44Zm150.19-54.26-.89-91.49,58.69.17,25.21-.29,3.18,89.82Zm92.19-1.92-3.17-89.76,17.93-.2,4.82,89.56Zm43.62-90.3,3.62,89.32-21.67.45-4.82-89.51Zm8,214.19a23.95,23.95,0,1,1,17,29.28A24,24,0,0,1,663.9,293.14Z"/><polygon class="cls-4" points="753.09 246.93 838.3 251.5 837.17 186.54 843.17 186.44 844.41 257.83 752.77 252.92 753.09 246.93"/><path class="cls-4" d="M482.33,226.24c.88,52.58,1.72,102.71,2.39,142.93l-201.07.4v6c2.28,0,92.09-.19,201.16-.39.65,38.8,1.14,67.5,1.33,78.83l6-.1c0-1.3-.54-32.12-1.32-78.74l87.23-.15-.92,112.92,6,0,.92-113c53.79-.09,107.4-.17,153.78-.22l-.93,171.6,6,0,.93-171.64c75.52-.08,130.46-.09,133,.06l.15-2.57.91-3.31c-.72-.2-45.39-.26-133.41-.18L758.88,234.6l8.82-43.2L903,194.64l.14-6-134.26-3.21L787,96.66,882,104.41,944.77,84l-1.85-5.71-61.67,20-93-7.6,10.81-53-6-.7L580.72,9.25,578.5-95.54l-6,.13L574.72,9.18l-90,.78c-1.11-68.6-1.89-117.83-1.83-119.82l-6-.34c-.08,1.07.7,50.68,1.82,120.21L345.52,11.15l.05,6L478.86,16c1,60.12,2.2,134.08,3.37,204.24L285.29,217.9l-.07,6ZM574.84,15.18l4.37,206.22-91-1.08c-1.17-70-2.39-144.12-3.37-204.36ZM791.88,43,754.43,226.42l-169.22-4.9-4.36-206.2ZM584.1,369l1.15-141.48,168,4.87-.26,1.29,0,.14-14.5,135Q675.41,368.84,584.1,369ZM488.34,226.31l90.92,1.08L578.1,369l-87.38.15C490.06,329.41,489.22,279.18,488.34,226.31Z"/><path class="cls-4" d="M642.31,83.6l5.09-.06a4.32,4.32,0,0,1,4.37,4.15l2.91,71.76a4.32,4.32,0,0,1-4.23,4.5l-4.13.09a4.32,4.32,0,0,1-4.41-4.09L638,88.16A4.32,4.32,0,0,1,642.31,83.6Z"/><path class="cls-4" d="M617.48,68.88a4.32,4.32,0,0,1-4.37-4.17l-1.38-39.15,8,1,2,37.8A4.32,4.32,0,0,1,617.48,68.88Z"/><path class="cls-4" d="M618.65,83.87A4.32,4.32,0,0,1,623,88l3.88,72a4.32,4.32,0,0,1-4.23,4.55l-1.77,0a4.32,4.32,0,0,1-4.41-4.17l-2.55-72a4.32,4.32,0,0,1,4.27-4.47Z"/><path class="cls-4" d="M508.6,67.16a2,2,0,0,1-2,2l-14.32,0a2,2,0,0,1-2-1.91l-.5-19.42,18.54-.12Z"/><path class="cls-4" d="M489.29,24.91a2,2,0,0,1,1.92-2l15-.27a2,2,0,0,1,2,1.94l.19,20.06-18.59.12Z"/><polygon class="cls-4" points="585.27 22.34 596.65 23.73 598.25 69.1 586.7 69.24 585.27 22.34"/><path class="cls-4" d="M568.69,69.31l-43.14-.12a2,2,0,0,1-2-1.94l-.19-19.71L568,47.25Z"/><path class="cls-4" d="M523.19,24.28a2,2,0,0,1,1.92-2l40.2-.71a2,2,0,0,1,2,1.9l.63,20.76-44.55.29Z"/><path class="cls-4" d="M655.64,183.08l1.38,34-38.55-.77L617.32,184a4.32,4.32,0,0,1,4.23-4.47l29.68-.62A4.32,4.32,0,0,1,655.64,183.08Z"/><path class="cls-4" d="M425.77,233.2l50.06.14a.82.82,0,0,1,.82.8l1.58,61.35a.82.82,0,0,1-.82.84l-49.81.32a.82.82,0,0,1-.83-.8L424.95,234A.82.82,0,0,1,425.77,233.2Z"/><path class="cls-4" d="M495.48,233.39l77.93.21,0,16.54L495.94,252a.82.82,0,0,1-.84-.8l-.44-17A.82.82,0,0,1,495.48,233.39Z"/><path class="cls-4" d="M563.89,363.41l-65.87.72-1.37-52.91,76.84-.49,0,42.92A9.75,9.75,0,0,1,563.89,363.41Z"/><path class="cls-4" d="M411,296.76l-49.7.32a.82.82,0,0,1-.83-.8L359,233.86a.82.82,0,0,1,.82-.84l49.25.14a.82.82,0,0,1,.82.8l1.84,62A.82.82,0,0,1,411,296.76Z"/><path class="cls-4" d="M670.9,189.17a4.32,4.32,0,0,1,5.93-4.18l70.34,28.31a4.32,4.32,0,0,1,2.63,4.84l-.16.82L672,217.41Z"/><path class="cls-4" d="M696.76,332.32a34.29,34.29,0,0,0,23.58-24.22q.18-.69.34-1.38l19.07.65-5.33,54.24-36.48.37Z"/><path class="cls-4" d="M591.53,353.26l0-42.65,62.91-.4a34.59,34.59,0,0,0,23.82,22.37,34.19,34.19,0,0,0,3.57.75l1.14,28.82L601.4,363A9.76,9.76,0,0,1,591.53,353.26Z"/><path class="cls-4" d="M764.16,243l.88-9,6.72-34.52a4.32,4.32,0,0,1,4.31-3.5l27.39.4-5,48.41Z"/><polygon class="cls-4" points="762.69 257.96 839.72 262.09 830.88 295.45 759.25 293.02 762.69 257.96"/><path class="cls-4" d="M421.09,85.9a2,2,0,0,1,2-2L470.9,84a1.94,1.94,0,0,1,1.94,1.89c.26,10.29.53,20.76.8,31.35l-51.77-.72Z"/><path class="cls-4" d="M422,119.56l51.77.72c.44,17.25.89,34.78,1.34,52.33l-51.72,1Z"/><path class="cls-4" d="M476.14,214.5a.82.82,0,0,1-.82.84l-50.1-.14a.82.82,0,0,1-.82-.8l-1-37.79,51.72-1C475.48,188.61,475.81,201.61,476.14,214.5Z"/><path class="cls-4" d="M720.65,291.71A34.4,34.4,0,0,0,695.88,266q-1.14-.3-2.3-.53l.28-29.61,52.82,1-5.45,55.51Z"/><path class="cls-4" d="M381.75,85.24a2,2,0,0,1,1.9-1.45l20.48.06a2,2,0,0,1,2,1.91l.79,30.6-33.24-.46Z"/><path class="cls-4" d="M370.73,126.82l2.1-7.94,34.11.47,1.41,54.55-35.88.7-1.81-47.2A2,2,0,0,1,370.73,126.82Z"/><path class="cls-4" d="M409.39,214.31a.82.82,0,0,1-.82.84l-33.76-.09a.82.82,0,0,1-.82-.79l-1.41-36.67,35.84-.69Z"/><path class="cls-4" d="M478.67,312.13,480,363.49a.82.82,0,0,1-.81.84l-49.54.55a.82.82,0,0,1-.83-.8l-1.53-51.58a.82.82,0,0,1,.82-.85l49.74-.32A.82.82,0,0,1,478.67,312.13Z"/><path class="cls-4" d="M573.57,391.17a9.76,9.76,0,0,1-9.68,9.77l-64.9.49-.5-19.29,65.22-.71A9.76,9.76,0,0,1,573.57,391.17Z"/><path class="cls-4" d="M523.79,86.16a2,2,0,0,1,2-2l43.4.12,1,34.3L524.09,118Z"/><path class="cls-4" d="M571.61,165.59l-45.06.94a2,2,0,0,1-2-1.94L524.12,121l46.15.64Z"/><path class="cls-4" d="M496.24,295.41l-.71-27.52a.82.82,0,0,1,.8-.84l77.11-1.89,0,30.57-76.41.49A.82.82,0,0,1,496.24,295.41Z"/><path class="cls-4" d="M593.09,84.16A5.83,5.83,0,0,1,599,89.79l2.44,69.09a6,6,0,0,1-5.88,6.22h0a6,6,0,0,1-6.13-5.82l-2.09-69.1A5.83,5.83,0,0,1,593.09,84.16Z"/><polygon class="cls-4" points="591.14 215.81 590.06 180.21 602.17 179.96 603.45 216.05 591.14 215.81"/><polygon class="cls-4" points="678.74 247.57 591.43 249.71 591.41 233.81 678.86 235.55 678.74 247.57"/><path class="cls-4" d="M682.06,318.07a19.45,19.45,0,1,1,23.78-13.81A19.47,19.47,0,0,1,682.06,318.07Z"/><path class="cls-4" d="M490.85,86.09a1.94,1.94,0,0,1,2-2l14,0a2,2,0,0,1,2,1.94l.31,31.69-17.43-.24Z"/><path class="cls-4" d="M509.69,179.9a2,2,0,0,0,2,1.94l60.37-1.26,1.06,35L495,215.39a.82.82,0,0,1-.82-.8c-.8-31.19-1.62-63.06-2.42-94.07l17.39.24Z"/><path class="cls-4" d="M591.47,295.61l0-30.89,87.16-2.14,0,3.32a34.42,34.42,0,0,0-25.73,29.32Z"/><path class="cls-4" d="M363.22,383.62l117.27-1.29.53,20.54-59.91,9.63a.82.82,0,0,1-.34,0l-57.48-15.24a.82.82,0,0,1-.61-.78l-.27-12A.82.82,0,0,1,363.22,383.62Z"/><path class="cls-4" d="M361.63,312.07l49.82-.32a.82.82,0,0,1,.83.8l1.54,51.66a.82.82,0,0,1-.81.85l-50.19.56a.82.82,0,0,1-.83-.8l-1.16-51.9A.82.82,0,0,1,361.63,312.07Z"/><path class="cls-4" d="M322.17,312.33l22.81-.15a.82.82,0,0,1,.83.8L347,365a.82.82,0,0,1-.81.84l-37.83.42a.82.82,0,0,1-.8-1l13.86-52.26A.82.82,0,0,1,322.17,312.33Z"/><path class="cls-4" d="M794.59,309.23l32.35,1.1-13.39,50.52-27.69.26Z"/><path class="cls-4" d="M752.53,361.43,757.78,308l33.79,1.15-8.76,52Z"/><polygon class="cls-4" points="733.35 379.62 733.77 495.46 702.9 487.28 698.65 379.98 733.35 379.62"/><path class="cls-4" d="M683.65,380.14l4.08,103.12L637,469.82c2.57-31.48,5.74-70.17,7.34-89.26Z"/><path class="cls-4" d="M601.22,381l40.14-.43-.6,7.22c-1,11.63-2.24,27.13-3.51,42.64C636.12,444.22,635,458,634.09,469l-35.2-9.33a9.76,9.76,0,0,1-7.26-9.42l-.06-59.5A9.76,9.76,0,0,1,601.22,381Z"/><path class="cls-4" d="M343.22,233a.82.82,0,0,1,.82.8l1.4,62.56a.82.82,0,0,1-.82.84l-18,.11a.82.82,0,0,1-.8-1l16.62-62.68A.82.82,0,0,1,343.22,233Z"/><path class="cls-4" d="M320,384.1l26.54-.3a.82.82,0,0,1,.83.8l.16,7.38a.82.82,0,0,1-1,.81l-26.7-7.08A.82.82,0,0,1,320,384.1Z"/><path class="cls-4" d="M799.19,83.92a4.32,4.32,0,0,1-3.93-5.14L807.68,15A4.32,4.32,0,0,1,813,11.62l41.32,11-17,64.12Z"/><path class="cls-4" d="M808.76,378.87,775,506.38l-23.16-6.14-.45-120.8Z"/><path class="cls-4" d="M438.06,3.89a2,2,0,0,1-1.92,2l-12,.21a2,2,0,0,1-2-1.94L421.8-42l15.46-1.1Z"/><path class="cls-4" d="M357.75,182.06l1.23,32.1a.82.82,0,0,1-.82.85l-9.73,0a.82.82,0,0,1-.79-1l8.5-32.08A.82.82,0,0,1,357.75,182.06Z"/><path class="cls-4" d="M751.93,24.49a4.32,4.32,0,0,1-3.75-4.92L751,.16a4.32,4.32,0,0,1,5.38-3.55l8.29,2.2c-1.6,7.35-3.7,16.49-6,26.5Z"/><path class="cls-4" d="M787.22,4.78a4.32,4.32,0,0,1,3.14,5l-2.92,15a4.32,4.32,0,0,1-4.76,3.46l-21-2.56C763.91,16.08,766,7,767.57-.43Z"/><path class="cls-4" d="M564.72,3.6l-74,1.31a2,2,0,0,1-2-1.91c-.32-12.63-.62-24.53-.9-35.52l77.94,5.59.86,28.51A2,2,0,0,1,564.72,3.6Z"/><path class="cls-4" d="M453.43,25.54a2,2,0,0,1,1.92-2l13.95-.25a2,2,0,0,1,2,1.9c.16,6.42.33,13,.5,19.69l-18,.12Z"/><path class="cls-4" d="M472.36,67a2,2,0,0,1-2,2l-14.3,0a2,2,0,0,1-2-1.92L453.82,48l18.05-.12Z"/><path class="cls-4" d="M405.22,6.43a2,2,0,1,1,1.92-2h0a2,2,0,0,1-1.92,2Z"/><path class="cls-4" d="M439.14,66.95a2,2,0,0,1-2,2L423,68.9a2,2,0,0,1-2-2l.42-18.68,17.34-.11Z"/><path class="cls-4" d="M422,26a2,2,0,0,1,1.92-1.91l12.54-.22a2,2,0,0,1,2,1.92l.33,19.3-17.22.11Z"/><path class="cls-4" d="M583.18-46.72a2,2,0,0,1,2.46-2l8.53,2.26L596,5.52,584.72,4.14Z"/><path class="cls-4" d="M470.73,3.29a2,2,0,0,1-1.92,2l-13.76.24a2,2,0,0,1-2-1.92l-.43-25.35L470.1-22Q470.4-10,470.73,3.29Z"/><path class="cls-4" d="M748.54,197.68l-76-30.58a4.32,4.32,0,0,1-2.71-3.83l-3.68-90.73a4.32,4.32,0,0,0-4.37-4.15l-20.66.24a4.32,4.32,0,0,1-4.37-4.09l-1.67-31A4.32,4.32,0,0,1,639.94,29l63.86,7.77a4.32,4.32,0,0,1,3.75,5L700.19,88a4.32,4.32,0,0,0,3.35,4.9l63.63,13.86a4.32,4.32,0,0,1,3.32,5l-16.1,82.68A4.32,4.32,0,0,1,748.54,197.68Z"/><polygon class="cls-4" points="609.32 -42.39 616.1 -40.59 618.73 8.28 611.08 7.35 609.32 -42.39"/><path class="cls-4" d="M769.85,92l-23.07-5c2.79-11.19,6.77-27.32,10.7-43.67l21.14,2.57A4.32,4.32,0,0,1,782.34,51L775,88.59A4.32,4.32,0,0,1,769.85,92Z"/><path class="cls-4" d="M720.58,81.26a4.32,4.32,0,0,1-3.35-4.9l5.27-33.13a4.32,4.32,0,0,1,4.79-3.61l27.18,3.31c-3.5,14.56-7.23,29.79-10.62,43.4Z"/><path class="cls-4" d="M781.11,178.11a4.32,4.32,0,0,1-4.18-5.15L782.17,146l62.48.73,1.76,32.31Z"/><path class="cls-4" d="M790.13,105.13a4.32,4.32,0,0,1,4.56-3.49l43.9,3.18a4.32,4.32,0,0,1,4,4.08l1.9,34.87L782.75,143Z"/><path class="cls-4" d="M728.45,21.63l-91-11.07a4.32,4.32,0,0,1-3.79-4.06l-2.32-43.05L733.42-9.49a4.32,4.32,0,0,1,3.17,4.81L733.25,18A4.32,4.32,0,0,1,728.45,21.63Z"/><path class="cls-4" d="M404.09,68.84l-15.44,0a2,2,0,0,1-1.89-2.46l4.75-17.93,15-.1L406,66.93A2,2,0,0,1,404.09,68.84Z"/><path class="cls-4" d="M397.46,26a2,2,0,0,1,1.86-1.45l5.66-.1a2,2,0,0,1,2,2l-.43,18.88-14.23.09Z"/></g></g></g></svg>