<svg id="Layer_1" data-name="Layer 1" xmlns="http://www.w3.org/2000/svg" viewBox="0 0 403 200"><defs><style>.cls-1{fill:#03363d;}</style></defs><title>skycab</title><path class="cls-1" d="M14.72,129.95l3.6-8.76A34.94,34.94,0,0,0,40,128.38q6.24,0,9.48-2.1a6.68,6.68,0,0,0,3.24-5.94,6.3,6.3,0,0,0-2.22-5.1q-2.22-1.86-7.5-3.18L33,109.67Q25,108,20.9,103.73a14.63,14.63,0,0,1-4.14-10.62,15.88,15.88,0,0,1,6.54-13.2q6.54-5,17.34-5a36.93,36.93,0,0,1,12.3,2,28.51,28.51,0,0,1,9.9,5.76l-3.72,8.52q-8.76-7-18.48-7-5.88,0-9.12,2.22a7.08,7.08,0,0,0-3.24,6.18,6.59,6.59,0,0,0,2,5,14.4,14.4,0,0,0,6.48,3l10.32,2.52q8.64,1.92,12.78,6.06A14.53,14.53,0,0,1,64,120a15.09,15.09,0,0,1-6.54,12.9q-6.54,4.74-17.82,4.74Q23.84,137.63,14.72,129.95Z"/><path class="cls-1" d="M131.9,136.79H116.42L87.5,108.23v28.56h-12V48.47h12v55.2l26.88-27.24h15l-28.92,29Z"/><path class="cls-1" d="M196.86,76.3l-28.2,65.4Q164,152.38,157,157.37A40.93,40.93,0,0,1,139.62,164L137,154.67q8.52-1.92,12.9-5a20.94,20.94,0,0,0,7-9.18l2.16-5L133.62,76.3h12.84l19,46.8,19.32-46.8Z"/><path class="cls-1" d="M212.33,133.79A25.65,25.65,0,0,1,202,122.93a35.44,35.44,0,0,1-3.6-16.38A35.09,35.09,0,0,1,202.14,90a27.2,27.2,0,0,1,10.62-11.16,31.28,31.28,0,0,1,16-4A36.16,36.16,0,0,1,241,77a25.14,25.14,0,0,1,9.48,5.7l-3.72,8.76q-8.52-6.72-17.16-6.72t-13.68,5.7q-4.92,5.7-4.92,16t4.92,15.9q4.92,5.58,13.68,5.58t17.16-6.72l3.72,8.76a26.79,26.79,0,0,1-9.78,5.64,38,38,0,0,1-12.42,2A31.7,31.7,0,0,1,212.33,133.79Z"/><path class="cls-1" d="M314.41,76.3v60.48h-12V126.46a18.52,18.52,0,0,1-7.86,8.28,24.82,24.82,0,0,1-12.18,2.88,24.91,24.91,0,0,1-23.52-14.7,37.55,37.55,0,0,1-3.36-16.38A38.15,38.15,0,0,1,258.91,90a26.41,26.41,0,0,1,9.54-11.16,25,25,0,0,1,13.92-4,24.08,24.08,0,0,1,12.12,2.94,19.72,19.72,0,0,1,7.92,8.34V76.3Zm-16.5,46q4.5-5.7,4.5-16t-4.5-16.08q-4.5-5.64-12.78-5.64t-12.78,5.82q-4.62,5.82-4.62,16.14t4.62,15.84Q277,128,285.25,128T297.91,122.33Z"/><path class="cls-1" d="M375.2,78.71a25.38,25.38,0,0,1,9.48,10.92A38,38,0,0,1,388,106.07a37.77,37.77,0,0,1-3.42,16.5,26.5,26.5,0,0,1-9.54,11.1,25.07,25.07,0,0,1-13.92,4A24.39,24.39,0,0,1,349,134.69a18.73,18.73,0,0,1-7.86-8.46v10.56h-12V48.47h12v37.8a19.22,19.22,0,0,1,7.86-8.4,24,24,0,0,1,12.18-3A25.87,25.87,0,0,1,375.2,78.71Zm-4.08,43.5q4.56-5.82,4.56-16.14t-4.56-15.84q-4.56-5.64-12.72-5.64t-12.78,5.64q-4.5,5.64-4.5,16.08t4.5,16.08q4.5,5.64,12.78,5.64T371.12,122.21Z"/></svg>