<svg id="Layer_1" data-name="Layer 1" xmlns="http://www.w3.org/2000/svg" viewBox="0 0 192 192"><defs><style>.cls-1{fill:#03363d;}.cls-2{fill:#fff;}</style></defs><title>skycab_favicon</title><rect class="cls-1" width="192" height="192" rx="12" ry="12"/><path class="cls-2" d="M147.22,114.89l-6-24.35a8.56,8.56,0,0,0-3.88-5.94h5a4.21,4.21,0,0,0,4.2-4.2v-.65a4.2,4.2,0,0,0-4.2-4.19H136.1a4.2,4.2,0,0,0-3.49,1.88l-6.42-21.75a4.69,4.69,0,0,0-4.37-3.08H70.18a4.73,4.73,0,0,0-4.38,3.08L59.39,77.44a4.18,4.18,0,0,0-3.49-1.88H49.74a4.2,4.2,0,0,0-4.21,4.19v.65a4.21,4.21,0,0,0,4.21,4.2h5a8.58,8.58,0,0,0-3.89,5.94l-6,24.35c-.73,5.29,2.44,9.74,7,9.74h5.77v10.55a4.22,4.22,0,0,0,4.21,4.2h3.55a4.22,4.22,0,0,0,4.21-4.2V124.64h52.9v10.55a4.21,4.21,0,0,0,4.2,4.2h3.55a4.22,4.22,0,0,0,4.2-4.2V124.64h5.77C144.79,124.64,148,120.18,147.22,114.89ZM60.85,116.1a7,7,0,1,1,7-7A7,7,0,0,1,60.85,116.1Zm55.3-1.94H75.85v-3h40.29Zm0-6.7H75.85v-3h40.3ZM65.77,83.33l6.66-22.56a3.67,3.67,0,0,1,3.42-2.4h40.32a3.69,3.69,0,0,1,3.42,2.4l6.64,22.56Zm65.4,32.77a7,7,0,1,1,7-7A7,7,0,0,1,131.17,116.1ZM97.55,59.76H94.46a2.1,2.1,0,0,0-2.11,2.09v.32a2.1,2.1,0,0,0,2.11,2.11h3.08a2.09,2.09,0,0,0,2.09-2.11v-.32A2.09,2.09,0,0,0,97.55,59.76Z"/></svg>