<svg id="Skycab_hero" xmlns="http://www.w3.org/2000/svg" viewBox="0 0 1306 450"><defs><style>.cls-1{fill:#fff;opacity:0.2;}.cls-2{fill:#18464e;}.cls-3{fill:#266c78;}.cls-4{fill:#1c515a;}</style></defs><title>Skycab_home_pattern</title><polygon class="cls-1" points="414.28 114.68 417.09 113.13 418.61 110.31 420.16 113.11 422.98 114.63 420.18 116.19 418.65 119 417.1 116.2 414.28 114.68"/><polygon class="cls-1" points="507.67 38.4 510.48 36.85 512 34.03 513.55 36.83 516.37 38.36 513.57 39.91 512.04 42.73 510.49 39.92 507.67 38.4"/><polygon class="cls-1" points="98.21 74.31 101.02 72.76 102.54 69.94 104.09 72.74 106.91 74.27 104.11 75.82 102.58 78.64 101.03 75.83 98.21 74.31"/><polygon class="cls-1" points="286.94 179.44 289.75 177.88 291.27 175.06 292.82 177.87 295.64 179.39 292.84 180.94 291.31 183.76 289.76 180.96 286.94 179.44"/><polygon class="cls-1" points="349.42 19.75 352.23 18.2 353.75 15.38 355.3 18.19 358.12 19.71 355.32 21.26 353.79 24.08 352.24 21.28 349.42 19.75"/><polygon class="cls-1" points="387.72 100.74 390.52 99.19 392.04 96.37 393.6 99.17 396.42 100.69 393.61 102.25 392.09 105.06 390.54 102.26 387.72 100.74"/><polygon class="cls-1" points="293.45 36.57 294.9 35.77 295.68 34.32 296.48 35.77 297.93 36.55 296.49 37.35 295.71 38.8 294.91 37.36 293.45 36.57"/><polygon class="cls-1" points="217.31 89.77 218.75 88.97 219.54 87.51 220.34 88.96 221.79 89.74 220.35 90.54 219.56 91.99 218.76 90.55 217.31 89.77"/><polygon class="cls-1" points="677.26 65.16 678.7 64.36 679.49 62.91 680.28 64.36 681.74 65.14 680.29 65.94 679.51 67.39 678.71 65.95 677.26 65.16"/><polygon class="cls-1" points="504.26 154.19 505.71 153.4 506.49 151.94 507.29 153.39 508.74 154.17 507.3 154.97 506.51 156.42 505.71 154.98 504.26 154.19"/><polygon class="cls-1" points="419.4 71.29 420.85 70.49 421.63 69.04 422.43 70.48 423.88 71.27 422.44 72.07 421.65 73.52 420.86 72.08 419.4 71.29"/><polygon class="cls-1" points="329.77 123.34 331.21 122.54 332 121.09 332.8 122.53 334.25 123.32 332.81 124.12 332.02 125.57 331.22 124.12 329.77 123.34"/><polygon class="cls-1" points="118.39 261.12 122.23 259.24 124.32 255.82 126.44 259.21 130.3 261.06 126.46 262.94 124.37 266.36 122.25 262.96 118.39 261.12"/><polygon class="cls-1" points="69.75 163.55 71.19 162.75 71.97 161.3 72.77 162.75 74.22 163.53 72.78 164.33 72 165.78 71.2 164.34 69.75 163.55"/><polygon class="cls-1" points="401.02 195.88 402.3 195.08 402.99 193.63 403.7 195.08 404.98 195.86 403.71 196.66 403.01 198.11 402.31 196.67 401.02 195.88"/><polygon class="cls-1" points="434.3 6.11 435.58 5.31 436.27 3.85 436.98 5.3 438.26 6.08 436.99 6.88 436.29 8.34 435.59 6.89 434.3 6.11"/><polygon class="cls-1" points="34.43 191.89 35.99 194.7 38.8 196.22 36 197.77 34.48 200.59 32.93 197.79 30.11 196.26 32.91 194.71 34.43 191.89"/><polygon class="cls-1" points="17.61 135.92 18.41 137.37 19.87 138.15 18.42 138.95 17.64 140.4 16.84 138.96 15.39 138.18 16.83 137.38 17.61 135.92"/><polygon class="cls-1" points="48.08 276.77 48.88 278.05 50.33 278.74 48.89 279.45 48.1 280.73 47.3 279.46 45.85 278.76 47.3 278.06 48.08 276.77"/><polygon class="cls-1" points="1115.26 356.06 1116.81 358.87 1119.63 360.4 1116.82 361.94 1115.3 364.76 1113.75 361.96 1110.93 360.43 1113.73 358.88 1115.26 356.06"/><polygon class="cls-1" points="738.39 20.96 739.94 23.76 742.76 25.29 739.96 26.84 738.43 29.65 736.88 26.85 734.06 25.32 736.87 23.77 738.39 20.96"/><polygon class="cls-1" points="1146.02 59.03 1147.57 61.84 1150.38 63.37 1147.58 64.92 1146.05 67.73 1144.5 64.93 1141.69 63.4 1144.49 61.85 1146.02 59.03"/><polygon class="cls-1" points="1040.65 247.63 1042.19 250.43 1045.01 251.96 1042.21 253.51 1040.68 256.32 1039.13 253.52 1036.31 251.99 1039.12 250.44 1040.65 247.63"/><polygon class="cls-1" points="1200.25 310.32 1201.79 313.12 1204.61 314.65 1201.81 316.2 1200.28 319.01 1198.73 316.21 1195.91 314.68 1198.72 313.13 1200.25 310.32"/><polygon class="cls-1" points="933.87 374.64 935.42 377.45 938.24 378.98 935.43 380.52 933.91 383.34 932.36 380.54 929.54 379.01 932.35 377.46 933.87 374.64"/><polygon class="cls-1" points="1183.5 254.32 1184.3 255.77 1185.75 256.56 1184.3 257.35 1183.52 258.81 1182.72 257.36 1181.27 256.57 1182.71 255.78 1183.5 254.32"/><polygon class="cls-1" points="1130.41 178.11 1131.21 179.56 1132.66 180.34 1131.21 181.14 1130.43 182.59 1129.63 181.15 1128.18 180.36 1129.62 179.56 1130.41 178.11"/><polygon class="cls-1" points="1246.49 157.47 1247.29 158.91 1248.74 159.7 1247.3 160.5 1246.51 161.95 1245.71 160.5 1244.26 159.72 1245.71 158.92 1246.49 157.47"/><polygon class="cls-1" points="1286.94 106.46 1285.27 109.19 1285.33 112.4 1282.6 110.72 1279.4 110.79 1281.07 108.05 1281.01 104.85 1283.74 106.52 1286.94 106.46"/><polygon class="cls-1" points="1175.7 151.72 1174.84 153.12 1174.87 154.77 1173.47 153.91 1171.82 153.94 1172.68 152.54 1172.64 150.89 1174.05 151.75 1175.7 151.72"/><polygon class="cls-1" points="1251 242.45 1250.14 243.85 1250.17 245.5 1248.76 244.64 1247.11 244.67 1247.98 243.27 1247.94 241.62 1249.35 242.48 1251 242.45"/><polygon class="cls-1" points="737.8 116.78 738.6 118.22 740.05 119.01 738.6 119.81 737.82 121.26 737.02 119.81 735.57 119.03 737.01 118.23 737.8 116.78"/><polygon class="cls-1" points="828.14 49.85 828.94 51.29 830.39 52.08 828.95 52.88 828.16 54.33 827.36 52.88 825.91 52.09 827.36 51.3 828.14 49.85"/><polygon class="cls-1" points="597.65 205.75 598.45 207.2 599.9 207.98 598.46 208.78 597.67 210.23 596.87 208.79 595.42 208 596.87 207.2 597.65 205.75"/><polygon class="cls-1" points="584.79 23.96 585.59 25.41 587.04 26.19 585.59 26.99 584.81 28.44 584.01 27 582.56 26.21 584 25.41 584.79 23.96"/><polygon class="cls-1" points="1148.62 380.23 1149.41 381.67 1150.86 382.46 1149.42 383.26 1148.63 384.71 1147.84 383.26 1146.38 382.48 1147.83 381.68 1148.62 380.23"/><polygon class="cls-1" points="1096.69 290.53 1097.48 291.97 1098.93 292.76 1097.49 293.56 1096.7 295.01 1095.91 293.56 1094.46 292.78 1095.9 291.98 1096.69 290.53"/><polygon class="cls-1" points="959.19 78.97 961.06 82.81 964.48 84.9 961.08 87.02 959.23 90.87 957.35 87.03 953.94 84.94 957.34 82.82 959.19 78.97"/><polygon class="cls-1" points="1056.82 30.45 1057.61 31.89 1059.06 32.68 1057.62 33.48 1056.83 34.93 1056.04 33.48 1054.58 32.7 1056.03 31.9 1056.82 30.45"/><polygon class="cls-1" points="1024.05 361.68 1024.85 362.96 1026.3 363.65 1024.85 364.36 1024.07 365.64 1023.27 364.37 1021.82 363.67 1023.26 362.96 1024.05 361.68"/><polygon class="cls-1" points="804.26 105.06 805.81 107.87 808.63 109.4 805.82 110.94 804.29 113.76 802.75 110.96 799.93 109.43 802.74 107.88 804.26 105.06"/><polygon class="cls-1" points="729.65 -3.37 731.2 -0.57 734.01 0.96 731.21 2.51 729.68 5.32 728.13 2.52 725.31 0.99 728.12 -0.56 729.65 -3.37"/><polygon class="cls-1" points="889.25 59.32 890.79 62.12 893.61 63.65 890.81 65.2 889.28 68.01 887.73 65.21 884.91 63.68 887.72 62.13 889.25 59.32"/><polygon class="cls-1" points="363.22 94.92 364.76 97.72 367.58 99.25 364.78 100.8 363.25 103.62 361.7 100.81 358.88 99.28 361.69 97.73 363.22 94.92"/><polygon class="cls-1" points="622.87 123.64 624.42 126.45 627.24 127.98 624.43 129.53 622.91 132.34 621.36 129.54 618.54 128.01 621.35 126.46 622.87 123.64"/><polygon class="cls-1" points="872.5 3.33 873.3 4.77 874.75 5.56 873.3 6.35 872.52 7.8 871.72 6.36 870.27 5.57 871.71 4.78 872.5 3.33"/><polygon class="cls-1" points="674.68 126.24 675.48 127.68 676.93 128.47 675.49 129.26 674.7 130.72 673.9 129.27 672.45 128.48 673.9 127.69 674.68 126.24"/><polygon class="cls-1" points="933.49 351.47 934.29 352.91 935.74 353.7 934.3 354.5 933.51 355.95 932.71 354.5 931.26 353.72 932.71 352.92 933.49 351.47"/><polygon class="cls-1" points="284.65 399.75 285.45 401.2 286.9 401.98 285.46 402.78 284.67 404.23 283.87 402.79 282.42 402 283.87 401.2 284.65 399.75"/><polygon class="cls-1" points="837.62 129.23 838.41 130.67 839.86 131.46 838.42 132.26 837.63 133.71 836.84 132.26 835.38 131.48 836.83 130.68 837.62 129.23"/><polygon class="cls-1" points="785.69 39.53 786.48 40.97 787.93 41.76 786.49 42.56 785.7 44.01 784.91 42.56 783.46 41.78 784.9 40.98 785.69 39.53"/><polygon class="cls-1" points="713.05 110.68 713.85 111.96 715.3 112.65 713.85 113.36 713.07 114.64 712.27 113.37 710.82 112.67 712.26 111.97 713.05 110.68"/><path class="cls-2" d="M1313.25,409.09h-14.91v2.45h-2.18V407h-3.48v1.64h-2.25v2.25H1289v3.07h-1.64v2.86h-3.48v-4.91H1282V408.4h-2.25V387.54h-6.34v36.62H1271V413.52h-2.66v2.86h-2.66v-3.48l-2.56,2.56v6.85h-3V381.4h-1.43v27.82H1255v-26h-3.89v3.68h-2v17.39h-2.25V381.4h-8.8v22.71h-2.45V399.2l-4,4v1.94h-2.15v18.62h-6.14V372h-2.66v-2.66h-2.86v3.07h-3.07v-3.07H1209v54.82h-2.25V387.95h-4.09v36.21h-2.25V391.63h-2.66v-7h-2.86v40.09h-2.66V392h-2.66V389h-8v33.14h-4.91v2.66h-4.09v-3.48h-1.23v4.3h-2.45V386.31l-.92-.92v-6.65h-3.58v-2.45h-3.27V381h-3.07v9H1153v23.12h-3.27v-27h-3.27v-2.86h-2.66V390h-4.3V381.4h-1.84v-4.09h-2v3.89h-8.32v27.89h-8v2.45h-2.18V407h-3.48v1.64h-2.25v2.25h-1.43v3.07h-1.64v2.86h-3.48v-4.91H1103V408.4h-2.25V387.54h-6.34v36.62h-2.45V413.52h-2.66v2.86h-2.66v-3.48l-2.56,2.56v6.85h-3V381.4h-1.43v27.82H1076v-26h-3.89v3.68h-2v17.39h-2.25V381.4H1059v22.71h-2.45V399.2l-4,4v1.94h-2.15v18.62h-6.14V372h-2.66v-2.66h-2.86v3.07h-3.07v-3.07h-5.73v54.82h-2.25V387.95h-4.09v36.21h-2.25V391.63h-2.66v-7h-2.86v40.09h-2.66V392h-2.66V389h-8v33.14h-4.91v2.66h-4.09v-3.48H992.3v4.3h-2.45V386.31l-.92-.92v-6.65h-3.58v-2.45h-3.27V381H979v9h-5.11v23.12h-3.27v-27h-3.27v-2.86h-2.66V390h-4.3V381.4h-1.84v-4.09h-2v3.89h-2.66V342.13H942.39l-3.68-3.68H928.48l-4.09,4.09h-2v41.73h-3.27V366.67h-3.68L913,364.32h-6v12.79h-2v17.12h-3.48v-8.11H899v-6.34l-2.25-3.48v-6.34h-2V364h-3.48v5.93H889V382l-4.91,4.91v4.7h-8V366.47H873l-2.56-2.56h-6v2.76h-4.09V385.9h-3.89v6.34H853V380.38h-3.27l-4.4-4.4V355.22h-1.53v13.91h-3.07v9H835.4v6.55h-6.14v24.55h-3.68V374l-2.66-2.66V331.69h-2.25V321.06h-1.43v10.64h-2.66v19.64h-5.52v18.62l-6.85,6.85v21h-6.44V375.06h-2.25v-4.3H783.24l-4.6,4.6v11.15h-5.42v2h-3.48V350.31l-8.9-8.9-8.39,8.39v46.33h-3l-1.43-1.43h-2.66L744.06,396l-1.64,1.64v12.17H738c.61,0,0-92.26,0-92.26h-5.32v-2.45H723.1v2.45h-4.91v66.28H714.5L711.33,387H709v17.9h-3.27V359.72h-3.07v-8.59h-9.21v-3.68h-9.82v3.48h-6.34v6.75L671,363.91v34.67h-3v-25l-6.14-6.14h-18v37.64h-3.48v-7l-4.6-4.6H623.68v22h-.13v1.84h-3.89v-4.09H619V395.93l-5-5h-8.69v25.88H603v7.36h-3.89V406.56h-3.82v-10H580.58V407h-.48V395.11l-4.43-4.43v-3.75h-8.59l-3.62,3.62-3.62-3.62h-8.59v3.75l-4.43,4.43V407h-.48V396.54H531.62v10h-3.82v17.59h-3.89v-7.36h-2.25V390.91H513l-5,5v17.39h-.69v4.09h-3.89v-1.84h-.13v-22H491.09l-4.6,4.6v7H483V367.49H465l-6.14,6.14v25h-3V363.91l-6.24-6.24v-6.75h-6.34v-3.48H433.5v3.68H424.3v8.59h-3.07v45.21H418V387H415.6l-3.17-3.17h-3.68V317.58h-4.91v-2.45h-9.61v2.45h-5.32s-.61,92.26,0,92.26h-4.4V397.67L382.87,396l-1.33-1.33h-2.66l-1.43,1.43h-3V349.8l-8.39-8.39-8.9,8.9v38.25h-3.48v-2H348.3V375.37l-4.6-4.6H331.42v4.3h-2.25v22.71h-6.44v-21l-6.85-6.85V351.33h-5.52V331.69h-2.66V321.06h-1.43v10.64H304v39.69L301.35,374v35.19h-3.68V384.68h-6.14v-6.55h-5.32v-9h-3.07V355.22h-1.53V376l-4.4,4.4h-3.27v11.86h-3.48V385.9h-3.89V366.67h-4.09v-2.76h-6l-2.56,2.56h-3.07v25.16h-8v-4.7L237.94,382V369.95h-2.25V364h-3.48v5.93h-2v6.34l-2.25,3.48v6.34h-2.45v8.11H222V377.11h-2V364.32h-6l-2.35,2.35h-3.68v17.59h-3.27V342.53h-2l-4.09-4.09H188.23l-3.68,3.68H173.09V381.2h-2.66v-3.89h-2v4.09h-1.84V390h-4.3v-6.75h-2.66v2.86h-3.27v27H153V390h-5.11v-9h-3.07v-4.71h-3.27v2.45H138v6.65l-.92.92v39.28h-2.45v-4.3H133.4v3.48h-4.09v-2.66H124.4V389h-8V392h-2.66v32.73h-2.66V384.68h-2.86v7h-2.66v32.53h-2.25V387.95H99.24v36.21H97V369.33H91.26v3.07H88.19v-3.07H85.33V372H82.67v51.76H76.53V405.13H74.39v-1.94l-4-4v4.91H67.94V381.4h-8.8v22.91H56.9V386.93h-2v-3.68H51v26H47.28V381.4H45.85v40.91h-3v-6.85l-2.56-2.56v3.48H37.67v-2.86H35v10.64H32.55V387.54H26.21V408.4H24v3.48H22.12v4.91H18.64v-2.86H17v-3.07H15.57v-2.25H13.32V407H9.85v4.57H7.66v-2.45H-6.75V450h1320Z"/><path class="cls-3" d="M121,376a2.92,2.92,0,0,0-2.92,2.92c0,1.33,2,5.35,2.68,7,.13.32.34.32.47,0,.69-1.7,2.68-5.72,2.68-7A2.92,2.92,0,0,0,121,376Zm0,4.81a1.86,1.86,0,1,1,1.86-1.86A1.86,1.86,0,0,1,121,380.81Z"/><path class="cls-3" d="M250.58,379a5.49,5.49,0,0,0-5.49,5.49c0,2.5,3.74,10.06,5.05,13.27.24.6.65.6.89,0,1.31-3.21,5.05-10.76,5.05-13.27A5.49,5.49,0,0,0,250.58,379Zm0,9.06a3.51,3.51,0,1,1,3.51-3.51A3.51,3.51,0,0,1,250.58,388.06Z"/><path class="cls-3" d="M558,355a6.92,6.92,0,0,0-6.92,6.92c0,3.16,4.72,12.68,6.37,16.72.31.75.81.75,1.12,0,1.65-4,6.37-13.56,6.37-16.72A6.92,6.92,0,0,0,558,355Zm0,11.42a4.42,4.42,0,1,1,4.42-4.42A4.42,4.42,0,0,1,558,366.42Z"/><path class="cls-3" d="M1039.63,359a2.35,2.35,0,0,0-2.35,2.35c0,1.07,1.6,4.3,2.16,5.67.1.25.28.25.38,0,.56-1.37,2.16-4.6,2.16-5.67A2.35,2.35,0,0,0,1039.63,359Zm0,3.87a1.5,1.5,0,1,1,1.5-1.5A1.5,1.5,0,0,1,1039.64,362.87Z"/><path class="cls-3" d="M1091.67,371.19a4.58,4.58,0,0,0-4.58,4.58c0,2.09,3.12,8.39,4.21,11.06.2.5.54.5.74,0,1.09-2.67,4.21-9,4.21-11.06A4.58,4.58,0,0,0,1091.67,371.19Zm0,7.56a2.92,2.92,0,1,1,2.93-2.93A2.93,2.93,0,0,1,1091.67,378.74Z"/><path class="cls-3" d="M903,320a6.92,6.92,0,0,0-6.92,6.92c0,3.16,4.72,12.68,6.37,16.72.31.75.81.75,1.12,0,1.65-4,6.37-13.56,6.37-16.72A6.92,6.92,0,0,0,903,320Zm0,11.42a4.42,4.42,0,1,1,4.42-4.42A4.42,4.42,0,0,1,903,331.42Z"/><path class="cls-3" d="M788.67,363.68a1.58,1.58,0,0,0-1.58,1.58,19.89,19.89,0,0,0,1.45,3.82c.07.17.19.17.26,0a19.88,19.88,0,0,0,1.45-3.82A1.58,1.58,0,0,0,788.67,363.68Zm0,2.61a1,1,0,1,1,1-1A1,1,0,0,1,788.67,366.28Z"/><path class="cls-3" d="M609.67,376.68a3.58,3.58,0,0,0-3.58,3.58c0,1.63,2.44,6.56,3.29,8.65.16.39.42.39.58,0,.85-2.09,3.29-7,3.29-8.65A3.58,3.58,0,0,0,609.67,376.68Zm0,5.91A2.29,2.29,0,1,1,612,380.3,2.29,2.29,0,0,1,609.67,382.59Z"/><path class="cls-3" d="M438.67,340.68a1.58,1.58,0,0,0-1.58,1.58,19.89,19.89,0,0,0,1.45,3.82c.07.17.19.17.26,0a19.88,19.88,0,0,0,1.45-3.82A1.58,1.58,0,0,0,438.67,340.68Zm0,2.61a1,1,0,1,1,1-1A1,1,0,0,1,438.67,343.28Z"/><path class="cls-3" d="M352.67,375.18a2.58,2.58,0,0,0-2.58,2.58c0,1.18,1.76,4.73,2.37,6.23.11.28.3.28.42,0,.61-1.51,2.37-5.06,2.37-6.23A2.58,2.58,0,0,0,352.67,375.18Zm0,4.26a1.65,1.65,0,1,1,1.65-1.65A1.65,1.65,0,0,1,352.67,379.44Z"/><polygon class="cls-4" points="-7.25 450 653.25 450 1313.25 450 1313.25 421.36 1302.06 421.36 1302.06 429.54 1300.15 429.54 1300.15 435 1296.06 435 1296.06 431.18 1291.69 431.18 1291.69 425.73 1288.15 425.73 1288.15 418.91 1278.05 418.91 1278.05 414.54 1274.78 414.54 1274.78 421.36 1272.33 421.36 1272.33 427.09 1268.78 427.09 1268.78 423 1266.33 423 1266.33 419.18 1248.6 419.18 1248.6 422.18 1244.51 422.18 1244.51 428.73 1238.5 428.73 1238.5 412.09 1233.05 412.09 1233.05 415.5 1231.28 415.5 1230.05 414.27 1223.5 414.27 1223.5 422.72 1221.32 422.72 1221.32 417.27 1219.14 417.27 1219.14 423.81 1212.32 423.81 1212.32 431.73 1208.5 431.73 1208.5 426.82 1206.05 426.82 1206.05 424.36 1203.86 424.36 1203.86 426.27 1201.41 426.27 1201.41 428.73 1195.14 428.73 1195.14 419.72 1186.13 419.72 1186.13 428.45 1182.59 428.45 1182.59 423 1180.41 423 1180.41 428.18 1174.68 428.18 1167.04 420.54 1167.04 405.81 1159.95 405.81 1159.95 423.81 1156.4 423.81 1156.4 410.45 1152.31 414.54 1152.31 426.54 1148.49 426.54 1148.49 415.09 1141.95 415.09 1141.95 418.36 1138.13 418.36 1138.13 408 1130.77 408 1130.77 403.63 1126.13 403.63 1126.13 372.81 1119.86 372.81 1119.86 403.9 1116.58 403.9 1116.58 423.81 1111.95 423.81 1111.95 409.63 1108.4 413.18 1108.4 426.27 1104.58 426.27 1104.58 390.54 1087.13 390.54 1087.13 426 1083.03 426 1083.03 419.72 1079.49 419.72 1079.49 414.27 1075.67 414.27 1075.67 402.27 1049.48 402.27 1049.48 407.45 1044.3 407.45 1044.3 418.63 1039.67 418.63 1039.67 407.86 1032.98 407.86 1027.66 413.18 1020.3 413.18 1020.3 423.54 1016.75 423.54 1016.75 413.18 1013.75 413.18 1013.75 394.36 1006.39 394.36 999.03 401.72 999.03 418.09 995.48 418.09 995.48 392.18 988.66 392.18 981.02 399.81 981.02 408.27 978.3 408.27 978.3 392.45 967.6 392.45 967.6 387.81 951.57 387.81 951.57 392.18 944.47 392.18 944.47 406.9 937.66 406.9 937.66 374.45 934.11 374.45 928.72 369.06 923.2 374.58 920.75 374.58 920.75 413.18 917.06 413.18 917.06 405.68 914.2 402.81 914.2 383.99 912.02 383.99 912.02 349.63 907.65 349.63 907.65 347.44 898.65 347.44 898.65 350.17 894.83 350.17 894.83 390.81 889.38 390.81 889.38 417 885.56 417 885.56 399.54 882.56 399.54 882.56 385.08 879.56 385.08 879.56 400.09 874.38 400.09 874.38 368.17 871.38 360.54 864.83 360.54 861.56 367.36 861.56 380.18 857.74 380.18 857.74 374.58 853.37 374.58 849.56 380.18 849.56 404.18 844.92 404.18 844.92 380.99 841.1 380.99 841.1 404.18 836.46 404.18 836.46 327.81 831.28 327.81 831.28 299.17 829.1 299.17 829.1 327.53 817.64 327.53 817.64 373.36 813.55 360.81 807.82 360.81 807.82 393.54 794.87 400.09 794.87 423.13 787.91 416.18 787.91 394.36 784.1 394.36 784.1 411.81 780.28 411.81 780.28 387.81 776.18 387.81 768 396 760.91 396 760.91 416.18 756.82 416.18 756.82 387.27 750.55 387.27 750.55 382.36 746.46 382.36 746.46 386.72 740.45 386.72 740.45 404.45 737.18 404.45 737.18 410.18 734.18 410.18 734.18 420.81 730.91 420.81 730.91 394.36 725.45 388.9 717.54 388.9 717.54 392.45 715.36 392.45 715.36 426.27 710.45 426.27 710.45 416.72 706.9 416.72 706.9 400.9 699.81 400.9 699.81 417 697.63 417 697.63 430.63 685.36 430.63 685.36 421.91 681.27 421.91 681.27 434.73 673.63 434.73 673.63 392.99 662.99 388.9 655.9 391.9 655.9 437 653.25 437 650.6 437 650.6 391.9 643.51 388.9 632.87 392.99 632.87 434.73 625.23 434.73 625.23 421.91 621.14 421.91 621.14 430.63 608.87 430.63 608.87 417 606.69 417 606.69 400.9 599.6 400.9 599.6 416.72 596.05 416.72 596.05 426.27 591.14 426.27 591.14 392.45 588.96 392.45 588.96 388.9 581.05 388.9 575.59 394.36 575.59 420.81 572.32 420.81 572.32 410.18 569.32 410.18 569.32 404.45 566.05 404.45 566.05 386.72 560.04 386.72 560.04 382.36 555.95 382.36 555.95 387.27 549.68 387.27 549.68 416.18 545.59 416.18 545.59 396 538.5 396 530.32 387.81 526.22 387.81 526.22 411.81 522.4 411.81 522.4 394.36 518.59 394.36 518.59 416.18 511.63 423.13 511.63 400.09 498.68 393.54 498.68 360.81 492.95 360.81 488.86 373.36 488.86 327.53 477.4 327.53 477.4 299.17 475.22 299.17 475.22 327.81 470.04 327.81 470.04 404.18 465.4 404.18 465.4 380.99 461.58 380.99 461.58 404.18 456.94 404.18 456.94 380.18 453.13 374.58 448.76 374.58 448.76 380.18 444.94 380.18 444.94 367.36 441.67 360.54 435.12 360.54 432.12 368.17 432.12 400.09 426.94 400.09 426.94 385.08 423.94 385.08 423.94 399.54 420.94 399.54 420.94 417 417.12 417 417.12 390.81 411.67 390.81 411.67 350.17 407.85 350.17 407.85 347.44 398.85 347.44 398.85 349.63 394.48 349.63 394.48 383.99 392.3 383.99 392.3 402.81 389.44 405.68 389.44 413.18 385.75 413.18 385.75 374.58 383.3 374.58 377.78 369.06 372.39 374.45 368.84 374.45 368.84 406.9 362.03 406.9 362.03 392.18 354.93 392.18 354.93 387.81 338.9 387.81 338.9 392.45 328.2 392.45 328.2 408.27 325.48 408.27 325.48 399.81 317.84 392.18 311.02 392.18 311.02 418.09 307.47 418.09 307.47 401.72 300.11 394.36 292.75 394.36 292.75 413.18 289.75 413.18 289.75 423.54 286.2 423.54 286.2 413.18 278.83 413.18 273.52 407.86 266.83 407.86 266.83 418.63 262.2 418.63 262.2 407.45 257.01 407.45 257.01 402.27 230.83 402.27 230.83 414.27 227.01 414.27 227.01 419.72 223.47 419.72 223.47 426 219.38 426 219.38 390.54 201.92 390.54 201.92 426.27 198.1 426.27 198.1 413.18 194.55 409.63 194.55 423.81 189.92 423.81 189.92 403.9 186.64 403.9 186.64 372.81 180.37 372.81 180.37 403.63 175.73 403.63 175.73 408 168.37 408 168.37 418.36 164.55 418.36 164.55 415.09 158 415.09 158 426.54 154.19 426.54 154.19 414.54 150.09 410.45 150.09 423.81 146.55 423.81 146.55 405.81 139.46 405.81 139.46 420.54 131.82 428.18 126.09 428.18 126.09 423 123.91 423 123.91 428.45 120.36 428.45 120.36 419.72 111.36 419.72 111.36 428.73 105.09 428.73 105.09 426.27 102.64 426.27 102.64 424.36 100.45 424.36 100.45 426.82 98 426.82 98 431.73 94.18 431.73 94.18 423.81 87.36 423.81 87.36 417.27 85.18 417.27 85.18 422.72 83 422.72 83 414.27 76.45 414.27 75.22 415.5 73.45 415.5 73.45 412.09 68 412.09 68 428.73 61.99 428.73 61.99 422.18 57.9 422.18 57.9 419.18 40.17 419.18 40.17 423 37.72 423 37.72 427.09 34.17 427.09 34.17 421.36 31.72 421.36 31.72 414.54 28.45 414.54 28.45 418.91 18.35 418.91 18.35 425.73 14.81 425.73 14.81 431.18 10.44 431.18 10.44 435 6.35 435 6.35 429.54 4.44 429.54 4.44 421.36 -7.25 421.36 -7.25 450"/></svg>