<?xml version="1.0" encoding="iso-8859-1"?>
<!-- Generator: Adobe Illustrator 19.0.0, SVG Export Plug-In . SVG Version: 6.00 Build 0)  -->
<svg version="1.1" id="Layer_1" xmlns="http://www.w3.org/2000/svg" xmlns:xlink="http://www.w3.org/1999/xlink" x="0px" y="0px"
	 viewBox="0 0 496.023 496.023" style="enable-background:new 0 0 496.023 496.023;" xml:space="preserve">
<path style="fill:#3F3A34;" d="M404.971,324.487l-67.144,41.96l8.488,13.568l53.656-33.536l-15.4,67.752l-57.024,35.64
	l-11.568-50.896l16.264-10.168l-8.488-13.568l-11.536,7.208l-11.568-50.896l119.6-74.752l-8.488-13.568l-114.872,71.792
	l-11.568-50.896l78.92-49.328l-8.488-13.568l-74.192,46.368l-11.568-50.896l86.248-53.904l-4.232-6.776v-8H237.987l26.408,116.216
	c-16.08-17.304-38.952-28.216-64.384-28.216c-0.912,0-1.8,0.128-2.712,0.152c-22.96-18.088-52.8-26.472-81.728-23.312L60.331,61.679
	L5.483,83.623l55.216,131.144c-25.912,19.52-41.896,48.912-44.184,81.256H0.011v48h16.8l16,152h238.4l15.952-151.6l27.72,121.968
	c3.968,17.448,19.24,29.632,37.128,29.632s33.16-12.184,37.128-29.632l42.68-187.8l-15.608-3.544L404.971,324.487z M324.115,144.023
	l-57.856,36.16l-8.224-36.16H324.115z M75.243,208.103l20.68-20.68l13.56,32.2l-25.152,10.056L75.243,208.103z M68.547,192.175
	l-14.632-34.744l20.68-20.68l14.632,34.744L68.547,192.175z M51.691,82.367l16.192,38.464l-20.672,20.68L26.539,92.423
	L51.691,82.367z M67.067,229.887l8.624,20.48l54.848-21.944l-8.488-20.152c18.024-1.056,36.232,3.072,52.104,11.712
	c-17.56,5.352-33.136,16.016-44.56,31.232l12.8,9.608c13.76-18.304,34.752-28.8,57.616-28.8c37,0,67.536,28.056,71.528,64H32.515
	C34.659,270.079,47.003,246.351,67.067,229.887z M47.211,480.023l-14.32-136h199.12v-16h-216v-16h263.792l3.64,16h-35.432v16h23.12
	l-14.32,136H47.211z M352.011,480.023c-9.168,0-17.12-5.528-20.44-13.792l48-30l-6.048,26.616
	C371.227,472.959,362.387,480.023,352.011,480.023z"/>
<g>
	<path style="fill:#FFA64D;" d="M448.051,36.727c-30.904-27.68-70.872-40.416-112.4-35.8c-66.136,7.296-119.44,60.6-126.736,126.728
		c-3.72,33.648,4.456,66.688,22.04,94.096c12.856,4.848,24.256,12.6,33.44,22.488l-26.408-116.216h114.024v8v8v64
		c0,22.056,17.944,40,40,40c13.232,0,24,10.768,24,24v24c0,22.056,17.944,40,40,40s40-17.944,40-40v-152
		C496.011,103.135,478.523,64.023,448.051,36.727z"/>
	<rect x="56.011" y="360.023" style="fill:#FFA64D;" width="192" height="80"/>
</g>
<g>
	<rect x="344.011" y="32.023" style="fill:#3F3A34;" width="16" height="16"/>
	<rect x="376.011" y="48.023" style="fill:#3F3A34;" width="16" height="16"/>
	<rect x="408.011" y="64.023" style="fill:#3F3A34;" width="16" height="16"/>
	<rect x="328.011" y="64.023" style="fill:#3F3A34;" width="16" height="16"/>
	<rect x="296.011" y="48.023" style="fill:#3F3A34;" width="16" height="16"/>
	<rect x="264.011" y="80.023" style="fill:#3F3A34;" width="16" height="16"/>
	<rect x="392.011" y="88.023" style="fill:#3F3A34;" width="16" height="16"/>
	<rect x="432.011" y="88.023" style="fill:#3F3A34;" width="16" height="16"/>
	<rect x="448.011" y="160.023" style="fill:#3F3A34;" width="16" height="128"/>
	<rect x="448.011" y="128.023" style="fill:#3F3A34;" width="16" height="16"/>
	<rect x="72.011" y="376.023" style="fill:#3F3A34;" width="160" height="16"/>
	<rect x="216.011" y="408.023" style="fill:#3F3A34;" width="16" height="16"/>
	<rect x="72.011" y="408.023" style="fill:#3F3A34;" width="128" height="16"/>
</g>
<g>
</g>
<g>
</g>
<g>
</g>
<g>
</g>
<g>
</g>
<g>
</g>
<g>
</g>
<g>
</g>
<g>
</g>
<g>
</g>
<g>
</g>
<g>
</g>
<g>
</g>
<g>
</g>
<g>
</g>
</svg>
