<?xml version="1.0" encoding="iso-8859-1"?>
<!-- Generator: Adobe Illustrator 19.0.0, SVG Export Plug-In . SVG Version: 6.00 Build 0)  -->
<svg version="1.1" id="Capa_1" xmlns="http://www.w3.org/2000/svg" xmlns:xlink="http://www.w3.org/1999/xlink" x="0px" y="0px"
	 viewBox="0 0 496 496" style="enable-background:new 0 0 496 496;" xml:space="preserve">
<rect x="184" y="104" style="fill:#FFA64D;" width="128" height="96"/>
<g>
	<path style="fill:#333333;" d="M456,240v-88c0-40.192-27.12-74.104-64-84.592V24c0-13.232-10.768-24-24-24h-72
		c-13.232,0-24,10.768-24,24v40h-48V24c0-13.232-10.768-24-24-24h-72c-13.232,0-24,10.768-24,24v43.408
		C67.12,77.896,40,111.808,40,152v88c-22.056,0-40,17.944-40,40v40c0,13.128,6.448,24.704,16.248,32H16v56c0,48.52,39.48,88,88,88
		h288c48.52,0,88-39.48,88-88v-56h-0.248c9.8-7.296,16.248-18.872,16.248-32v-40C496,257.944,478.056,240,456,240z M440,152v88h-32
		v-16c0-5.896-3.24-11-8-13.776v-38.368c0-31.136-6.32-61.944-18.336-90.52C414.848,87.744,440,116.976,440,152z M408,336h32v32h-32
		V336z M88,368H56v-32h32V368z M104,224h32l0.008,39.904c0,0.032-0.008,0.064-0.008,0.096v8h-32V224z M171.84,80h152.32
		c12.96,25.584,19.84,53.968,19.84,82.712V224v12.448c-4.728-2.752-10.144-4.448-16-4.448h-8v16h8c8.824,0,16,7.176,16,16v8v45.088
		c-11.904,14.768-29.264,24.312-48,26.432V328c0-8.824-7.176-16-16-16h-64c-8.824,0-16,7.176-16,16v15.528
		c-18.736-2.12-36.096-11.672-48-26.432V272v-8c0-8.824,7.176-16,16-16h136v-16H168c-5.856,0-11.272,1.696-16,4.448V224v-61.288
		C152,133.968,158.88,105.584,171.84,80z M384,208h-24v-45.288c0-34.568-9.064-68.696-26.216-98.712h21.576
		C374.096,96.792,384,134.088,384,171.856V208z M280,328v48h-64v-48H280z M104,368v-32v-48h32v75.176
		c0,41.624,11.472,81.688,33.168,116.824h-29.216C116.808,450.936,104,414.736,104,377.52V368z M152,363.176v-23.36
		c13.584,11.168,30.36,18.072,48,19.704V376c0,8.824,7.176,16,16,16h64c8.824,0,16-7.176,16-16v-16.472
		c17.64-1.64,34.416-8.536,48-19.704v23.36c0,42-12.608,82.264-36.304,116.824H188.304C164.608,445.448,152,405.176,152,363.176z
		 M360,363.176V288h32v48v32v9.52c0,37.216-12.808,73.416-35.952,102.48h-29.216C348.528,444.864,360,404.808,360,363.176z M360,272
		v-8v-40h32v48H360z M288,24c0-4.408,3.592-8,8-8h72c4.408,0,8,3.592,8,8v40.408c-0.792-0.072-1.6-0.072-2.4-0.12
		c-1.432-2.752-2.808-5.528-4.352-8.224C366.408,51.088,361.08,48,355.352,48h-21.568c-5.768,0-10.944,2.984-13.832,7.968
		c-1.464,2.512-2.184,5.272-2.184,8.032H288V24z M120,24c0-4.408,3.592-8,8-8h72c4.408,0,8,3.592,8,8v40h-29.768
		c0-2.76-0.72-5.52-2.184-8.032C173.16,50.984,167.984,48,162.216,48h-21.568c-5.728,0-11.048,3.088-13.896,8.064
		c-1.544,2.696-2.92,5.472-4.344,8.224c-0.8,0.048-1.608,0.048-2.4,0.12V24H120z M56,152c0-35.024,25.152-64.256,58.336-70.664
		C102.32,109.912,96,140.72,96,171.856V176h16v-4.144c0-37.768,9.904-75.064,28.648-107.856h21.568
		C145.064,94.008,136,128.144,136,162.712V208h-24v-16H96v18.224c-4.76,2.776-8,7.88-8,13.776v16H56V152z M16,280
		c0-13.232,10.768-24,24-24h48v16v48H56c-8.824,0-16,7.176-16,16v8c-13.232,0-24-10.768-24-24V280z M32,408v-48.808
		c2.584,0.528,5.264,0.808,8,0.808v8c0,8.824,7.176,16,16,16h32c0.096,0,0.184-0.024,0.28-0.032
		c1.24,34.392,12.2,67.784,31.656,96.032H104C64.304,480,32,447.696,32,408z M464,408c0,39.696-32.304,72-72,72h-15.936
		c19.456-28.248,30.416-61.64,31.656-96.032c0.096,0.008,0.184,0.032,0.28,0.032h32c8.824,0,16-7.176,16-16v-8
		c2.736,0,5.416-0.28,8-0.808V408z M480,320c0,13.232-10.768,24-24,24v-8c0-8.824-7.176-16-16-16h-32v-48v-16h48
		c13.232,0,24,10.768,24,24V320z"/>
	<rect x="208" y="128" style="fill:#333333;" width="80" height="16"/>
	<rect x="208" y="160" style="fill:#333333;" width="48" height="16"/>
	<rect x="272" y="160" style="fill:#333333;" width="16" height="16"/>
</g>
<g>
</g>
<g>
</g>
<g>
</g>
<g>
</g>
<g>
</g>
<g>
</g>
<g>
</g>
<g>
</g>
<g>
</g>
<g>
</g>
<g>
</g>
<g>
</g>
<g>
</g>
<g>
</g>
<g>
</g>
</svg>
