<?xml version="1.0" encoding="iso-8859-1"?>
<!-- Generator: Adobe Illustrator 19.0.0, SVG Export Plug-In . SVG Version: 6.00 Build 0)  -->
<svg version="1.1" id="Capa_1" xmlns="http://www.w3.org/2000/svg" xmlns:xlink="http://www.w3.org/1999/xlink" x="0px" y="0px"
	 viewBox="0 0 496 496" style="enable-background:new 0 0 496 496;" xml:space="preserve">
<rect x="184" y="88" style="fill:#FFA64D;" width="128" height="104"/>
<g>
	<path style="fill:#333333;" d="M160,264c-13.232,0-24-10.768-24-24h-16c0,22.056,17.944,40,40,40s40-17.944,40-40h-16
		C184,253.232,173.232,264,160,264z"/>
	<path style="fill:#333333;" d="M336,264c-13.232,0-24-10.768-24-24h-16c0,22.056,17.944,40,40,40s40-17.944,40-40h-16
		C360,253.232,349.232,264,336,264z"/>
	<path style="fill:#333333;" d="M480,240c0-28.152-20.904-51.456-48-55.36V176c0-27.488-64.584-39.096-103.072-43.568l-1.848,15.888
		C393.608,156.056,416,170.568,416,176c0,10.856-59.296,32-168,32S80,186.856,80,176c0-5.432,22.392-19.944,88.928-27.68
		l-1.848-15.888C128.584,136.904,64,148.512,64,176v8.64c-27.096,3.904-48,27.208-48,55.36c0,28.216,21,51.568,48.184,55.392
		C66.96,365.048,108.6,424.872,168,453.672V496h16v-35.496C203.944,467.928,225.504,472,248,472s44.056-4.072,64-11.496V496h16
		v-42.328c59.4-28.8,101.04-88.624,103.816-158.288C459,291.568,480,268.216,480,240z M32,240c0-19.312,13.768-35.472,32-39.192
		v78.384C45.768,275.472,32,259.312,32,240z M248,456c-92.64,0-168-75.368-168-168v-90.584C114.856,217.936,198.544,224,248,224
		s133.144-6.064,168-26.584V288C416,380.632,340.64,456,248,456z M432,279.192v-78.384c18.232,3.72,32,19.872,32,39.192
		S450.232,275.472,432,279.192z"/>
	<path style="fill:#333333;" d="M216,48c0-17.648,14.352-32,32-32s32,14.352,32,32v40h16V48c0-26.472-21.528-48-48-48
		s-48,21.528-48,48v40h16V48z"/>
	<path style="fill:#333333;" d="M248,112c-13.232,0-24,10.768-24,24s10.768,24,24,24s24-10.768,24-24S261.232,112,248,112z M248,144
		c-4.408,0-8-3.584-8-8s3.592-8,8-8c4.408,0,8,3.584,8,8S252.408,144,248,144z"/>
	<path style="fill:#333333;" d="M352,128c10.416,0,19.216-6.712,22.528-16H408V96h-33.472c-3.312-9.288-12.112-16-22.528-16
		c-13.232,0-24,10.768-24,24S338.768,128,352,128z M352,96c4.408,0,8,3.584,8,8s-3.592,8-8,8s-8-3.584-8-8S347.592,96,352,96z"/>
	<path style="fill:#333333;" d="M144,128c13.232,0,24-10.768,24-24s-10.768-24-24-24c-10.416,0-19.216,6.712-22.528,16H88v16h33.472
		C124.784,121.288,133.584,128,144,128z M144,96c4.408,0,8,3.584,8,8s-3.592,8-8,8s-8-3.584-8-8S139.592,96,144,96z"/>
</g>
<g>
</g>
<g>
</g>
<g>
</g>
<g>
</g>
<g>
</g>
<g>
</g>
<g>
</g>
<g>
</g>
<g>
</g>
<g>
</g>
<g>
</g>
<g>
</g>
<g>
</g>
<g>
</g>
<g>
</g>
</svg>
