<?xml version="1.0" encoding="iso-8859-1"?>
<!-- Generator: Adobe Illustrator 19.0.0, SVG Export Plug-In . SVG Version: 6.00 Build 0)  -->
<svg version="1.1" id="Layer_1" xmlns="http://www.w3.org/2000/svg" xmlns:xlink="http://www.w3.org/1999/xlink" x="0px" y="0px"
	 viewBox="0 0 295.24 295.24" style="enable-background:new 0 0 295.24 295.24;" xml:space="preserve">
<g>
	<g>
		<path style="fill:#333333;" d="M280.952,78.571h-71.429v-23.81c0-5.362-3-9.986-7.381-12.429c1.643-2.567,2.619-5.6,2.619-8.867
			c0-6.305-3.5-11.971-9.138-14.786l-9.91-4.957V2.381h-9.524V19.61l15.176,7.586c2.386,1.195,3.871,3.6,3.871,6.271
			c0,3.076-2.005,5.667-4.762,6.61v-9.124h-9.524v9.524v4.762V50v4.762c0,2.624-2.133,4.762-4.762,4.762s-4.762-2.138-4.762-4.762
			h-9.524c0,2.624-2.133,4.762-4.762,4.762s-4.762-2.138-4.762-4.762h-9.524c0,2.624-2.133,4.762-4.762,4.762
			s-4.762-2.138-4.762-4.762h-9.524c0,2.624-2.133,4.762-4.762,4.762s-4.762-2.138-4.762-4.762V31.724l4.762-14.286V2.381h-9.524
			v13.514l-4.762,14.286v10.295H100c-7.876,0-14.286,6.41-14.286,14.286v23.81H14.286C6.41,78.571,0,84.981,0,92.857v171.429
			c0,6.2,3.995,11.438,9.524,13.41v5.638c0,5.252,4.271,9.524,9.524,9.524h19.048c5.252,0,9.524-4.271,9.524-9.524v-4.762h200v4.762
			c0,5.252,4.271,9.524,9.524,9.524h19.048c5.252,0,9.524-4.271,9.524-9.524v-5.638c5.529-1.971,9.524-7.21,9.524-13.41V92.857
			C295.238,84.981,288.828,78.571,280.952,78.571z M190.476,54.762V50h4.762c2.629,0,4.762,2.138,4.762,4.762v4.762h-10.4
			C190.133,58.028,190.476,56.438,190.476,54.762z M100,50h4.762v4.762c0,1.676,0.343,3.267,0.876,4.762h-10.4v-4.762
			C95.238,52.138,97.371,50,100,50z M95.238,69.048h23.81c3.657,0,6.995-1.381,9.524-3.648c2.529,2.267,5.867,3.648,9.524,3.648
			s6.995-1.381,9.524-3.648c2.529,2.267,5.867,3.648,9.524,3.648s6.995-1.381,9.524-3.648c2.529,2.267,5.867,3.648,9.524,3.648H200
			v9.524H95.238V69.048z M38.095,283.333H19.048v-4.762h19.048L38.095,283.333L38.095,283.333z M276.19,283.333h-19.048v-4.762
			h19.048V283.333z M285.714,264.286c0,2.629-2.133,4.762-4.762,4.762h-33.333h-200H14.286c-2.629,0-4.762-2.133-4.762-4.762V92.857
			c0-2.624,2.133-4.762,4.762-4.762h266.667c2.629,0,4.762,2.138,4.762,4.762v171.429H285.714z"/>
		<path style="fill:#333333;" d="M132.548,100.567l-53.39,20.024l60.062,33.371L132.548,100.567z M101.795,122.271l22.8-8.548
			l2.852,22.8L101.795,122.271z"/>
		<path style="fill:#333333;" d="M145.795,233.995l19.186,31.976l41.6-23.771l-19.186-31.976L145.795,233.995z M168.352,253.076
			l-9.386-15.643l25.067-14.324l9.386,15.643L168.352,253.076z"/>
		<path style="fill:#333333;" d="M121.429,173.809c-11.814,0-21.429,9.614-21.429,21.429s9.614,21.429,21.429,21.429
			s21.429-9.614,21.429-21.429S133.243,173.809,121.429,173.809z M121.429,207.143c-6.567,0-11.905-5.338-11.905-11.905
			s5.338-11.905,11.905-11.905s11.905,5.338,11.905,11.905C133.333,201.805,127.995,207.143,121.429,207.143z"/>
		<path style="fill:#333333;" d="M183.333,135.714c11.814,0,21.429-9.614,21.429-21.429s-9.614-21.429-21.429-21.429
			c-11.814,0-21.429,9.614-21.429,21.429S171.519,135.714,183.333,135.714z M183.333,102.381c6.567,0,11.905,5.343,11.905,11.905
			s-5.338,11.905-11.905,11.905s-11.905-5.343-11.905-11.905S176.767,102.381,183.333,102.381z"/>
		<path style="fill:#F9BA48;" d="M76.19,278.572H47.619v-200H76.19V278.572z"/>
		<path style="fill:#F9BA48;" d="M247.619,278.572h-28.571v-200h28.571V278.572z"/>
		<path style="fill:#333333;" d="M80.952,169.048H42.857c-5.252,0-9.524,4.271-9.524,9.524v28.571c0,5.252,4.271,9.524,9.524,9.524
			h38.095c5.252,0,9.524-4.271,9.524-9.524v-28.571C90.476,173.319,86.205,169.048,80.952,169.048z M42.857,207.143v-28.571h38.095
			l0.01,28.571H42.857z"/>
		<path style="fill:#333333;" d="M252.381,169.048h-38.095c-5.252,0-9.524,4.271-9.524,9.524v28.571
			c0,5.252,4.271,9.524,9.524,9.524h38.095c5.252,0,9.524-4.271,9.524-9.524v-28.571
			C261.905,173.319,257.633,169.048,252.381,169.048z M214.286,207.143v-28.571h38.095l0.01,28.571H214.286z"/>
	</g>
</g>
<g>
</g>
<g>
</g>
<g>
</g>
<g>
</g>
<g>
</g>
<g>
</g>
<g>
</g>
<g>
</g>
<g>
</g>
<g>
</g>
<g>
</g>
<g>
</g>
<g>
</g>
<g>
</g>
<g>
</g>
</svg>
