<svg id="Skycabit_hero" xmlns="http://www.w3.org/2000/svg" viewBox="0 0 2341 450"><defs><style>.cls-1{opacity:0.02;}.cls-2{fill:#fff;}</style></defs><title>Skycabit_home_pattern</title><g class="cls-1"><path d="M133.36,181.64a8.46,8.46,0,1,0-10.67,8.19v70.45a8.45,8.45,0,1,0,4.57.06V189.79A8.5,8.5,0,0,0,133.36,181.64Zm-12.34,0a3.89,3.89,0,1,1,3.89,3.9A3.9,3.9,0,0,1,121,181.64Zm7.73,86.83a3.89,3.89,0,1,1-3.89-3.9A3.9,3.9,0,0,1,128.75,268.47Z"/><path d="M153.57,167.79a8.46,8.46,0,1,0-10.84,8.14V274.1a8.46,8.46,0,1,0,4.57,0V176A8.5,8.5,0,0,0,153.57,167.79Zm-12.34,0a3.89,3.89,0,1,1,3.89,3.9A3.9,3.9,0,0,1,141.23,167.79Zm7.71,114.47a3.89,3.89,0,1,1-3.89-3.9A3.9,3.9,0,0,1,148.94,282.26Z"/><path d="M174.26,155a8.46,8.46,0,1,0-10.8,8.16V286.86a8.46,8.46,0,1,0,4.57,0V163.15A8.5,8.5,0,0,0,174.26,155Zm-12.34,0a3.89,3.89,0,1,1,3.89,3.9A3.9,3.9,0,0,1,161.91,155ZM169.62,295a3.89,3.89,0,1,1-3.89-3.9A3.9,3.9,0,0,1,169.62,295Z"/><path d="M128.72,154.94a8.45,8.45,0,0,0-16.54-2.49h-1.6V157h1.5a8.45,8.45,0,0,0,16.64-2.1Zm-12.34,0a3.89,3.89,0,1,1,3.89,3.9A3.9,3.9,0,0,1,116.37,154.94Z"/><path d="M44.31,268a8.47,8.47,0,0,0-8.13,6.17H31.26v4.59h4.91A8.46,8.46,0,1,0,44.31,268Zm0,12.4a3.9,3.9,0,1,1,3.89-3.9A3.9,3.9,0,0,1,44.31,280.36Z"/><path d="M74.72,335.19a8.46,8.46,0,1,0-8.46,8.49A8.38,8.38,0,0,0,71.34,342l77.11,77.45V450H153V417.52L74.13,338.29A8.47,8.47,0,0,0,74.72,335.19Zm-8.46,3.9a3.9,3.9,0,1,1,3.89-3.9A3.9,3.9,0,0,1,66.27,339.09Z"/><path d="M80.65,364.28a8.46,8.46,0,1,0-8.46,8.49A8.38,8.38,0,0,0,77,371.25l58.78,59V450h4.57V428.39l-60.43-60.7A8.47,8.47,0,0,0,80.65,364.28Zm-8.46,3.9a3.9,3.9,0,1,1,3.89-3.9A3.9,3.9,0,0,1,72.2,368.18Z"/><path d="M48.33,330.22a8.46,8.46,0,1,0-4.57,0v33.95l51.66,51.89V450H100V414.15L48.33,362.26ZM42.16,322a3.89,3.89,0,1,1,3.89,3.9A3.9,3.9,0,0,1,42.16,322Z"/><path d="M56.13,295H45.2a8.5,8.5,0,1,0,0,4.59h9L162.31,408.09V450h4.57V406.19L56.8,295.62Zm-19.06,6.23a3.9,3.9,0,1,1,3.89-3.9A3.9,3.9,0,0,1,37.07,301.18Z"/><path d="M46,397.42A8.5,8.5,0,1,0,46,402H60.26l15.69,15.76V450h4.57V415.87L62.15,397.42Zm-8.13,6.23a3.9,3.9,0,1,1,3.89-3.9A3.9,3.9,0,0,1,37.85,403.65Z"/><rect x="69.82" y="152.45" width="6.79" height="4.59"/><rect x="83.41" y="152.45" width="6.79" height="4.59"/><rect x="96.99" y="152.45" width="6.79" height="4.59"/><polygon points="61.89 157.04 63.03 157.04 63.03 152.45 57.32 152.45 57.32 158.19 61.89 158.19 61.89 157.04"/><rect x="57.32" y="205.65" width="4.57" height="6.78"/><rect x="57.32" y="192.09" width="4.57" height="6.78"/><rect x="57.32" y="219.21" width="4.57" height="6.78"/><rect x="57.32" y="178.53" width="4.57" height="6.78"/><polygon points="57.32 276.92 60.99 280.61 64.22 277.36 61.89 275.02 61.89 273.46 57.32 273.46 57.32 276.92"/><rect x="57.32" y="232.77" width="4.57" height="6.78"/><polygon points="70.54 290.2 73.77 286.95 69 282.16 65.77 285.4 70.54 290.2"/><rect x="57.32" y="164.97" width="4.57" height="6.78"/><rect x="57.32" y="259.9" width="4.57" height="6.78"/><rect x="182.12" y="424.94" width="4.57" height="6.78"/><rect x="57.32" y="246.33" width="4.57" height="6.78"/><polygon points="170.78 390.88 175.55 395.68 178.78 392.43 174.01 387.64 170.78 390.88"/><polygon points="161.23 381.29 166 386.09 169.24 382.84 164.46 378.05 161.23 381.29"/><rect x="182.12" y="438.51" width="4.57" height="6.78"/><polygon points="78.55 291.75 75.31 294.99 80.08 299.79 83.32 296.54 78.55 291.75"/><polygon points="180.32 400.47 182.12 402.28 182.12 404.6 186.69 404.6 186.69 400.38 183.55 397.23 180.32 400.47"/><rect x="182.12" y="411.38" width="4.57" height="6.78"/><polygon points="154.91 368.46 151.68 371.7 156.46 376.5 159.69 373.25 154.91 368.46"/><polygon points="145.37 358.87 142.14 362.12 146.91 366.91 150.14 363.66 145.37 358.87"/><polygon points="107.18 320.51 103.95 323.76 108.72 328.56 111.96 325.31 107.18 320.51"/><polygon points="88.09 301.34 84.86 304.58 89.63 309.38 92.86 306.13 88.09 301.34"/><polygon points="97.64 310.93 94.41 314.17 99.18 318.97 102.41 315.72 97.64 310.93"/><polygon points="126.28 339.69 123.04 342.94 127.82 347.73 131.05 344.49 126.28 339.69"/><polygon points="135.82 349.28 132.59 352.53 137.36 357.32 140.6 354.07 135.82 349.28"/><polygon points="116.73 330.1 113.5 333.35 118.27 338.14 121.5 334.9 116.73 330.1"/><path d="M82.92,191.14a8.44,8.44,0,1,0-4.57-.09v81.28L199,393.55V450h4.57V391.65L82.92,270.43Zm-6-8.22a3.89,3.89,0,1,1,3.89,3.9A3.9,3.9,0,0,1,76.92,182.92Z"/><path d="M105.32,191.06a8.47,8.47,0,1,0-4.57.06v81.21L221.43,393.55V450H226V391.65L105.32,270.43ZM99,182.92a3.89,3.89,0,1,1,3.89,3.9A3.9,3.9,0,0,1,99,182.92Z"/><rect x="18" y="299.85" width="4.57" height="6.89"/><rect x="18" y="286.07" width="4.57" height="6.89"/><polygon points="18 279.18 22.58 279.18 22.58 278.72 24.41 278.72 24.41 274.13 18 274.13 18 279.18"/><rect x="18" y="396.28" width="4.57" height="6.89"/><rect x="18" y="410.05" width="4.57" height="6.89"/><rect x="18" y="382.5" width="4.57" height="6.89"/><rect x="18" y="313.62" width="4.57" height="6.89"/><rect x="18" y="368.72" width="4.57" height="6.89"/><rect x="18" y="423.83" width="4.57" height="6.89"/><rect x="18" y="437.6" width="4.57" height="6.89"/><rect x="18" y="354.95" width="4.57" height="6.89"/><rect x="18" y="341.17" width="4.57" height="6.89"/><rect x="18" y="327.4" width="4.57" height="6.89"/><path d="M46.35,156.73a8.45,8.45,0,1,0-4.57,0V258.06H1.09V450H5.66V262.65H46.35Zm-6.12-8.18a3.89,3.89,0,1,1,3.89,3.9A3.9,3.9,0,0,1,40.23,148.55Z"/><path d="M361.9,412.72a8.47,8.47,0,0,0-8.14,6.21H275.14L221.47,365V341a8.46,8.46,0,1,0-4.57,0v25.93l23.31,23.42V450h4.57V394.93l27.79,27.92.67.67H303.3V450h4.57V423.52h12.34V450h4.57V423.52h29a8.46,8.46,0,1,0,8.13-10.8Zm-146.6-79.9a3.89,3.89,0,1,1,3.89,3.9A3.9,3.9,0,0,1,215.3,332.82Zm146.6,92.3a3.9,3.9,0,1,1,3.89-3.9A3.9,3.9,0,0,1,361.9,425.12Z"/><path d="M380.57,293.14a8.49,8.49,0,1,0,8.46,8.49A8.49,8.49,0,0,0,380.57,293.14Zm0,12.4a3.9,3.9,0,1,1,3.89-3.9A3.9,3.9,0,0,1,380.57,305.54Z"/><ellipse cx="380.57" cy="350.04" rx="8.46" ry="8.49"/><path d="M416.28,327.06a8.46,8.46,0,1,0,8.46-8.49A8.49,8.49,0,0,0,416.28,327.06Zm12.34,0a3.89,3.89,0,1,1-3.89-3.9A3.9,3.9,0,0,1,428.62,327.06Z"/><path d="M380.57,364a8.49,8.49,0,1,0,8.46,8.49A8.49,8.49,0,0,0,380.57,364Zm0,12.4a3.9,3.9,0,1,1,3.89-3.9A3.9,3.9,0,0,1,380.57,376.38Z"/><ellipse cx="485.48" cy="26.76" rx="8.46" ry="8.49"/><path d="M485.48,57.7A8.49,8.49,0,1,0,477,49.2,8.49,8.49,0,0,0,485.48,57.7Zm0-12.4a3.9,3.9,0,1,1-3.89,3.9A3.9,3.9,0,0,1,485.48,45.3Z"/><path d="M398.83,413V199.62L278.15,74.35V0h-4.57V76.21L394.26,201.48V413a8.46,8.46,0,1,0,4.57,0Zm-2.28,12.08a3.9,3.9,0,1,1,3.89-3.9A3.9,3.9,0,0,1,396.56,425.12Z"/><path d="M276.45,403.39h55.07a8.49,8.49,0,1,0,0-4.59H278.34l-8.18-8.21V214.17l-12.79-12.84H241.21a8.5,8.5,0,1,0,0,4.59h14.27l10.11,10.15V386l-26.45-26.56V324.84l-11.4-11.45H204.09a8.49,8.49,0,1,0,0,4.59h21.79l8.72,8.76v34.59Zm63.2-6.2a3.9,3.9,0,1,1-3.89,3.9A3.9,3.9,0,0,1,339.65,397.19ZM233.08,207.55a3.9,3.9,0,1,1,3.89-3.9A3.9,3.9,0,0,1,233.08,207.55Zm-37.13,112a3.9,3.9,0,1,1,3.89-3.9A3.9,3.9,0,0,1,195.95,319.57Z"/><path d="M231.42,78h-4.92v4.59h4.91a8.49,8.49,0,1,0,0-4.59Zm12,2.33a3.89,3.89,0,1,1-3.89-3.9A3.9,3.9,0,0,1,243.43,80.36Z"/><path d="M320.1,80.87a8.5,8.5,0,0,0,2.39-16.64V0h-4.57V64.17a8.49,8.49,0,0,0,2.18,16.69Zm0-12.4a3.9,3.9,0,1,1-3.89,3.9A3.9,3.9,0,0,1,320.1,68.47Z"/><path d="M340.28,94.66A8.49,8.49,0,0,0,342.53,78V0H338V78a8.5,8.5,0,0,0,2.32,16.66Zm0-12.4a3.9,3.9,0,1,1-3.89,3.9A3.9,3.9,0,0,1,340.28,82.26Z"/><path d="M361,107.43a8.49,8.49,0,0,0,2.3-16.66V0h-4.57V90.76A8.49,8.49,0,0,0,361,107.43ZM361,95a3.9,3.9,0,1,1-3.89,3.9A3.9,3.9,0,0,1,361,95Z"/><path d="M232.3,92.68a8.49,8.49,0,1,0,8.14,10.76h9L360.31,214.78V287h4.57V212.88L252,99.52l-.67-.67H240.43A8.47,8.47,0,0,0,232.3,92.68Zm0,12.4a3.9,3.9,0,1,1,3.89-3.9A3.9,3.9,0,0,1,232.3,105.08Z"/><path d="M249.74,125.95A8.46,8.46,0,1,0,239,134.12v33.95l75.83,76.17v28h4.57V242.33l-75.83-76.17v-32A8.5,8.5,0,0,0,249.74,125.95Zm-12.34,0a3.89,3.89,0,1,1,3.89,3.9A3.9,3.9,0,0,1,237.39,125.95Z"/><path d="M267.42,159.69a8.49,8.49,0,0,0,0,17,8.38,8.38,0,0,0,4.82-1.53l58.78,59V351.7l-26.69,26.81H288.67V335.77a8.46,8.46,0,1,0-4.57,0v47.33h22.12l29.37-29.5V232.29l-60.43-60.7a8.49,8.49,0,0,0-7.74-11.9ZM282.48,327.6a3.89,3.89,0,1,1,3.89,3.9A3.9,3.9,0,0,1,282.48,327.6ZM267.42,172.08a3.9,3.9,0,1,1,3.89-3.9A3.9,3.9,0,0,1,267.42,172.08Z"/><path d="M286.36,312.68a8.49,8.49,0,1,0-8.46-8.49A8.49,8.49,0,0,0,286.36,312.68Zm0-12.4a3.9,3.9,0,1,1-3.89,3.9A3.9,3.9,0,0,1,286.36,300.28Z"/><path d="M286.36,266.56a8.49,8.49,0,1,0-8.46-8.49A8.49,8.49,0,0,0,286.36,266.56Zm0-12.4a3.9,3.9,0,1,1-3.89,3.9A3.9,3.9,0,0,1,286.36,254.16Z"/><path d="M317.11,353.18a8.49,8.49,0,1,0-8.46-8.49A8.49,8.49,0,0,0,317.11,353.18Zm0-12.4a3.9,3.9,0,1,1-3.89,3.9A3.9,3.9,0,0,1,317.11,340.78Z"/><path d="M325.57,285.53a8.46,8.46,0,1,0-8.46,8.49A8.49,8.49,0,0,0,325.57,285.53Zm-8.46,3.9a3.9,3.9,0,1,1,3.89-3.9A3.9,3.9,0,0,1,317.11,289.43Z"/><path d="M242.45,294a8.49,8.49,0,0,0,0-17,8.36,8.36,0,0,0-3.54.79l-4-4-3.23,3.25,3.74,3.76a8.5,8.5,0,0,0,7,13.21Zm3.89-8.49a3.89,3.89,0,1,1-3.89-3.9A3.9,3.9,0,0,1,246.34,285.53Z"/><rect x="314.81" y="299.92" width="4.57" height="30.69"/><path d="M350,223.21l-80.67-81a8.45,8.45,0,1,0-7.87,5.4,8.38,8.38,0,0,0,5.07-1.71l78.89,79.25V319.4H350ZM261.5,143a3.9,3.9,0,1,1,3.89-3.9A3.9,3.9,0,0,1,261.5,143Z"/><rect x="252.55" y="38.07" width="4.57" height="6.91"/><rect x="252.55" y="51.88" width="4.57" height="6.91"/><rect x="252.55" y="24.25" width="4.57" height="6.91"/><rect x="252.55" y="65.69" width="4.57" height="6.91"/><rect x="252.55" y="10.44" width="4.57" height="6.91"/><rect x="377.35" y="234.8" width="4.57" height="6.91"/><rect x="377.35" y="220.98" width="4.57" height="6.91"/><polygon points="270.78 92.64 265.92 87.76 262.69 91.01 267.55 95.89 270.78 92.64"/><polygon points="324.27 146.37 321.04 149.61 325.9 154.5 329.13 151.25 324.27 146.37"/><polygon points="333.99 156.13 330.76 159.38 335.62 164.27 338.86 161.02 333.99 156.13"/><polygon points="314.54 136.6 311.31 139.85 316.17 144.73 319.4 141.48 314.54 136.6"/><polygon points="261.06 82.88 256.45 78.25 255.19 79.51 252.55 79.51 252.55 80.82 257.83 86.12 261.06 82.88"/><rect x="377.35" y="248.61" width="4.57" height="6.91"/><rect x="377.35" y="207.17" width="4.57" height="6.91"/><polygon points="363.17 185.44 359.93 188.69 364.8 193.57 368.03 190.32 363.17 185.44"/><rect x="252.55" width="4.57" height="3.53"/><polygon points="304.82 126.83 301.59 130.08 306.45 134.96 309.68 131.72 304.82 126.83"/><polygon points="295.09 117.06 291.86 120.31 296.72 125.19 299.96 121.95 295.09 117.06"/><polygon points="343.72 165.9 340.49 169.15 345.35 174.03 348.58 170.79 343.72 165.9"/><polygon points="285.37 107.3 282.14 110.54 287 115.43 290.23 112.18 285.37 107.3"/><polygon points="275.64 97.53 272.41 100.77 277.27 105.66 280.51 102.41 275.64 97.53"/><polygon points="353.44 175.67 350.21 178.92 355.07 183.8 358.3 180.56 353.44 175.67"/><polygon points="369.66 198.45 374.52 203.34 377.75 200.09 372.89 195.21 369.66 198.45"/><rect x="377.35" y="262.42" width="4.57" height="3.44"/><path d="M-57.78,398V242.15H-16v1.6h4.57v-1.6H15.65a8.49,8.49,0,1,0,0-4.59H-109.5v4.59h47.14v154l-47.14,47.36V450l51-51.27ZM23.8,236a3.9,3.9,0,1,1-3.89,3.9A3.9,3.9,0,0,1,23.8,236Z"/><path d="M492.38,118.85a8.51,8.51,0,1,0,7.87,5.4L530.5,93.86V87.37l-33.05,33.2A8.38,8.38,0,0,0,492.38,118.85Zm0,12.4a3.9,3.9,0,1,1,3.89-3.9A3.9,3.9,0,0,1,492.38,131.25Z"/><path d="M498.31,89.76A8.5,8.5,0,1,0,506,94.85L530.5,70.29V63.79L503.13,91.29A8.38,8.38,0,0,0,498.31,89.76Zm0,12.4a3.9,3.9,0,1,1,3.89-3.9A3.9,3.9,0,0,1,498.31,102.16Z"/><path d="M465.62,98.37v33.95a8.46,8.46,0,1,0,4.57,0v-32L530.5,39.69V33.2Zm6.18,42.12a3.89,3.89,0,1,1-3.89-3.9A3.9,3.9,0,0,1,471.8,140.49Z"/><path d="M471.33,163a8.49,8.49,0,1,0,0,4.59h10.93l48.26-48.47v-6.49L480.35,163Zm-8.14,6.17a3.9,3.9,0,1,1,3.89-3.9A3.9,3.9,0,0,1,463.18,169.16Z"/><path d="M483.43,202.7h-9.86l-39.19-39.37V128.74L423,117.29H399.31a8.49,8.49,0,1,0,0,4.59h21.79l8.72,8.76v34.59l41.87,42.06H498a8.5,8.5,0,1,0,0-4.59H488v-.89h-4.57Zm-92.25-79.23a3.9,3.9,0,1,1,3.89-3.9A3.9,3.9,0,0,1,391.17,123.47Zm114.91,77.62a3.9,3.9,0,1,1-3.89,3.9A3.9,3.9,0,0,1,506.08,201.09Z"/><rect x="483.43" y="193.94" width="4.57" height="3.93"/><polygon points="488 187.52 489.76 185.75 486.52 182.51 483.43 185.62 483.43 190.01 488 190.01 488 187.52"/><polygon points="505.41 163.54 500.69 168.28 503.92 171.53 508.64 166.78 505.41 163.54"/><polygon points="530.5 141.31 530.5 138.34 529.02 139.82 530.5 141.31"/><polygon points="524.3 144.56 519.58 149.31 522.81 152.55 527.53 147.81 524.3 144.56"/><polygon points="518.09 157.3 514.85 154.05 510.13 158.79 513.37 162.04 518.09 157.3"/><polygon points="495.97 173.02 491.25 177.76 494.48 181.01 499.2 176.27 495.97 173.02"/><polygon points="422.68 308.38 427.25 308.38 427.25 201.59 300.55 74.33 300.55 0 295.98 0 295.98 76.23 422.68 203.49 422.68 308.38"/><rect x="213.23" y="200.18" width="4.57" height="6.89"/><rect x="213.23" y="213.95" width="4.57" height="6.89"/><rect x="213.23" y="172.62" width="4.57" height="6.89"/><rect x="213.23" y="103.75" width="4.57" height="6.89"/><rect x="213.23" y="89.97" width="4.57" height="6.89"/><rect x="213.23" y="131.3" width="4.57" height="6.89"/><rect x="213.23" y="145.07" width="4.57" height="6.89"/><rect x="213.23" y="186.4" width="4.57" height="6.89"/><rect x="213.23" y="227.73" width="4.57" height="6.89"/><polygon points="217.81 82.63 219.63 82.63 219.63 78.03 213.23 78.03 213.23 83.08 217.81 83.08 217.81 82.63"/><rect x="213.23" y="158.85" width="4.57" height="6.89"/><polygon points="225.22 264.07 221.98 267.31 226.83 272.18 230.06 268.94 225.22 264.07"/><polygon points="213.23 258.52 217.14 262.44 220.37 259.2 217.81 256.62 217.81 255.28 213.23 255.28 213.23 258.52"/><rect x="213.23" y="117.52" width="4.57" height="6.89"/><rect x="213.23" y="241.5" width="4.57" height="6.89"/><path d="M196.32,277.39a8.47,8.47,0,1,0,4.57-.07V66.47l40.69.09V0H237V62l-40.69-.09Zm6.3,8.14a3.89,3.89,0,1,1-3.89-3.9A3.9,3.9,0,0,1,202.62,285.53Z"/><path d="M-2.76,190.34a8.47,8.47,0,0,0-8.15,6.27H-81a8.47,8.47,0,0,0-8.16-6.31,8.49,8.49,0,0,0-8.46,8.49,8.49,8.49,0,0,0,8.46,8.49,8.47,8.47,0,0,0,8.11-6.09h70.23a8.47,8.47,0,0,0,8.12,6.13,8.49,8.49,0,0,0,8.46-8.49A8.49,8.49,0,0,0-2.76,190.34ZM-89.21,202.7a3.9,3.9,0,0,1-3.89-3.9,3.9,3.9,0,0,1,3.89-3.9,3.9,3.9,0,0,1,3.89,3.9A3.9,3.9,0,0,1-89.21,202.7Zm86.45,0a3.9,3.9,0,0,1-3.89-3.9,3.9,3.9,0,0,1,3.89-3.9,3.9,3.9,0,0,1,3.89,3.9A3.9,3.9,0,0,1-2.76,202.73Z"/><path d="M15.37,194.16A8.46,8.46,0,1,0,26.3,186v-1.61H21.73v1.51A8.49,8.49,0,0,0,15.37,194.16Zm8.46-3.9a3.9,3.9,0,1,1-3.89,3.9A3.9,3.9,0,0,1,23.82,190.26Z"/><path d="M-3.16,89.44A8.49,8.49,0,0,0,5.3,97.93a8.49,8.49,0,0,0,0-17A8.49,8.49,0,0,0-3.16,89.44Zm12.34,0a3.89,3.89,0,1,1-3.89-3.9A3.9,3.9,0,0,1,9.19,89.44Z"/><path d="M-102.93,227.56a8.47,8.47,0,0,0,8.14-6.23H2.87a8.49,8.49,0,1,0,.05-4.59H-94.81a8.47,8.47,0,0,0-8.12-6.16,8.43,8.43,0,0,0-6.57,3.15v10.69A8.43,8.43,0,0,0-102.93,227.56ZM11,215.23a3.9,3.9,0,1,1-3.89,3.9A3.9,3.9,0,0,1,11,215.23Zm-114-.07a3.9,3.9,0,0,1,3.89,3.9,3.9,3.9,0,0,1-3.89,3.9,3.9,3.9,0,0,1-3.89-3.9A3.9,3.9,0,0,1-102.93,215.16Z"/><rect x="21.73" y="143.51" width="4.57" height="6.82"/><rect x="21.73" y="170.79" width="4.57" height="6.82"/><rect x="21.73" y="157.15" width="4.57" height="6.82"/><polygon points="26.3 130.94 20.59 130.94 20.59 135.53 21.73 135.53 21.73 136.68 26.3 136.68 26.3 130.94"/><rect x="-6.2" y="130.94" width="6.7" height="4.59"/><rect x="7.2" y="130.94" width="6.7" height="4.59"/><path d="M-12.21,156.66A8.47,8.47,0,0,0-4,163a8.49,8.49,0,0,0,8.46-8.49A8.49,8.49,0,0,0-4,146a8.48,8.48,0,0,0-8.09,6H-93l-16.48,16v6.39l18.33-17.81Zm8.18-6a3.9,3.9,0,0,1,3.89,3.9A3.9,3.9,0,0,1-4,158.44a3.9,3.9,0,0,1-3.89-3.9A3.9,3.9,0,0,1-4,150.63Z"/><path d="M-12.14,179.16A8.47,8.47,0,0,0-4,185.24a8.49,8.49,0,0,0,8.46-8.49A8.49,8.49,0,0,0-4,168.25a8.47,8.47,0,0,0-8.16,6.31H-93l-16.45,16.53v6.49l18.35-18.43ZM-4,172.84a3.9,3.9,0,0,1,3.89,3.9A3.9,3.9,0,0,1-4,180.65a3.9,3.9,0,0,1-3.89-3.9A3.9,3.9,0,0,1-4,172.84Z"/><path d="M449.81,367.82h-4.92v4.59h4.91a8.49,8.49,0,1,0,0-4.59Zm12,2.33a3.89,3.89,0,1,1-3.89-3.9A3.9,3.9,0,0,1,461.83,370.14Z"/><path d="M459.68,407.24a8.49,8.49,0,0,0-2.29,16.66V450H462V423.9a8.49,8.49,0,0,0-2.28-16.67Zm0,12.4a3.9,3.9,0,1,1,3.89-3.9A3.9,3.9,0,0,1,459.68,419.63Z"/><path d="M488.35,428.87a8.46,8.46,0,1,0-8.46,8.49,8.38,8.38,0,0,0,5.07-1.71L499.25,450h6.46l-18-18A8.47,8.47,0,0,0,488.35,428.87Zm-8.46,3.9a3.9,3.9,0,1,1,3.89-3.9A3.9,3.9,0,0,1,479.9,432.77Z"/><path d="M469.76,388.63H458.83a8.5,8.5,0,1,0,0,4.59h9L524.39,450h6.11v-.36l-60.07-60.34Zm-19.06,6.23a3.9,3.9,0,1,1,3.89-3.9A3.9,3.9,0,0,1,450.7,394.86Z"/><path d="M445.95,96.29a8.46,8.46,0,1,0,4.57,0V62.35L398.86,10.46V0h-4.57V12.36l51.66,51.89Zm6.16,8.17a3.89,3.89,0,1,1-3.89-3.9A3.9,3.9,0,0,1,452.11,104.46Z"/><path d="M448.3,29.09a8.5,8.5,0,1,0,0-4.59H434L418.33,8.74V0h-4.57V10.64l18.37,18.45Zm8.13-6.23a3.9,3.9,0,1,1-3.89,3.9A3.9,3.9,0,0,1,456.43,22.86Z"/><rect x="482.72" y="246.13" width="6.06" height="4.59"/><rect x="494.84" y="246.13" width="6.06" height="4.59"/><rect x="506.95" y="246.13" width="6.06" height="4.59"/><rect x="519.07" y="246.13" width="6.06" height="4.59"/><polygon points="475.52 250.72 476.66 250.72 476.66 246.13 470.95 246.13 470.95 251.87 475.52 251.87 475.52 250.72"/><rect x="470.95" y="326.46" width="4.57" height="6.78"/><rect x="470.95" y="353.58" width="4.57" height="6.78"/><rect x="470.95" y="340.02" width="4.57" height="6.78"/><rect x="470.95" y="312.9" width="4.57" height="6.78"/><polygon points="470.95 370.6 474.62 374.29 477.85 371.05 475.52 368.7 475.52 367.14 470.95 367.14 470.95 370.6"/><rect x="470.95" y="299.33" width="4.57" height="6.78"/><polygon points="482.63 375.84 479.39 379.09 484.17 383.88 487.4 380.63 482.63 375.84"/><polygon points="501.72 395.02 498.49 398.27 503.26 403.06 506.49 399.81 501.72 395.02"/><polygon points="527.13 427.03 530.5 430.42 530.5 423.93 530.36 423.79 527.13 427.03"/><polygon points="492.17 385.43 488.94 388.68 493.71 393.47 496.95 390.23 492.17 385.43"/><polygon points="520.81 414.2 517.58 417.44 522.35 422.24 525.59 418.99 520.81 414.2"/><polygon points="511.27 404.61 508.03 407.86 512.81 412.65 516.04 409.4 511.27 404.61"/><rect x="470.95" y="258.65" width="4.57" height="6.78"/><rect x="470.95" y="285.77" width="4.57" height="6.78"/><rect x="470.95" y="272.21" width="4.57" height="6.78"/><path d="M496.55,284.82a8.44,8.44,0,1,0-4.57-.09V366l38.52,38.7v-6.49l-34-34.1Zm-6-8.22a3.89,3.89,0,1,1,3.89,3.9A3.9,3.9,0,0,1,490.55,276.6Z"/><path d="M518.95,284.74a8.47,8.47,0,1,0-4.57.06V366l16.12,16.2v-6.49l-11.55-11.6Zm-6.28-8.14a3.89,3.89,0,1,1,3.89,3.9A3.9,3.9,0,0,1,512.66,276.6Z"/><rect x="431.63" y="407.31" width="4.57" height="6.89"/><rect x="431.63" y="393.53" width="4.57" height="6.89"/><polygon points="431.63 372.87 436.2 372.87 436.2 372.41 438.03 372.41 438.03 367.82 431.63 367.82 431.63 372.87"/><rect x="431.63" y="448.63" width="4.57" height="1.37"/><rect x="431.63" y="379.75" width="4.57" height="6.89"/><rect x="431.63" y="434.86" width="4.57" height="6.89"/><rect x="431.63" y="421.08" width="4.57" height="6.89"/><path d="M460,250.41a8.45,8.45,0,1,0-4.57,0V351.74H414.72V450h4.57V356.34H460Zm-6.12-8.18a3.89,3.89,0,1,1,3.89,3.9A3.9,3.9,0,0,1,453.86,242.23Z"/><path d="M178,36.65a8.47,8.47,0,0,0,8.13-6.17H191V25.89h-4.91A8.46,8.46,0,1,0,178,36.65Zm0-12.4a3.9,3.9,0,1,1-3.89,3.9A3.9,3.9,0,0,1,178,24.25Z"/><path d="M166.15,9.67h10.93A8.46,8.46,0,1,0,189.45,0H181a8.51,8.51,0,0,0-3.9,5.07h-9L163,0h-6.46l9,9Zm19.06-6.23a3.9,3.9,0,1,1-3.89,3.9A3.9,3.9,0,0,1,185.21,3.44Z"/><rect x="160.39" y="81.51" width="4.57" height="3.44"/><rect x="160.39" y="39.15" width="4.57" height="7.06"/><rect x="160.39" y="53.27" width="4.57" height="7.06"/><rect x="160.39" y="67.39" width="4.57" height="7.06"/><polygon points="164.96 27.7 161.87 24.59 158.64 27.84 160.39 29.6 160.39 32.09 164.96 32.09 164.96 27.7"/><polygon points="147.47 10.13 142.68 5.31 139.44 8.56 144.24 13.38 147.47 10.13"/><polygon points="157.07 19.77 152.27 14.95 149.04 18.2 153.84 23.02 157.07 19.77"/><polygon points="137.88 0.49 137.39 0 130.93 0 134.65 3.74 137.88 0.49"/><path d="M139.36,113.48a8.44,8.44,0,1,0,4.57.09V32.29L111.79,0h-6.46l34,34.19Zm6,8.22a3.89,3.89,0,1,1-3.89-3.9A3.9,3.9,0,0,1,145.36,121.7Z"/><path d="M117,113.55a8.47,8.47,0,1,0,4.57-.06V32.29L89.39,0H82.92l34,34.19Zm6.28,8.14a3.89,3.89,0,1,1-3.89-3.9A3.9,3.9,0,0,1,123.25,121.7Z"/><polygon points="204.28 25.43 199.71 25.43 199.71 25.89 197.88 25.89 197.88 30.48 204.28 30.48 204.28 25.43"/><rect x="199.71" width="4.57" height="4.77"/><rect x="199.71" y="11.66" width="4.57" height="6.89"/><path d="M175.93,92a8.45,8.45,0,1,0,4.57,0V46.56h40.69V0h-4.57V42H175.93Zm6.12,8.18a3.89,3.89,0,1,1-3.89-3.9A3.9,3.9,0,0,1,182,100.17Z"/><ellipse cx="78.1" cy="42.78" rx="8.46" ry="8.49"/><path d="M55.86,28.94a8.49,8.49,0,1,0-8.46-8.49A8.49,8.49,0,0,0,55.86,28.94Zm0-12.4A3.9,3.9,0,1,1,52,20.45,3.9,3.9,0,0,1,55.86,16.55Z"/><path d="M85.32,58.53A8.46,8.46,0,1,0,93.78,50,8.49,8.49,0,0,0,85.32,58.53Zm12.34,0a3.89,3.89,0,1,1-3.89-3.9A3.9,3.9,0,0,1,97.66,58.53Z"/><path d="M-70.94,23.71a8.47,8.47,0,0,0,7.82-5.27h77.7L68.25,72.34v24a8.46,8.46,0,1,0,4.57,0V70.44L16.48,13.84H-62.6a8.47,8.47,0,0,0-8.34-7.13,8.49,8.49,0,0,0-8.46,8.49A8.49,8.49,0,0,0-70.94,23.71ZM74.43,104.54a3.89,3.89,0,1,1-3.89-3.9A3.9,3.9,0,0,1,74.43,104.54ZM-70.94,11.31a3.9,3.9,0,0,1,3.89,3.9,3.9,3.9,0,0,1-3.89,3.9,3.9,3.9,0,0,1-3.89-3.9A3.9,3.9,0,0,1-70.94,11.31Z"/><path d="M50.57,77.93v34.59L62,124H85.64a8.49,8.49,0,1,0,0-4.59H63.86l-8.72-8.76V76L32.75,53.54v-.22h-.22L13.27,34h-54a8.47,8.47,0,0,0-8.12-6.14,8.49,8.49,0,0,0-8.46,8.49,8.49,8.49,0,0,0,8.46,8.49,8.47,8.47,0,0,0,8.15-6.26H11.38L26.07,53.32H-109.5v4.59H30.64Zm43.2,39.86a3.9,3.9,0,1,1-3.89,3.9A3.9,3.9,0,0,1,93.78,117.79ZM-48.84,40.23a3.9,3.9,0,0,1-3.89-3.9,3.9,3.9,0,0,1,3.89-3.9A3.9,3.9,0,0,1-45,36.33,3.9,3.9,0,0,1-48.84,40.23Z"/><path d="M-83.42,119.92H22a8.49,8.49,0,1,0,0-4.59H-78.84l.09-40.87H-109.5v4.59h26.17Zm113.61-6.14a3.9,3.9,0,1,1-3.89,3.9A3.9,3.9,0,0,1,30.19,113.78Z"/><path d="M416.7,168.92v-24a8.46,8.46,0,1,0-4.57,0v25.93l55.68,55.93.67.67h62v-4.59H470.37Zm-6.17-32.2a3.89,3.89,0,1,1,3.89,3.9A3.9,3.9,0,0,1,410.53,136.72Z"/><ellipse cx="409.36" cy="66.58" rx="8.46" ry="8.49"/><path d="M387.12,52.74a8.49,8.49,0,1,0-8.46-8.49A8.49,8.49,0,0,0,387.12,52.74Zm0-12.4a3.9,3.9,0,1,1-3.89,3.9A3.9,3.9,0,0,1,387.12,40.35Z"/><path d="M425,90.83a8.49,8.49,0,1,0-8.46-8.49A8.49,8.49,0,0,0,425,90.83Zm0-12.4a3.9,3.9,0,1,1-3.89,3.9A3.9,3.9,0,0,1,425,78.43Z"/><path d="M933.74,189.79v70.54a8.47,8.47,0,1,0,4.57-.06V189.83a8.45,8.45,0,1,0-4.57,0Zm2.36-4.25a3.9,3.9,0,1,1,3.89-3.9A3.9,3.9,0,0,1,936.09,185.54Zm0,79a3.9,3.9,0,1,1-3.89,3.9A3.9,3.9,0,0,1,936.13,264.57Z"/><path d="M913.7,176v98.09a8.45,8.45,0,1,0,4.57,0V175.94a8.46,8.46,0,1,0-4.57.05Zm2.18-4.29a3.9,3.9,0,1,1,3.89-3.9A3.9,3.9,0,0,1,915.88,171.69Zm.07,106.66a3.9,3.9,0,1,1-3.89,3.9A3.9,3.9,0,0,1,915.95,278.36Z"/><path d="M893,163.15V286.87a8.46,8.46,0,1,0,4.57,0V163.12a8.46,8.46,0,1,0-4.57,0Zm2.23-4.28a3.9,3.9,0,1,1,3.89-3.9A3.9,3.9,0,0,1,895.2,158.87Zm.07,132.27a3.9,3.9,0,1,1-3.89,3.9A3.9,3.9,0,0,1,895.27,291.13Z"/><path d="M940.74,163.43a8.47,8.47,0,0,0,8.18-6.39h1.5v-4.59h-1.6a8.46,8.46,0,1,0-8.08,11Zm0-4.59a3.9,3.9,0,1,1,3.89-3.9A3.9,3.9,0,0,1,940.74,158.84Z"/><path d="M1008.23,276.46a8.45,8.45,0,0,0,16.6,2.26h4.91v-4.59h-4.92a8.45,8.45,0,0,0-16.58,2.33Zm4.57,0a3.89,3.89,0,1,1,3.89,3.9A3.9,3.9,0,0,1,1012.8,276.46Z"/><path d="M986.87,338.29,908,417.52V450h4.57V419.42L989.66,342a8.38,8.38,0,0,0,5.07,1.71,8.51,8.51,0,1,0-7.87-5.4Zm4-3.1a3.89,3.89,0,1,1,3.89,3.9A3.9,3.9,0,0,1,990.85,335.19Z"/><path d="M981.06,367.69l-60.43,60.7V450h4.57V430.29l58.78-59a8.38,8.38,0,0,0,4.82,1.53,8.5,8.5,0,1,0-7.74-5.09Zm3.86-3.41a3.89,3.89,0,1,1,3.89,3.9A3.9,3.9,0,0,1,984.92,364.28Z"/><path d="M1012.67,362.26,961,414.15V450h4.57V416.05l51.66-51.89V330.22a8.46,8.46,0,1,0-4.57,0Zm2.28-36.31a3.9,3.9,0,1,1,3.89-3.9A3.9,3.9,0,0,1,1015,325.95Z"/><path d="M1004.2,295.62,894.12,406.19V450h4.57V408.09l108.07-108.55h9a8.49,8.49,0,1,0,0-4.59h-10.93Zm15.84,1.66a3.89,3.89,0,1,1,3.89,3.9A3.9,3.9,0,0,1,1020,297.28Z"/><path d="M998.85,397.42l-18.37,18.45V450h4.57V417.78L1000.74,402H1015a8.49,8.49,0,1,0,0-4.59Zm20.42,2.32a3.89,3.89,0,1,1,3.89,3.9A3.9,3.9,0,0,1,1019.26,399.75Z"/><rect x="984.38" y="152.45" width="6.79" height="4.59"/><rect x="970.8" y="152.45" width="6.79" height="4.59"/><rect x="957.22" y="152.45" width="6.79" height="4.59"/><polygon points="999.11 157.04 997.97 157.04 997.97 152.45 1003.68 152.45 1003.68 158.19 999.11 158.19 999.11 157.04"/><rect x="999.11" y="205.65" width="4.57" height="6.78"/><rect x="999.11" y="192.09" width="4.57" height="6.78"/><rect x="999.11" y="219.21" width="4.57" height="6.78"/><rect x="999.11" y="178.53" width="4.57" height="6.78"/><polygon points="1003.68 276.92 1000.01 280.61 996.77 277.36 999.11 275.02 999.11 273.46 1003.68 273.46 1003.68 276.92"/><rect x="999.11" y="232.77" width="4.57" height="6.78"/><polygon points="990.46 290.2 987.23 286.95 992 282.16 995.23 285.4 990.46 290.2"/><rect x="999.11" y="164.97" width="4.57" height="6.78"/><rect x="999.11" y="259.9" width="4.57" height="6.78"/><rect x="874.31" y="424.94" width="4.57" height="6.78"/><rect x="999.11" y="246.33" width="4.57" height="6.78"/><polygon points="890.22 390.88 885.45 395.68 882.22 392.43 886.99 387.64 890.22 390.88"/><polygon points="899.77 381.29 895 386.09 891.76 382.84 896.54 378.05 899.77 381.29"/><rect x="874.31" y="438.51" width="4.57" height="6.78"/><polygon points="982.46 291.75 985.69 294.99 980.91 299.79 977.68 296.54 982.46 291.75"/><polygon points="880.68 400.47 878.88 402.28 878.88 404.6 874.31 404.6 874.31 400.38 877.45 397.23 880.68 400.47"/><rect x="874.31" y="411.38" width="4.57" height="6.78"/><polygon points="906.09 368.46 909.32 371.7 904.54 376.5 901.31 373.25 906.09 368.46"/><polygon points="915.63 358.87 918.86 362.12 914.09 366.91 910.86 363.66 915.63 358.87"/><polygon points="953.82 320.51 957.05 323.76 952.27 328.56 949.04 325.31 953.82 320.51"/><polygon points="972.91 301.34 976.14 304.58 971.37 309.38 968.14 306.13 972.91 301.34"/><polygon points="963.36 310.93 966.6 314.17 961.82 318.97 958.59 315.72 963.36 310.93"/><polygon points="934.72 339.69 937.96 342.94 933.18 347.73 929.95 344.49 934.72 339.69"/><polygon points="925.18 349.28 928.41 352.53 923.64 357.32 920.4 354.07 925.18 349.28"/><polygon points="944.27 330.1 947.5 333.35 942.73 338.14 939.5 334.9 944.27 330.1"/><path d="M978.08,270.43,857.4,391.65V450H862V393.55L982.65,272.33V191a8.47,8.47,0,1,0-4.57.09Zm2.11-83.6a3.9,3.9,0,1,1,3.89-3.9A3.9,3.9,0,0,1,980.19,186.82Z"/><path d="M955.68,270.43,835,391.65V450h4.57V393.55L960.25,272.33V191.12a8.45,8.45,0,1,0-4.57-.06Zm2.4-83.6a3.9,3.9,0,1,1,3.89-3.9A3.9,3.9,0,0,1,958.08,186.82Z"/><rect x="1038.42" y="299.85" width="4.57" height="6.89"/><rect x="1038.42" y="286.07" width="4.57" height="6.89"/><polygon points="1042.99 279.18 1038.42 279.18 1038.42 278.72 1036.6 278.72 1036.6 274.13 1042.99 274.13 1042.99 279.18"/><rect x="1038.42" y="396.28" width="4.57" height="6.89"/><rect x="1038.42" y="410.05" width="4.57" height="6.89"/><rect x="1038.42" y="382.5" width="4.57" height="6.89"/><rect x="1038.42" y="313.62" width="4.57" height="6.89"/><rect x="1038.42" y="368.72" width="4.57" height="6.89"/><rect x="1038.42" y="423.83" width="4.57" height="6.89"/><rect x="1038.42" y="437.6" width="4.57" height="6.89"/><rect x="1038.42" y="354.95" width="4.57" height="6.89"/><rect x="1038.42" y="341.17" width="4.57" height="6.89"/><rect x="1038.42" y="327.4" width="4.57" height="6.89"/><path d="M1014.65,262.65h40.69V450h4.57V258.06h-40.69V156.7a8.46,8.46,0,1,0-4.57,0Zm2.23-110.21a3.9,3.9,0,1,1,3.89-3.9A3.9,3.9,0,0,1,1016.88,152.45Z"/><path d="M690.65,421.21a8.45,8.45,0,0,0,16.59,2.31h29V450h4.57V423.52h12.34V450h4.57V423.52h30.05l.67-.67,27.79-27.92V450h4.57V390.34l23.31-23.42V341a8.46,8.46,0,1,0-4.57,0v24l-53.67,53.91H707.24a8.45,8.45,0,0,0-16.59,2.29Zm151.17-84.49a3.9,3.9,0,1,1,3.89-3.9A3.9,3.9,0,0,1,841.82,336.72Zm-146.6,84.49a3.89,3.89,0,1,1,3.89,3.9A3.9,3.9,0,0,1,695.22,421.21Z"/><path d="M672,301.63a8.46,8.46,0,1,0,8.46-8.49A8.49,8.49,0,0,0,672,301.63Zm4.57,0a3.89,3.89,0,1,1,3.89,3.9A3.9,3.9,0,0,1,676.55,301.63Z"/><ellipse cx="680.43" cy="350.04" rx="8.46" ry="8.49"/><path d="M636.26,318.57a8.49,8.49,0,1,0,8.46,8.49A8.49,8.49,0,0,0,636.26,318.57Zm0,4.59a3.9,3.9,0,1,1-3.89,3.9A3.9,3.9,0,0,1,636.26,323.16Z"/><path d="M672,372.47a8.46,8.46,0,1,0,8.46-8.49A8.49,8.49,0,0,0,672,372.47Zm4.57,0a3.89,3.89,0,1,1,3.89,3.9A3.9,3.9,0,0,1,676.55,372.47Z"/><ellipse cx="575.52" cy="26.76" rx="8.46" ry="8.49"/><path d="M584,49.2a8.46,8.46,0,1,0-8.46,8.49A8.49,8.49,0,0,0,584,49.2Zm-4.57,0a3.89,3.89,0,1,1-3.89-3.9A3.9,3.9,0,0,1,579.41,49.2Z"/><path d="M656,421.21A8.46,8.46,0,1,0,666.74,413V201.48L787.42,76.21V0h-4.57V74.35L662.17,199.62V413A8.5,8.5,0,0,0,656,421.21Zm4.57,0a3.89,3.89,0,1,1,3.89,3.9A3.9,3.9,0,0,1,660.56,421.21Z"/><path d="M826.42,361.33V326.74l8.72-8.76h21.79a8.5,8.5,0,1,0,0-4.59H833.25l-11.4,11.45v34.59L795.4,386V216.07l10.11-10.15h14.27a8.49,8.49,0,1,0,0-4.59H803.62l-12.79,12.84V390.58l-8.18,8.21H729.48a8.49,8.49,0,1,0,0,4.59h55.07ZM725.23,401.09a3.89,3.89,0,1,1-3.89-3.9A3.9,3.9,0,0,1,725.23,401.09ZM824,203.65a3.89,3.89,0,1,1,3.89,3.9A3.9,3.9,0,0,1,824,203.65Zm37.13,112a3.89,3.89,0,1,1,3.89,3.9A3.9,3.9,0,0,1,861.17,315.67Z"/><path d="M821.46,71.87a8.49,8.49,0,1,0,8.14,10.76h4.91V78h-4.92A8.47,8.47,0,0,0,821.46,71.87Zm0,4.59a3.9,3.9,0,1,1-3.89,3.9A3.9,3.9,0,0,1,821.46,76.46Z"/><path d="M749.36,72.37a8.5,8.5,0,0,0-6.28-8.2V0h-4.57V64.23a8.49,8.49,0,1,0,10.85,8.14Zm-4.57,0a3.89,3.89,0,1,1-3.89-3.9A3.9,3.9,0,0,1,744.79,72.37Z"/><path d="M729.18,86.16A8.5,8.5,0,0,0,723,78V0h-4.57V78a8.49,8.49,0,1,0,10.71,8.18Zm-4.57,0a3.89,3.89,0,1,1-3.89-3.9A3.9,3.9,0,0,1,724.61,86.16Z"/><path d="M708.5,98.94a8.5,8.5,0,0,0-6.18-8.17V0h-4.57V90.77a8.49,8.49,0,1,0,10.75,8.17Zm-4.57,0A3.89,3.89,0,1,1,700,95,3.9,3.9,0,0,1,703.93,98.94Z"/><path d="M820.57,98.85H809.64l-.67.67L696.11,212.88V287h4.57V214.78L811.53,103.44h9a8.49,8.49,0,1,0,0-4.59Zm4.24,2.33a3.89,3.89,0,1,1,3.89,3.9A3.9,3.9,0,0,1,824.81,101.18Z"/><path d="M817.44,134.12v32l-75.83,76.17v29.89h4.57v-28L822,168.07V134.12a8.46,8.46,0,1,0-4.57,0Zm2.28-4.27a3.9,3.9,0,1,1,3.89-3.9A3.9,3.9,0,0,1,819.72,129.85Z"/><path d="M785.12,168.18a8.47,8.47,0,0,0,.71,3.41l-60.43,60.7V353.6l29.37,29.5H776.9V335.78a8.45,8.45,0,1,0-4.57,0v42.75H756.67L730,351.7V234.19l58.78-59a8.38,8.38,0,0,0,4.82,1.53,8.49,8.49,0,1,0-8.46-8.49ZM774.64,331.5a3.9,3.9,0,1,1,3.89-3.9A3.9,3.9,0,0,1,774.64,331.5Zm15.05-163.32a3.89,3.89,0,1,1,3.89,3.9A3.9,3.9,0,0,1,789.69,168.18Z"/><path d="M783.09,304.18a8.46,8.46,0,1,0-8.46,8.49A8.49,8.49,0,0,0,783.09,304.18Zm-4.57,0a3.89,3.89,0,1,1-3.89-3.9A3.9,3.9,0,0,1,778.52,304.18Z"/><path d="M783.09,258.06a8.46,8.46,0,1,0-8.46,8.49A8.49,8.49,0,0,0,783.09,258.06Zm-4.57,0a3.89,3.89,0,1,1-3.89-3.9A3.9,3.9,0,0,1,778.52,258.06Z"/><path d="M752.34,344.69a8.46,8.46,0,1,0-8.46,8.49A8.49,8.49,0,0,0,752.34,344.69Zm-4.57,0a3.89,3.89,0,1,1-3.89-3.9A3.9,3.9,0,0,1,747.77,344.69Z"/><path d="M743.89,294a8.49,8.49,0,1,0-8.46-8.49A8.49,8.49,0,0,0,743.89,294ZM740,285.53a3.89,3.89,0,1,1,3.89,3.9A3.9,3.9,0,0,1,740,285.53Z"/><path d="M827,285.53a8.47,8.47,0,0,0-1.43-4.71l3.74-3.76-3.23-3.25-4,4a8.36,8.36,0,0,0-3.54-.79,8.49,8.49,0,1,0,8.46,8.49Zm-8.46-3.9a3.9,3.9,0,1,1-3.89,3.9A3.9,3.9,0,0,1,818.55,281.62Z"/><rect x="741.61" y="299.92" width="4.57" height="30.69"/><path d="M711,319.4h4.57V225.12l78.89-79.25a8.38,8.38,0,0,0,5.07,1.71,8.51,8.51,0,1,0-7.87-5.4l-80.67,81Zm84.65-180.31a3.89,3.89,0,1,1,3.89,3.9A3.9,3.9,0,0,1,795.62,139.09Z"/><rect x="803.88" y="38.07" width="4.57" height="6.91"/><rect x="803.88" y="51.88" width="4.57" height="6.91"/><rect x="803.88" y="24.25" width="4.57" height="6.91"/><rect x="803.88" y="65.69" width="4.57" height="6.91"/><rect x="803.88" y="10.44" width="4.57" height="6.91"/><rect x="679.08" y="234.8" width="4.57" height="6.91"/><rect x="679.08" y="220.98" width="4.57" height="6.91"/><polygon points="790.22 92.64 795.08 87.76 798.31 91.01 793.45 95.89 790.22 92.64"/><polygon points="736.73 146.37 739.96 149.61 735.1 154.5 731.87 151.25 736.73 146.37"/><polygon points="727.01 156.13 730.24 159.38 725.38 164.27 722.14 161.02 727.01 156.13"/><polygon points="746.46 136.6 749.69 139.85 744.83 144.73 741.6 141.48 746.46 136.6"/><polygon points="799.94 82.88 804.55 78.25 805.81 79.51 808.45 79.51 808.45 80.82 803.17 86.12 799.94 82.88"/><rect x="679.08" y="248.61" width="4.57" height="6.91"/><rect x="679.08" y="207.17" width="4.57" height="6.91"/><polygon points="697.83 185.44 701.07 188.69 696.2 193.57 692.97 190.32 697.83 185.44"/><rect x="803.88" width="4.57" height="3.53"/><polygon points="756.18 126.83 759.41 130.08 754.55 134.96 751.32 131.72 756.18 126.83"/><polygon points="765.91 117.06 769.14 120.31 764.28 125.19 761.04 121.95 765.91 117.06"/><polygon points="717.28 165.9 720.51 169.15 715.65 174.03 712.42 170.79 717.28 165.9"/><polygon points="775.63 107.3 778.86 110.54 774 115.43 770.77 112.18 775.63 107.3"/><polygon points="785.36 97.53 788.59 100.77 783.73 105.66 780.49 102.41 785.36 97.53"/><polygon points="707.56 175.67 710.79 178.92 705.93 183.8 702.7 180.56 707.56 175.67"/><polygon points="691.34 198.45 686.48 203.34 683.25 200.09 688.11 195.21 691.34 198.45"/><rect x="679.08" y="262.42" width="4.57" height="3.44"/><path d="M1150,285.62a8.46,8.46,0,1,0-8.46,8.49A8.49,8.49,0,0,0,1150,285.62Zm-4.57,0a3.89,3.89,0,1,1-3.89-3.9A3.9,3.9,0,0,1,1145.4,285.62Z"/><path d="M1150,258.15a8.46,8.46,0,1,0-8.46,8.49A8.49,8.49,0,0,0,1150,258.15Zm-4.57,0a3.89,3.89,0,1,1-3.89-3.9A3.9,3.9,0,0,1,1145.4,258.15Z"/><path d="M1150,344.78a8.46,8.46,0,1,0-8.46,8.49A8.49,8.49,0,0,0,1150,344.78Zm-4.57,0a3.89,3.89,0,1,1-3.89-3.9A3.9,3.9,0,0,1,1145.4,344.78Z"/><path d="M1066.61,331.61a8.46,8.46,0,1,0,8.46-8.49A8.49,8.49,0,0,0,1066.61,331.61Zm4.57,0a3.89,3.89,0,1,1,3.89,3.9A3.9,3.9,0,0,1,1071.18,331.61Z"/><rect x="1139.24" y="299.69" width="4.57" height="30.69"/><polygon points="1139.24 387.98 1139.24 358.09 1143.81 358.09 1143.81 386.07 1170.5 412.88 1170.5 419.37 1139.91 388.65 1139.24 387.98"/><path d="M1119.45,398.69l51,51.27v-6.49l-47.14-47.36v-154h47.14v-4.59H1045.32a8.5,8.5,0,1,0,0,4.59h27.11v1.6H1077v-1.6h41.75V398Zm-78.37-158.79a3.89,3.89,0,1,1-3.89-3.9A3.9,3.9,0,0,1,1041.09,239.91Z"/><polygon points="1104.35 407.09 1104.35 310.91 1108.92 310.91 1108.92 405.19 1153.53 450 1147.07 450 1105.02 407.76 1104.35 407.09"/><path d="M1090.16,418.1l31.76,31.9h6.46l-34.32-34.48V281.6a8.45,8.45,0,1,0-4.57,0V417.42Zm1.65-140.77a3.9,3.9,0,1,1,3.89-3.9A3.9,3.9,0,0,1,1091.81,277.33Z"/><rect x="1072.46" y="385.59" width="4.57" height="6.97"/><rect x="1072.46" y="371.65" width="4.57" height="6.97"/><rect x="1072.46" y="357.71" width="4.57" height="6.97"/><rect x="1072.46" y="399.53" width="4.57" height="6.97"/><rect x="1072.46" y="413.47" width="4.57" height="6.97"/><polygon points="1102.53 449.75 1102.28 450 1096.32 450 1094.4 448.06 1097.63 444.82 1102.53 449.75"/><polygon points="1092.72 439.89 1089.49 443.13 1084.58 438.21 1087.82 434.96 1092.72 439.89"/><polygon points="1082.91 430.03 1079.68 433.28 1074.77 428.35 1078 425.1 1082.91 430.03"/><rect x="1072.46" y="347.3" width="4.57" height="3.44"/><path d="M563.55,120.57,530.5,87.37v6.49l30.26,30.39a8.45,8.45,0,1,0,7.87-5.4A8.38,8.38,0,0,0,563.55,120.57Zm1.18,6.78a3.89,3.89,0,1,1,3.89,3.9A3.9,3.9,0,0,1,564.74,127.35Z"/><path d="M557.87,91.29,530.5,63.79v6.49L555,94.85a8.45,8.45,0,1,0,7.74-5.09A8.38,8.38,0,0,0,557.87,91.29Zm.94,7a3.89,3.89,0,1,1,3.89,3.9A3.9,3.9,0,0,1,558.81,98.25Z"/><path d="M530.5,33.2v6.49l60.31,60.58v32a8.46,8.46,0,1,0,4.57,0V98.37Zm62.59,103.39a3.9,3.9,0,1,1-3.89,3.9A3.9,3.9,0,0,1,593.09,136.59Z"/><path d="M580.65,163,530.5,112.62v6.49l48.26,48.47h10.93a8.5,8.5,0,1,0,0-4.59Zm13.28,2.26a3.89,3.89,0,1,1,3.89,3.9A3.9,3.9,0,0,1,593.93,165.26Z"/><path d="M577.57,201.81H573v.89h-9.95a8.49,8.49,0,1,0,0,4.59h26.27l41.87-42.06V130.64l8.72-8.76H661.7a8.5,8.5,0,1,0,0-4.59H638l-11.4,11.45v34.59L587.43,202.7h-9.86Zm88.37-82.25a3.89,3.89,0,1,1,3.89,3.9A3.9,3.9,0,0,1,665.94,119.57ZM558.8,205a3.89,3.89,0,1,1-3.89-3.9A3.9,3.9,0,0,1,558.8,205Z"/><rect x="573" y="193.94" width="4.57" height="3.93"/><polygon points="573 187.52 571.24 185.75 574.48 182.51 577.57 185.62 577.57 190.01 573 190.01 573 187.52"/><polygon points="555.59 163.54 560.31 168.28 557.08 171.53 552.36 166.78 555.59 163.54"/><polygon points="530.5 141.31 530.5 138.34 531.98 139.82 530.5 141.31"/><polygon points="536.7 144.56 541.42 149.31 538.19 152.55 533.47 147.81 536.7 144.56"/><polygon points="542.91 157.3 546.15 154.05 550.87 158.79 547.63 162.04 542.91 157.3"/><polygon points="565.03 173.02 569.75 177.76 566.52 181.01 561.8 176.27 565.03 173.02"/><rect x="1072.46" y="314.65" width="4.57" height="3.44"/><rect x="1072.46" y="288.87" width="4.57" height="6.44"/><rect x="1072.46" y="301.76" width="4.57" height="6.45"/><rect x="1072.46" y="275.98" width="4.57" height="6.45"/><rect x="1072.46" y="263.09" width="4.57" height="6.44"/><rect x="1072.46" y="250.19" width="4.57" height="6.45"/><polygon points="638.33 308.38 633.75 308.38 633.75 201.59 760.45 74.33 760.45 0 765.02 0 765.02 76.23 638.33 203.49 638.33 308.38"/><rect x="843.2" y="200.18" width="4.57" height="6.89"/><rect x="843.2" y="213.95" width="4.57" height="6.89"/><rect x="843.2" y="172.62" width="4.57" height="6.89"/><rect x="843.2" y="103.75" width="4.57" height="6.89"/><rect x="843.2" y="89.97" width="4.57" height="6.89"/><rect x="843.2" y="131.3" width="4.57" height="6.89"/><rect x="843.2" y="145.07" width="4.57" height="6.89"/><rect x="843.2" y="186.4" width="4.57" height="6.89"/><rect x="843.2" y="227.73" width="4.57" height="6.89"/><polygon points="843.2 82.63 841.37 82.63 841.37 78.03 847.77 78.03 847.77 83.08 843.2 83.08 843.2 82.63"/><rect x="843.2" y="158.85" width="4.57" height="6.89"/><polygon points="835.78 264.07 839.02 267.31 834.17 272.18 830.93 268.94 835.78 264.07"/><polygon points="847.77 258.52 843.86 262.44 840.63 259.2 843.2 256.62 843.2 255.28 847.77 255.28 847.77 258.52"/><rect x="843.2" y="117.52" width="4.57" height="6.89"/><rect x="843.2" y="241.5" width="4.57" height="6.89"/><path d="M864.68,61.87,824,62V0h-4.57V66.56l40.69-.09V277.32a8.45,8.45,0,1,0,4.57.07Zm-2.41,219.75a3.9,3.9,0,1,1-3.89,3.9A3.9,3.9,0,0,1,862.27,281.62Z"/><path d="M1055.3,198.83a8.45,8.45,0,0,0,16.57,2.37h70.23a8.5,8.5,0,1,0-.06-4.59h-70.13a8.45,8.45,0,0,0-16.61,2.23Zm91,0a3.89,3.89,0,1,1,3.89,3.9A3.9,3.9,0,0,1,1146.32,198.79Zm-86.45,0a3.89,3.89,0,1,1,3.89,3.9A3.9,3.9,0,0,1,1059.87,198.83Z"/><path d="M1039.27,185.94v-1.51h-4.57V186a8.47,8.47,0,1,0,4.57-.1Zm1.79,8.22a3.89,3.89,0,1,1-3.89-3.9A3.9,3.9,0,0,1,1041.06,194.16Z"/><path d="M1109.82,80.94a8.49,8.49,0,1,0,8.46,8.49A8.49,8.49,0,0,0,1109.82,80.94Zm0,4.59a3.9,3.9,0,1,1-3.89,3.9A3.9,3.9,0,0,1,1109.82,85.53Z"/><ellipse cx="1089.03" cy="89.44" rx="8.46" ry="8.49"/><path d="M1055.7,80.94a8.49,8.49,0,1,0,8.46,8.49A8.49,8.49,0,0,0,1055.7,80.94Zm0,4.59a3.9,3.9,0,1,1-3.89,3.9A3.9,3.9,0,0,1,1055.7,85.53Z"/><path d="M1158.16,126.37a8.49,8.49,0,0,0,2.25-16.67v-4.93h-4.57v4.95a8.5,8.5,0,0,0,2.32,16.66Zm-3.89-8.49a3.89,3.89,0,1,1,3.89,3.9A3.9,3.9,0,0,1,1154.27,117.88Z"/><path d="M1170.5,224.41V213.72a8.43,8.43,0,0,0-14.69,3h-97.73a8.5,8.5,0,1,0,.05,4.59h97.66a8.43,8.43,0,0,0,14.71,3.08Zm-116.64-5.28a3.89,3.89,0,1,1-3.89-3.9A3.9,3.9,0,0,1,1053.86,219.13Zm114-.07a3.89,3.89,0,1,1-3.89-3.9A3.9,3.9,0,0,1,1167.82,219.07Z"/><rect x="1034.7" y="143.51" width="4.57" height="6.82"/><rect x="1034.7" y="170.79" width="4.57" height="6.82"/><rect x="1034.7" y="157.15" width="4.57" height="6.82"/><polygon points="1034.7 130.94 1040.41 130.94 1040.41 135.53 1039.27 135.53 1039.27 136.68 1034.7 136.68 1034.7 130.94"/><rect x="1073.89" y="130.94" width="6.7" height="4.59"/><rect x="1114.07" y="130.94" width="6.7" height="4.59"/><rect x="1060.5" y="130.94" width="6.7" height="4.59"/><rect x="1047.11" y="130.94" width="6.7" height="4.59"/><rect x="1087.28" y="130.94" width="6.7" height="4.59"/><rect x="1100.67" y="130.94" width="6.7" height="4.59"/><rect x="1127.46" y="130.94" width="6.7" height="4.59"/><rect x="1140.85" y="130.94" width="6.7" height="4.59"/><polygon points="1161.71 134.05 1158.48 137.3 1156.72 135.53 1154.24 135.53 1154.24 130.94 1158.62 130.94 1161.71 134.05"/><polygon points="1163.41 142.25 1166.64 139 1170.5 142.88 1170.5 145.02 1168.34 147.2 1163.41 142.25"/><path d="M1152.17,156.66l18.33,17.81v-6.39l-16.48-16h-80.9a8.51,8.51,0,1,0,.09,4.59Zm-83.25-2.12a3.89,3.89,0,1,1-3.89-3.9A3.9,3.9,0,0,1,1068.92,154.54Z"/><path d="M1152.15,179.16l18.35,18.43v-6.49L1154,174.57H1073.2a8.48,8.48,0,1,0-.06,4.59Zm-83.23-2.41a3.89,3.89,0,1,1-3.89-3.9A3.9,3.9,0,0,1,1068.92,176.75Z"/><path d="M603.06,361.65a8.49,8.49,0,1,0,8.14,10.76h4.91v-4.59h-4.92A8.47,8.47,0,0,0,603.06,361.65Zm0,4.59a3.9,3.9,0,1,1-3.89,3.9A3.9,3.9,0,0,1,603.06,366.24Z"/><path d="M592.87,415.73A8.5,8.5,0,0,0,599,423.9V450h4.57V423.9a8.49,8.49,0,1,0-10.75-8.17Zm4.57,0a3.89,3.89,0,1,1,3.89,3.9A3.9,3.9,0,0,1,597.44,415.73Z"/><path d="M573.24,432l-18,18h6.46L576,435.65a8.38,8.38,0,0,0,5.07,1.71,8.51,8.51,0,1,0-7.87-5.4Zm4-3.1a3.89,3.89,0,1,1,3.89,3.9A3.9,3.9,0,0,1,577.22,428.87Z"/><path d="M590.57,389.31,530.5,449.64V450h6.11l56.52-56.78h9a8.49,8.49,0,1,0,0-4.59H591.24ZM606.41,391a3.89,3.89,0,1,1,3.89,3.9A3.9,3.9,0,0,1,606.41,391Z"/><path d="M615.05,64.25l51.66-51.89V0h-4.57V10.46L610.48,62.35V96.3a8.46,8.46,0,1,0,4.57,0Zm-2.28,36.31a3.9,3.9,0,1,1-3.89,3.9A3.9,3.9,0,0,1,612.77,100.56Z"/><path d="M628.88,29.09l18.37-18.45V0h-4.57V8.74L627,24.5H612.72a8.49,8.49,0,1,0,0,4.59Zm-20.42-2.32a3.89,3.89,0,1,1-3.89-3.9A3.9,3.9,0,0,1,608.46,26.76Z"/><rect x="572.22" y="246.13" width="6.06" height="4.59"/><rect x="560.11" y="246.13" width="6.06" height="4.59"/><rect x="547.99" y="246.13" width="6.06" height="4.59"/><rect x="535.87" y="246.13" width="6.06" height="4.59"/><polygon points="585.48 250.72 584.34 250.72 584.34 246.13 590.05 246.13 590.05 251.87 585.48 251.87 585.48 250.72"/><rect x="585.48" y="326.46" width="4.57" height="6.78"/><rect x="585.48" y="353.58" width="4.57" height="6.78"/><rect x="585.48" y="340.02" width="4.57" height="6.78"/><rect x="585.48" y="312.9" width="4.57" height="6.78"/><polygon points="590.05 370.6 586.38 374.29 583.15 371.05 585.48 368.7 585.48 367.14 590.05 367.14 590.05 370.6"/><rect x="585.48" y="299.33" width="4.57" height="6.78"/><polygon points="578.37 375.84 581.61 379.09 576.83 383.88 573.6 380.63 578.37 375.84"/><polygon points="559.28 395.02 562.51 398.27 557.74 403.06 554.51 399.81 559.28 395.02"/><polygon points="533.87 427.03 530.5 430.42 530.5 423.93 530.64 423.79 533.87 427.03"/><polygon points="568.83 385.43 572.06 388.68 567.29 393.47 564.05 390.23 568.83 385.43"/><polygon points="540.19 414.2 543.42 417.44 538.65 422.24 535.41 418.99 540.19 414.2"/><polygon points="549.73 404.61 552.97 407.86 548.19 412.65 544.96 409.4 549.73 404.61"/><rect x="585.48" y="258.65" width="4.57" height="6.78"/><rect x="585.48" y="285.77" width="4.57" height="6.78"/><rect x="585.48" y="272.21" width="4.57" height="6.78"/><path d="M564.45,364.11l-34,34.1v6.49L569,366V284.73a8.47,8.47,0,1,0-4.57.09Zm2.11-83.6a3.9,3.9,0,1,1,3.89-3.9A3.9,3.9,0,0,1,566.56,280.51Z"/><path d="M542.05,364.11l-11.55,11.6v6.49L546.62,366V284.8a8.45,8.45,0,1,0-4.57-.06Zm2.4-83.6a3.9,3.9,0,1,1,3.89-3.9A3.9,3.9,0,0,1,544.45,280.51Z"/><rect x="624.8" y="407.31" width="4.57" height="6.89"/><rect x="624.8" y="393.53" width="4.57" height="6.89"/><polygon points="629.37 372.87 624.8 372.87 624.8 372.41 622.97 372.41 622.97 367.82 629.37 367.82 629.37 372.87"/><rect x="624.8" y="448.63" width="4.57" height="1.37"/><rect x="624.8" y="379.75" width="4.57" height="6.89"/><rect x="624.8" y="434.86" width="4.57" height="6.89"/><rect x="624.8" y="421.08" width="4.57" height="6.89"/><path d="M601,356.34h40.69V450h4.57V351.74H605.6V250.38a8.46,8.46,0,1,0-4.57,0Zm2.23-110.2a3.9,3.9,0,1,1,3.89-3.9A3.9,3.9,0,0,1,603.25,246.13Z"/><path d="M891.49,28.16a8.45,8.45,0,0,0-16.6-2.26H870v4.59h4.92a8.45,8.45,0,0,0,16.58-2.33Zm-4.57,0a3.89,3.89,0,1,1-3.89-3.9A3.9,3.9,0,0,1,886.92,28.16Z"/><path d="M895.52,9l9-9H898L893,5.07h-9A8.51,8.51,0,0,0,880,0h-8.48a8.48,8.48,0,1,0,12.37,9.67h10.93ZM879.68,7.34a3.89,3.89,0,1,1-3.89-3.9A3.9,3.9,0,0,1,879.68,7.34Z"/><rect x="896.04" y="81.51" width="4.57" height="3.44"/><rect x="896.04" y="39.15" width="4.57" height="7.06"/><rect x="896.04" y="53.27" width="4.57" height="7.06"/><rect x="896.04" y="67.39" width="4.57" height="7.06"/><polygon points="896.04 27.7 899.13 24.59 902.36 27.84 900.61 29.6 900.61 32.09 896.04 32.09 896.04 27.7"/><polygon points="913.52 10.13 918.32 5.31 921.56 8.56 916.76 13.38 913.52 10.13"/><polygon points="903.93 19.77 908.73 14.95 911.96 18.2 907.16 23.02 903.93 19.77"/><polygon points="923.12 0.49 923.61 0 930.08 0 926.35 3.74 923.12 0.49"/><path d="M921.64,34.19,955.68,0h-6.46L917.07,32.29v81.28a8.47,8.47,0,1,0,4.57-.09Zm-2.11,83.6a3.9,3.9,0,1,1-3.89,3.9A3.9,3.9,0,0,1,919.53,117.79Z"/><path d="M944,34.19,978.08,0h-6.46L939.47,32.29V113.5a8.45,8.45,0,1,0,4.57.06Zm-2.4,83.6a3.9,3.9,0,1,1-3.89,3.9A3.9,3.9,0,0,1,941.64,117.79Z"/><polygon points="856.72 25.43 861.29 25.43 861.29 25.89 863.12 25.89 863.12 30.48 856.72 30.48 856.72 25.43"/><rect x="856.72" width="4.57" height="4.77"/><rect x="856.72" y="11.66" width="4.57" height="6.89"/><path d="M885.07,42H844.38V0h-4.57V46.56h40.69V92a8.46,8.46,0,1,0,4.57,0Zm-2.23,54.3a3.9,3.9,0,1,1-3.89,3.9A3.9,3.9,0,0,1,882.84,96.27Z"/><ellipse cx="982.9" cy="42.78" rx="8.46" ry="8.49"/><path d="M1013.59,20.45a8.46,8.46,0,1,0-8.46,8.49A8.49,8.49,0,0,0,1013.59,20.45Zm-4.57,0a3.89,3.89,0,1,1-3.89-3.9A3.9,3.9,0,0,1,1009,20.45Z"/><path d="M967.22,50a8.49,8.49,0,1,0,8.46,8.49A8.49,8.49,0,0,0,967.22,50Zm0,4.59a3.9,3.9,0,1,1-3.89,3.9A3.9,3.9,0,0,1,967.22,54.63Z"/><path d="M1140.39,15.21a8.45,8.45,0,0,0-16.79-1.37h-79.08l-56.35,56.6V96.37a8.46,8.46,0,1,0,4.57,0v-24l53.67-53.91h77.7a8.45,8.45,0,0,0,16.28-3.22ZM990.46,100.64a3.9,3.9,0,1,1-3.89,3.9A3.9,3.9,0,0,1,990.46,100.64Zm145.36-85.43a3.89,3.89,0,1,1-3.89-3.9A3.9,3.9,0,0,1,1135.82,15.21Z"/><path d="M1030.36,57.91H1170.5V53.32H1034.93l14.69-14.75h52.07a8.49,8.49,0,1,0,0-4.59h-54l-19.26,19.34h-.22v.22L1005.85,76v34.59l-8.72,8.76H975.35a8.5,8.5,0,1,0,0,4.59H999l11.4-11.45V77.93ZM971.11,121.7a3.89,3.89,0,1,1-3.89-3.9A3.9,3.9,0,0,1,971.11,121.7ZM1106,36.33a3.89,3.89,0,1,1,3.89,3.9A3.9,3.9,0,0,1,1106,36.33Z"/><polygon points="1155.84 97.88 1155.84 91.45 1160.87 91.45 1160.87 96.05 1160.41 96.05 1160.41 97.88 1155.84 97.88"/><rect x="1167.73" y="91.45" width="2.77" height="4.59"/><path d="M1144.33,79.06h26.17V74.46h-30.75l.09,40.87h-100.9a8.5,8.5,0,1,0,0,4.59h105.46ZM1034.7,117.68a3.89,3.89,0,1,1-3.89-3.9A3.9,3.9,0,0,1,1034.7,117.68Z"/><path d="M590.63,222.83H530.5v4.59h62l.67-.67,55.68-55.93V144.89a8.46,8.46,0,1,0-4.57,0v24Zm56-82.2a3.9,3.9,0,1,1,3.89-3.9A3.9,3.9,0,0,1,646.59,140.62Z"/><ellipse cx="651.64" cy="66.58" rx="8.46" ry="8.49"/><path d="M682.33,44.25a8.46,8.46,0,1,0-8.46,8.49A8.49,8.49,0,0,0,682.33,44.25Zm-4.57,0a3.89,3.89,0,1,1-3.89-3.9A3.9,3.9,0,0,1,677.76,44.25Z"/><path d="M644.42,82.33A8.46,8.46,0,1,0,636,90.83,8.49,8.49,0,0,0,644.42,82.33Zm-4.57,0a3.89,3.89,0,1,1-3.89-3.9A3.9,3.9,0,0,1,639.85,82.33Z"/></g><g class="cls-1"><path d="M2213.74,189.79v70.54a8.47,8.47,0,1,0,4.57-.06V189.83a8.45,8.45,0,1,0-4.57,0Zm2.36-4.25a3.9,3.9,0,1,1,3.89-3.9A3.9,3.9,0,0,1,2216.09,185.54Zm0,79a3.9,3.9,0,1,1-3.89,3.9A3.9,3.9,0,0,1,2216.13,264.57Z"/><path d="M2193.7,176v98.09a8.45,8.45,0,1,0,4.57,0V175.94a8.46,8.46,0,1,0-4.57.05Zm2.18-4.29a3.9,3.9,0,1,1,3.89-3.9A3.9,3.9,0,0,1,2195.88,171.69Zm.07,106.66a3.9,3.9,0,1,1-3.89,3.9A3.9,3.9,0,0,1,2195.95,278.36Z"/><path d="M2173,163.15V286.87a8.46,8.46,0,1,0,4.57,0V163.12a8.46,8.46,0,1,0-4.57,0Zm2.23-4.28a3.9,3.9,0,1,1,3.89-3.9A3.9,3.9,0,0,1,2175.2,158.87Zm.07,132.27a3.9,3.9,0,1,1-3.89,3.9A3.9,3.9,0,0,1,2175.27,291.13Z"/><path d="M2220.74,163.43a8.47,8.47,0,0,0,8.18-6.39h1.5v-4.59h-1.6a8.46,8.46,0,1,0-8.08,11Zm0-4.59a3.9,3.9,0,1,1,3.89-3.9A3.9,3.9,0,0,1,2220.74,158.84Z"/><path d="M2288.23,276.46a8.45,8.45,0,0,0,16.6,2.26h4.91v-4.59h-4.92a8.45,8.45,0,0,0-16.58,2.33Zm4.57,0a3.89,3.89,0,1,1,3.89,3.9A3.9,3.9,0,0,1,2292.8,276.46Z"/><path d="M2266.87,338.29,2188,417.52V450h4.57V419.42L2269.66,342a8.38,8.38,0,0,0,5.07,1.71,8.51,8.51,0,1,0-7.87-5.4Zm4-3.1a3.89,3.89,0,1,1,3.89,3.9A3.9,3.9,0,0,1,2270.85,335.19Z"/><path d="M2261.06,367.69l-60.43,60.7V450h4.57V430.29l58.78-59a8.38,8.38,0,0,0,4.82,1.53,8.5,8.5,0,1,0-7.74-5.09Zm3.86-3.41a3.89,3.89,0,1,1,3.89,3.9A3.9,3.9,0,0,1,2264.92,364.28Z"/><path d="M2292.67,362.26,2241,414.15V450h4.57V416.05l51.66-51.89V330.22a8.46,8.46,0,1,0-4.57,0Zm2.28-36.31a3.9,3.9,0,1,1,3.89-3.9A3.9,3.9,0,0,1,2295,325.95Z"/><path d="M2284.2,295.62,2174.12,406.19V450h4.57V408.09l108.07-108.55h9a8.49,8.49,0,1,0,0-4.59h-10.93Zm15.84,1.66a3.89,3.89,0,1,1,3.89,3.9A3.9,3.9,0,0,1,2300,297.28Z"/><path d="M2278.85,397.42l-18.37,18.45V450h4.57V417.78L2280.74,402H2295a8.49,8.49,0,1,0,0-4.59Zm20.42,2.32a3.89,3.89,0,1,1,3.89,3.9A3.9,3.9,0,0,1,2299.26,399.75Z"/><rect x="2264.38" y="152.45" width="6.79" height="4.59"/><rect x="2250.8" y="152.45" width="6.79" height="4.59"/><rect x="2237.22" y="152.45" width="6.79" height="4.59"/><polygon points="2279.11 157.04 2277.97 157.04 2277.97 152.45 2283.68 152.45 2283.68 158.19 2279.11 158.19 2279.11 157.04"/><rect x="2279.11" y="205.65" width="4.57" height="6.78"/><rect x="2279.11" y="192.09" width="4.57" height="6.78"/><rect x="2279.11" y="219.21" width="4.57" height="6.78"/><rect x="2279.11" y="178.53" width="4.57" height="6.78"/><polygon points="2283.68 276.92 2280.01 280.61 2276.78 277.36 2279.11 275.02 2279.11 273.46 2283.68 273.46 2283.68 276.92"/><rect x="2279.11" y="232.77" width="4.57" height="6.78"/><polygon points="2270.46 290.2 2267.23 286.95 2272 282.16 2275.23 285.4 2270.46 290.2"/><rect x="2279.11" y="164.97" width="4.57" height="6.78"/><rect x="2279.11" y="259.9" width="4.57" height="6.78"/><rect x="2154.31" y="424.94" width="4.57" height="6.78"/><rect x="2279.11" y="246.33" width="4.57" height="6.78"/><polygon points="2170.22 390.88 2165.45 395.68 2162.22 392.43 2166.99 387.64 2170.22 390.88"/><polygon points="2179.77 381.29 2175 386.09 2171.76 382.84 2176.54 378.05 2179.77 381.29"/><rect x="2154.31" y="438.51" width="4.57" height="6.78"/><polygon points="2262.45 291.75 2265.69 294.99 2260.91 299.79 2257.68 296.54 2262.45 291.75"/><polygon points="2160.68 400.47 2158.88 402.28 2158.88 404.6 2154.31 404.6 2154.31 400.38 2157.45 397.23 2160.68 400.47"/><rect x="2154.31" y="411.38" width="4.57" height="6.78"/><polygon points="2186.09 368.46 2189.32 371.7 2184.54 376.5 2181.31 373.25 2186.09 368.46"/><polygon points="2195.63 358.87 2198.86 362.12 2194.09 366.91 2190.86 363.66 2195.63 358.87"/><polygon points="2233.82 320.51 2237.05 323.76 2232.28 328.56 2229.04 325.31 2233.82 320.51"/><polygon points="2252.91 301.34 2256.14 304.58 2251.37 309.38 2248.14 306.13 2252.91 301.34"/><polygon points="2243.36 310.93 2246.59 314.17 2241.82 318.97 2238.59 315.72 2243.36 310.93"/><polygon points="2214.72 339.69 2217.96 342.94 2213.18 347.73 2209.95 344.49 2214.72 339.69"/><polygon points="2205.18 349.28 2208.41 352.53 2203.64 357.32 2200.4 354.07 2205.18 349.28"/><polygon points="2224.27 330.1 2227.5 333.35 2222.73 338.14 2219.5 334.9 2224.27 330.1"/><path d="M2258.08,270.43,2137.4,391.65V450H2142V393.55l120.69-121.22V191a8.47,8.47,0,1,0-4.57.09Zm2.11-83.6a3.9,3.9,0,1,1,3.89-3.9A3.9,3.9,0,0,1,2260.19,186.82Z"/><path d="M2235.68,270.43,2115,391.65V450h4.57V393.55l120.69-121.22V191.12a8.45,8.45,0,1,0-4.57-.06Zm2.4-83.6a3.9,3.9,0,1,1,3.89-3.9A3.9,3.9,0,0,1,2238.08,186.82Z"/><rect x="2318.42" y="299.85" width="4.57" height="6.89"/><rect x="2318.42" y="286.07" width="4.57" height="6.89"/><polygon points="2322.99 279.18 2318.42 279.18 2318.42 278.72 2316.59 278.72 2316.59 274.13 2322.99 274.13 2322.99 279.18"/><rect x="2318.42" y="396.28" width="4.57" height="6.89"/><rect x="2318.42" y="410.05" width="4.57" height="6.89"/><rect x="2318.42" y="382.5" width="4.57" height="6.89"/><rect x="2318.42" y="313.62" width="4.57" height="6.89"/><rect x="2318.42" y="368.72" width="4.57" height="6.89"/><rect x="2318.42" y="423.83" width="4.57" height="6.89"/><rect x="2318.42" y="437.6" width="4.57" height="6.89"/><rect x="2318.42" y="354.95" width="4.57" height="6.89"/><rect x="2318.42" y="341.17" width="4.57" height="6.89"/><rect x="2318.42" y="327.4" width="4.57" height="6.89"/><path d="M2294.65,262.65h40.69V450h4.57V258.06h-40.69V156.7a8.46,8.46,0,1,0-4.57,0Zm2.23-110.2a3.9,3.9,0,1,1,3.89-3.9A3.9,3.9,0,0,1,2296.88,152.45Z"/><path d="M1970.65,421.21a8.45,8.45,0,0,0,16.59,2.31h29V450h4.57V423.52h12.34V450h4.57V423.52h30.05l.67-.67,27.79-27.92V450h4.57V390.34l23.31-23.42V341a8.46,8.46,0,1,0-4.57,0v24l-53.67,53.91h-78.62a8.45,8.45,0,0,0-16.59,2.29Zm151.17-84.49a3.9,3.9,0,1,1,3.89-3.9A3.9,3.9,0,0,1,2121.82,336.72Zm-146.6,84.49a3.89,3.89,0,1,1,3.89,3.9A3.9,3.9,0,0,1,1975.22,421.21Z"/><path d="M1952,301.63a8.46,8.46,0,1,0,8.46-8.49A8.49,8.49,0,0,0,1952,301.63Zm4.57,0a3.89,3.89,0,1,1,3.89,3.9A3.9,3.9,0,0,1,1956.55,301.63Z"/><ellipse cx="1960.43" cy="350.04" rx="8.46" ry="8.49"/><path d="M1916.26,318.57a8.49,8.49,0,1,0,8.46,8.49A8.49,8.49,0,0,0,1916.26,318.57Zm0,4.59a3.9,3.9,0,1,1-3.89,3.9A3.9,3.9,0,0,1,1916.26,323.16Z"/><path d="M1952,372.47a8.46,8.46,0,1,0,8.46-8.49A8.49,8.49,0,0,0,1952,372.47Zm4.57,0a3.89,3.89,0,1,1,3.89,3.9A3.9,3.9,0,0,1,1956.55,372.47Z"/><ellipse cx="1855.52" cy="26.76" rx="8.46" ry="8.49"/><path d="M1864,49.2a8.46,8.46,0,1,0-8.46,8.49A8.49,8.49,0,0,0,1864,49.2Zm-4.57,0a3.89,3.89,0,1,1-3.89-3.9A3.9,3.9,0,0,1,1859.41,49.2Z"/><path d="M1936,421.21a8.46,8.46,0,1,0,10.75-8.17V201.48L2067.42,76.21V0h-4.57V74.35L1942.17,199.62V413A8.5,8.5,0,0,0,1936,421.21Zm4.57,0a3.89,3.89,0,1,1,3.89,3.9A3.9,3.9,0,0,1,1940.56,421.21Z"/><path d="M2106.42,361.33V326.74l8.72-8.76h21.79a8.5,8.5,0,1,0,0-4.59h-23.67l-11.4,11.45v34.59L2075.4,386V216.07l10.11-10.15h14.27a8.49,8.49,0,1,0,0-4.59h-16.17l-12.79,12.84V390.58l-8.18,8.21h-53.17a8.49,8.49,0,1,0,0,4.59h55.07Zm-101.19,39.76a3.89,3.89,0,1,1-3.89-3.9A3.9,3.9,0,0,1,2005.23,401.09ZM2104,203.65a3.89,3.89,0,1,1,3.89,3.9A3.9,3.9,0,0,1,2104,203.65Zm37.13,112a3.89,3.89,0,1,1,3.89,3.9A3.9,3.9,0,0,1,2141.17,315.67Z"/><path d="M2101.46,71.87a8.49,8.49,0,1,0,8.14,10.76h4.91V78h-4.92A8.47,8.47,0,0,0,2101.46,71.87Zm0,4.59a3.9,3.9,0,1,1-3.89,3.9A3.9,3.9,0,0,1,2101.46,76.46Z"/><path d="M2029.36,72.37a8.5,8.5,0,0,0-6.28-8.2V0h-4.57V64.23a8.49,8.49,0,1,0,10.85,8.14Zm-4.57,0a3.89,3.89,0,1,1-3.89-3.9A3.9,3.9,0,0,1,2024.79,72.37Z"/><path d="M2009.18,86.16A8.5,8.5,0,0,0,2003,78V0h-4.57V78a8.49,8.49,0,1,0,10.71,8.18Zm-4.57,0a3.89,3.89,0,1,1-3.89-3.9A3.9,3.9,0,0,1,2004.61,86.16Z"/><path d="M1988.5,98.94a8.5,8.5,0,0,0-6.18-8.17V0h-4.57V90.77a8.49,8.49,0,1,0,10.75,8.17Zm-4.57,0A3.89,3.89,0,1,1,1980,95,3.9,3.9,0,0,1,1983.93,98.94Z"/><path d="M2100.57,98.85h-10.93l-.67.67L1976.11,212.88V287h4.57V214.78l110.85-111.34h9a8.49,8.49,0,1,0,0-4.59Zm4.24,2.33a3.89,3.89,0,1,1,3.89,3.9A3.9,3.9,0,0,1,2104.81,101.18Z"/><path d="M2097.44,134.12v32l-75.83,76.17v29.89h4.57v-28L2102,168.07V134.12a8.46,8.46,0,1,0-4.57,0Zm2.28-4.27a3.9,3.9,0,1,1,3.89-3.9A3.9,3.9,0,0,1,2099.72,129.85Z"/><path d="M2065.12,168.18a8.47,8.47,0,0,0,.71,3.41l-60.43,60.7V353.6l29.37,29.5h22.12V335.78a8.45,8.45,0,1,0-4.57,0v42.75h-15.66L2010,351.7V234.19l58.78-59a8.38,8.38,0,0,0,4.82,1.53,8.49,8.49,0,1,0-8.46-8.49ZM2054.64,331.5a3.9,3.9,0,1,1,3.89-3.9A3.9,3.9,0,0,1,2054.64,331.5Zm15.05-163.32a3.89,3.89,0,1,1,3.89,3.9A3.9,3.9,0,0,1,2069.69,168.18Z"/><path d="M2063.09,304.18a8.46,8.46,0,1,0-8.46,8.49A8.49,8.49,0,0,0,2063.09,304.18Zm-4.57,0a3.89,3.89,0,1,1-3.89-3.9A3.9,3.9,0,0,1,2058.52,304.18Z"/><path d="M2063.09,258.06a8.46,8.46,0,1,0-8.46,8.49A8.49,8.49,0,0,0,2063.09,258.06Zm-4.57,0a3.89,3.89,0,1,1-3.89-3.9A3.9,3.9,0,0,1,2058.52,258.06Z"/><path d="M2032.34,344.69a8.46,8.46,0,1,0-8.46,8.49A8.49,8.49,0,0,0,2032.34,344.69Zm-4.57,0a3.89,3.89,0,1,1-3.89-3.9A3.9,3.9,0,0,1,2027.77,344.69Z"/><path d="M2023.89,294a8.49,8.49,0,1,0-8.46-8.49A8.49,8.49,0,0,0,2023.89,294Zm-3.89-8.49a3.89,3.89,0,1,1,3.89,3.9A3.9,3.9,0,0,1,2020,285.53Z"/><path d="M2107,285.53a8.47,8.47,0,0,0-1.43-4.71l3.74-3.76-3.23-3.25-4,4a8.36,8.36,0,0,0-3.54-.79,8.49,8.49,0,1,0,8.46,8.49Zm-8.46-3.9a3.9,3.9,0,1,1-3.89,3.9A3.9,3.9,0,0,1,2098.55,281.62Z"/><rect x="2021.61" y="299.92" width="4.57" height="30.69"/><path d="M1991,319.4h4.57V225.12l78.89-79.25a8.38,8.38,0,0,0,5.07,1.71,8.51,8.51,0,1,0-7.87-5.4l-80.67,81Zm84.65-180.31a3.89,3.89,0,1,1,3.89,3.9A3.9,3.9,0,0,1,2075.62,139.09Z"/><rect x="2083.88" y="38.07" width="4.57" height="6.91"/><rect x="2083.88" y="51.88" width="4.57" height="6.91"/><rect x="2083.88" y="24.25" width="4.57" height="6.91"/><rect x="2083.88" y="65.69" width="4.57" height="6.91"/><rect x="2083.88" y="10.44" width="4.57" height="6.91"/><rect x="1959.08" y="234.8" width="4.57" height="6.91"/><rect x="1959.08" y="220.98" width="4.57" height="6.91"/><polygon points="2070.22 92.64 2075.08 87.76 2078.31 91.01 2073.45 95.89 2070.22 92.64"/><polygon points="2016.73 146.37 2019.96 149.61 2015.1 154.5 2011.87 151.25 2016.73 146.37"/><polygon points="2007.01 156.13 2010.24 159.38 2005.38 164.27 2002.14 161.02 2007.01 156.13"/><polygon points="2026.46 136.6 2029.69 139.85 2024.83 144.73 2021.6 141.48 2026.46 136.6"/><polygon points="2079.94 82.88 2084.55 78.25 2085.81 79.51 2088.45 79.51 2088.45 80.82 2083.17 86.12 2079.94 82.88"/><rect x="1959.08" y="248.61" width="4.57" height="6.91"/><rect x="1959.08" y="207.17" width="4.57" height="6.91"/><polygon points="1977.83 185.44 1981.07 188.69 1976.2 193.57 1972.97 190.32 1977.83 185.44"/><rect x="2083.88" width="4.57" height="3.53"/><polygon points="2036.18 126.83 2039.41 130.08 2034.55 134.96 2031.32 131.72 2036.18 126.83"/><polygon points="2045.91 117.06 2049.14 120.31 2044.28 125.19 2041.04 121.95 2045.91 117.06"/><polygon points="1997.28 165.9 2000.52 169.15 1995.65 174.03 1992.42 170.79 1997.28 165.9"/><polygon points="2055.63 107.3 2058.86 110.54 2054 115.43 2050.77 112.18 2055.63 107.3"/><polygon points="2065.36 97.53 2068.59 100.77 2063.72 105.66 2060.49 102.41 2065.36 97.53"/><polygon points="1987.56 175.67 1990.79 178.92 1985.93 183.8 1982.7 180.56 1987.56 175.67"/><polygon points="1971.34 198.45 1966.48 203.34 1963.25 200.09 1968.11 195.21 1971.34 198.45"/><rect x="1959.08" y="262.42" width="4.57" height="3.44"/><path d="M2399.45,398.69l51,51.27v-6.49l-47.14-47.36v-154h47.14v-4.59H2325.32a8.5,8.5,0,1,0,0,4.59h27.11v1.6H2357v-1.6h41.75V398Zm-78.37-158.79a3.89,3.89,0,1,1-3.89-3.9A3.9,3.9,0,0,1,2321.09,239.91Z"/><path d="M1843.55,120.57l-33.05-33.2v6.49l30.26,30.39a8.45,8.45,0,1,0,7.87-5.4A8.38,8.38,0,0,0,1843.55,120.57Zm1.18,6.78a3.89,3.89,0,1,1,3.89,3.9A3.9,3.9,0,0,1,1844.74,127.35Z"/><path d="M1837.87,91.29,1810.5,63.79v6.49L1835,94.85a8.45,8.45,0,1,0,7.74-5.09A8.38,8.38,0,0,0,1837.87,91.29Zm.94,7a3.89,3.89,0,1,1,3.89,3.9A3.9,3.9,0,0,1,1838.81,98.25Z"/><path d="M1810.5,33.2v6.49l60.31,60.58v32a8.46,8.46,0,1,0,4.57,0V98.37Zm62.59,103.39a3.9,3.9,0,1,1-3.89,3.9A3.9,3.9,0,0,1,1873.09,136.59Z"/><path d="M1860.65,163l-50.15-50.37v6.49l48.26,48.47h10.93a8.5,8.5,0,1,0,0-4.59Zm13.28,2.26a3.89,3.89,0,1,1,3.89,3.9A3.9,3.9,0,0,1,1873.93,165.26Z"/><path d="M1857.57,201.81H1853v.89h-9.95a8.49,8.49,0,1,0,0,4.59h26.27l41.87-42.06V130.64l8.72-8.76h21.79a8.5,8.5,0,1,0,0-4.59H1918l-11.4,11.45v34.59l-39.19,39.37h-9.86Zm88.37-82.25a3.89,3.89,0,1,1,3.89,3.9A3.9,3.9,0,0,1,1945.94,119.57ZM1838.8,205a3.89,3.89,0,1,1-3.89-3.9A3.9,3.9,0,0,1,1838.8,205Z"/><rect x="1853" y="193.94" width="4.57" height="3.93"/><polygon points="1853 187.52 1851.24 185.75 1854.48 182.51 1857.57 185.62 1857.57 190.01 1853 190.01 1853 187.52"/><polygon points="1835.59 163.54 1840.31 168.28 1837.08 171.53 1832.36 166.78 1835.59 163.54"/><polygon points="1810.5 141.31 1810.5 138.34 1811.98 139.82 1810.5 141.31"/><polygon points="1816.7 144.56 1821.42 149.31 1818.19 152.55 1813.47 147.81 1816.7 144.56"/><polygon points="1822.91 157.3 1826.15 154.05 1830.87 158.79 1827.63 162.04 1822.91 157.3"/><polygon points="1845.03 173.02 1849.76 177.76 1846.52 181.01 1841.8 176.27 1845.03 173.02"/><polygon points="1918.33 308.38 1913.75 308.38 1913.75 201.59 2040.45 74.33 2040.45 0 2045.02 0 2045.02 76.23 1918.33 203.49 1918.33 308.38"/><rect x="2123.2" y="200.18" width="4.57" height="6.89"/><rect x="2123.2" y="213.95" width="4.57" height="6.89"/><rect x="2123.2" y="172.62" width="4.57" height="6.89"/><rect x="2123.2" y="103.75" width="4.57" height="6.89"/><rect x="2123.2" y="89.97" width="4.57" height="6.89"/><rect x="2123.2" y="131.3" width="4.57" height="6.89"/><rect x="2123.2" y="145.07" width="4.57" height="6.89"/><rect x="2123.2" y="186.4" width="4.57" height="6.89"/><rect x="2123.2" y="227.73" width="4.57" height="6.89"/><polygon points="2123.2 82.63 2121.37 82.63 2121.37 78.03 2127.77 78.03 2127.77 83.08 2123.2 83.08 2123.2 82.63"/><rect x="2123.2" y="158.85" width="4.57" height="6.89"/><polygon points="2115.78 264.07 2119.02 267.31 2114.17 272.18 2110.93 268.94 2115.78 264.07"/><polygon points="2127.77 258.52 2123.86 262.44 2120.63 259.2 2123.2 256.62 2123.2 255.28 2127.77 255.28 2127.77 258.52"/><rect x="2123.2" y="117.52" width="4.57" height="6.89"/><rect x="2123.2" y="241.5" width="4.57" height="6.89"/><path d="M2144.68,61.87,2104,62V0h-4.57V66.56l40.69-.09V277.32a8.45,8.45,0,1,0,4.57.07Zm-2.41,219.75a3.9,3.9,0,1,1-3.89,3.9A3.9,3.9,0,0,1,2142.27,281.62Z"/><path d="M2335.3,198.83a8.45,8.45,0,0,0,16.57,2.37h70.23a8.5,8.5,0,1,0-.06-4.59h-70.13a8.45,8.45,0,0,0-16.61,2.23Zm91,0a3.89,3.89,0,1,1,3.89,3.9A3.9,3.9,0,0,1,2426.32,198.79Zm-86.45,0a3.89,3.89,0,1,1,3.89,3.9A3.9,3.9,0,0,1,2339.87,198.83Z"/><path d="M2319.27,185.94v-1.51h-4.57V186a8.47,8.47,0,1,0,4.57-.1Zm1.79,8.22a3.89,3.89,0,1,1-3.89-3.9A3.9,3.9,0,0,1,2321.06,194.16Z"/><path d="M2335.7,80.94a8.49,8.49,0,1,0,8.46,8.49A8.49,8.49,0,0,0,2335.7,80.94Zm0,4.59a3.9,3.9,0,1,1-3.89,3.9A3.9,3.9,0,0,1,2335.7,85.53Z"/><path d="M2450.5,224.41V213.72a8.43,8.43,0,0,0-14.69,3h-97.73a8.5,8.5,0,1,0,.05,4.59h97.66a8.43,8.43,0,0,0,14.71,3.08Zm-116.64-5.28a3.89,3.89,0,1,1-3.89-3.9A3.9,3.9,0,0,1,2333.86,219.13Zm114-.07a3.89,3.89,0,1,1-3.89-3.9A3.9,3.9,0,0,1,2447.82,219.07Z"/><rect x="2314.7" y="143.51" width="4.57" height="6.82"/><rect x="2314.7" y="170.79" width="4.57" height="6.82"/><rect x="2314.7" y="157.15" width="4.57" height="6.82"/><polygon points="2314.7 130.94 2320.41 130.94 2320.41 135.53 2319.27 135.53 2319.27 136.68 2314.7 136.68 2314.7 130.94"/><rect x="2340.5" y="130.94" width="6.7" height="4.59"/><rect x="2327.11" y="130.94" width="6.7" height="4.59"/><path d="M2432.17,156.66l18.33,17.81v-6.39l-16.48-16h-80.9a8.51,8.51,0,1,0,.09,4.59Zm-83.25-2.12a3.89,3.89,0,1,1-3.89-3.9A3.9,3.9,0,0,1,2348.92,154.54Z"/><path d="M2432.15,179.16l18.35,18.43v-6.49L2434,174.57H2353.2a8.48,8.48,0,1,0-.06,4.59Zm-83.23-2.41a3.89,3.89,0,1,1-3.89-3.9A3.9,3.9,0,0,1,2348.92,176.75Z"/><path d="M1883.06,361.65a8.49,8.49,0,1,0,8.14,10.76h4.91v-4.59h-4.92A8.47,8.47,0,0,0,1883.06,361.65Zm0,4.59a3.9,3.9,0,1,1-3.89,3.9A3.9,3.9,0,0,1,1883.06,366.24Z"/><path d="M1872.87,415.73a8.5,8.5,0,0,0,6.18,8.17V450h4.57V423.9a8.49,8.49,0,1,0-10.75-8.17Zm4.57,0a3.89,3.89,0,1,1,3.89,3.9A3.9,3.9,0,0,1,1877.44,415.73Z"/><path d="M1853.24,432l-18,18h6.46L1856,435.65a8.38,8.38,0,0,0,5.07,1.71,8.51,8.51,0,1,0-7.87-5.4Zm4-3.1a3.89,3.89,0,1,1,3.89,3.9A3.9,3.9,0,0,1,1857.22,428.87Z"/><path d="M1870.57,389.31l-60.07,60.34V450h6.11l56.52-56.78h9a8.49,8.49,0,1,0,0-4.59h-10.93Zm15.84,1.66a3.89,3.89,0,1,1,3.89,3.9A3.9,3.9,0,0,1,1886.41,391Z"/><path d="M1895.05,64.25l51.66-51.89V0h-4.57V10.46l-51.66,51.89V96.3a8.46,8.46,0,1,0,4.57,0Zm-2.28,36.31a3.9,3.9,0,1,1-3.89,3.9A3.9,3.9,0,0,1,1892.77,100.56Z"/><path d="M1908.88,29.09l18.37-18.45V0h-4.57V8.74L1907,24.5h-14.27a8.49,8.49,0,1,0,0,4.59Zm-20.42-2.32a3.89,3.89,0,1,1-3.89-3.9A3.9,3.9,0,0,1,1888.46,26.76Z"/><rect x="1852.22" y="246.13" width="6.06" height="4.59"/><rect x="1840.11" y="246.13" width="6.06" height="4.59"/><rect x="1827.99" y="246.13" width="6.06" height="4.59"/><rect x="1815.87" y="246.13" width="6.06" height="4.59"/><polygon points="1865.48 250.72 1864.34 250.72 1864.34 246.13 1870.05 246.13 1870.05 251.87 1865.48 251.87 1865.48 250.72"/><rect x="1865.48" y="326.46" width="4.57" height="6.78"/><rect x="1865.48" y="353.58" width="4.57" height="6.78"/><rect x="1865.48" y="340.02" width="4.57" height="6.78"/><rect x="1865.48" y="312.9" width="4.57" height="6.78"/><polygon points="1870.05 370.6 1866.38 374.29 1863.15 371.05 1865.48 368.7 1865.48 367.14 1870.05 367.14 1870.05 370.6"/><rect x="1865.48" y="299.33" width="4.57" height="6.78"/><polygon points="1858.37 375.84 1861.61 379.09 1856.83 383.88 1853.6 380.63 1858.37 375.84"/><polygon points="1839.28 395.02 1842.51 398.27 1837.74 403.06 1834.51 399.81 1839.28 395.02"/><polygon points="1813.87 427.03 1810.5 430.42 1810.5 423.93 1810.64 423.79 1813.87 427.03"/><polygon points="1848.83 385.43 1852.06 388.68 1847.29 393.47 1844.05 390.23 1848.83 385.43"/><polygon points="1820.19 414.2 1823.42 417.44 1818.65 422.24 1815.41 418.99 1820.19 414.2"/><polygon points="1829.73 404.61 1832.97 407.86 1828.19 412.65 1824.96 409.4 1829.73 404.61"/><rect x="1865.48" y="258.65" width="4.57" height="6.78"/><rect x="1865.48" y="285.77" width="4.57" height="6.78"/><rect x="1865.48" y="272.21" width="4.57" height="6.78"/><path d="M1844.45,364.11l-34,34.1v6.49L1849,366V284.73a8.47,8.47,0,1,0-4.57.09Zm2.11-83.6a3.9,3.9,0,1,1,3.89-3.9A3.9,3.9,0,0,1,1846.56,280.51Z"/><path d="M1822.05,364.11l-11.55,11.6v6.49l16.12-16.2V284.8a8.45,8.45,0,1,0-4.57-.06Zm2.4-83.6a3.9,3.9,0,1,1,3.89-3.9A3.9,3.9,0,0,1,1824.45,280.51Z"/><rect x="1904.8" y="407.31" width="4.57" height="6.89"/><rect x="1904.8" y="393.53" width="4.57" height="6.89"/><polygon points="1909.37 372.87 1904.8 372.87 1904.8 372.41 1902.97 372.41 1902.97 367.82 1909.37 367.82 1909.37 372.87"/><rect x="1904.8" y="448.63" width="4.57" height="1.37"/><rect x="1904.8" y="379.75" width="4.57" height="6.89"/><rect x="1904.8" y="434.86" width="4.57" height="6.89"/><rect x="1904.8" y="421.08" width="4.57" height="6.89"/><path d="M1881,356.34h40.69V450h4.57V351.74H1885.6V250.38a8.46,8.46,0,1,0-4.57,0Zm2.23-110.2a3.9,3.9,0,1,1,3.89-3.9A3.9,3.9,0,0,1,1883.25,246.13Z"/><path d="M2171.49,28.16a8.45,8.45,0,0,0-16.6-2.26H2150v4.59h4.92a8.45,8.45,0,0,0,16.58-2.33Zm-4.57,0a3.89,3.89,0,1,1-3.89-3.9A3.9,3.9,0,0,1,2166.92,28.16Z"/><path d="M2175.52,9l9-9H2178L2173,5.07h-9A8.51,8.51,0,0,0,2160,0h-8.48a8.48,8.48,0,1,0,12.37,9.67h10.93Zm-15.84-1.66a3.89,3.89,0,1,1-3.89-3.9A3.9,3.9,0,0,1,2159.68,7.34Z"/><rect x="2176.04" y="81.51" width="4.57" height="3.44"/><rect x="2176.04" y="39.15" width="4.57" height="7.06"/><rect x="2176.04" y="53.27" width="4.57" height="7.06"/><rect x="2176.04" y="67.39" width="4.57" height="7.06"/><polygon points="2176.04 27.7 2179.13 24.59 2182.36 27.84 2180.61 29.6 2180.61 32.09 2176.04 32.09 2176.04 27.7"/><polygon points="2193.53 10.13 2198.32 5.31 2201.56 8.56 2196.76 13.38 2193.53 10.13"/><polygon points="2183.93 19.77 2188.73 14.95 2191.96 18.2 2187.16 23.02 2183.93 19.77"/><polygon points="2203.12 0.49 2203.61 0 2210.07 0 2206.35 3.74 2203.12 0.49"/><path d="M2201.64,34.19l34-34.19h-6.46l-32.14,32.29v81.28a8.47,8.47,0,1,0,4.57-.09Zm-2.11,83.6a3.9,3.9,0,1,1-3.89,3.9A3.9,3.9,0,0,1,2199.53,117.79Z"/><path d="M2224,34.19l34-34.19h-6.46l-32.14,32.29V113.5a8.45,8.45,0,1,0,4.57.06Zm-2.4,83.6a3.9,3.9,0,1,1-3.89,3.9A3.9,3.9,0,0,1,2221.64,117.79Z"/><polygon points="2136.72 25.43 2141.3 25.43 2141.3 25.89 2143.12 25.89 2143.12 30.48 2136.72 30.48 2136.72 25.43"/><rect x="2136.72" width="4.57" height="4.77"/><rect x="2136.72" y="11.66" width="4.57" height="6.89"/><path d="M2165.07,42h-40.69V0h-4.57V46.56h40.69V92a8.46,8.46,0,1,0,4.57,0Zm-2.23,54.3a3.9,3.9,0,1,1-3.89,3.9A3.9,3.9,0,0,1,2162.84,96.27Z"/><ellipse cx="2262.9" cy="42.78" rx="8.46" ry="8.49"/><path d="M2293.59,20.45a8.46,8.46,0,1,0-8.46,8.49A8.49,8.49,0,0,0,2293.59,20.45Zm-4.57,0a3.89,3.89,0,1,1-3.89-3.9A3.9,3.9,0,0,1,2289,20.45Z"/><path d="M2247.22,50a8.49,8.49,0,1,0,8.46,8.49A8.49,8.49,0,0,0,2247.22,50Zm0,4.59a3.9,3.9,0,1,1-3.89,3.9A3.9,3.9,0,0,1,2247.22,54.63Z"/><path d="M2420.39,15.21a8.45,8.45,0,0,0-16.79-1.37h-79.08l-56.35,56.6V96.37a8.46,8.46,0,1,0,4.57,0v-24l53.67-53.91h77.7a8.45,8.45,0,0,0,16.28-3.22Zm-149.93,85.43a3.9,3.9,0,1,1-3.89,3.9A3.9,3.9,0,0,1,2270.46,100.64Zm145.36-85.43a3.89,3.89,0,1,1-3.89-3.9A3.9,3.9,0,0,1,2415.82,15.21Z"/><path d="M2310.36,57.91H2450.5V53.32H2314.93l14.69-14.75h52.07a8.49,8.49,0,1,0,0-4.59h-54l-19.26,19.34h-.22v.22L2285.85,76v34.59l-8.72,8.76h-21.78a8.5,8.5,0,1,0,0,4.59H2279l11.4-11.45V77.93Zm-59.26,63.79a3.89,3.89,0,1,1-3.89-3.9A3.9,3.9,0,0,1,2251.11,121.7ZM2386,36.33a3.89,3.89,0,1,1,3.89,3.9A3.9,3.9,0,0,1,2386,36.33Z"/><path d="M2424.33,79.06h26.17V74.46h-30.75l.09,40.87h-100.9a8.5,8.5,0,1,0,0,4.59h105.46ZM2314.7,117.68a3.89,3.89,0,1,1-3.89-3.9A3.9,3.9,0,0,1,2314.7,117.68Z"/><path d="M1870.63,222.83H1810.5v4.59h62l.67-.67,55.68-55.93V144.89a8.46,8.46,0,1,0-4.57,0v24Zm56-82.2a3.9,3.9,0,1,1,3.89-3.9A3.9,3.9,0,0,1,1926.59,140.62Z"/><ellipse cx="1931.64" cy="66.58" rx="8.46" ry="8.49"/><path d="M1962.33,44.25a8.46,8.46,0,1,0-8.46,8.49A8.49,8.49,0,0,0,1962.33,44.25Zm-4.57,0a3.89,3.89,0,1,1-3.89-3.9A3.9,3.9,0,0,1,1957.76,44.25Z"/><path d="M1924.42,82.33a8.46,8.46,0,1,0-8.46,8.49A8.49,8.49,0,0,0,1924.42,82.33Zm-4.57,0a3.89,3.89,0,1,1-3.89-3.9A3.9,3.9,0,0,1,1919.85,82.33Z"/><path d="M1413.36,181.64a8.46,8.46,0,1,0-10.67,8.19v70.45a8.45,8.45,0,1,0,4.57.06V189.79A8.5,8.5,0,0,0,1413.36,181.64Zm-12.34,0a3.89,3.89,0,1,1,3.89,3.9A3.9,3.9,0,0,1,1401,181.64Zm7.73,86.83a3.89,3.89,0,1,1-3.89-3.9A3.9,3.9,0,0,1,1408.75,268.47Z"/><path d="M1433.57,167.79a8.46,8.46,0,1,0-10.84,8.14V274.1a8.46,8.46,0,1,0,4.57,0V176A8.5,8.5,0,0,0,1433.57,167.79Zm-12.34,0a3.89,3.89,0,1,1,3.89,3.9A3.9,3.9,0,0,1,1421.23,167.79Zm7.71,114.47a3.89,3.89,0,1,1-3.89-3.9A3.9,3.9,0,0,1,1428.94,282.26Z"/><path d="M1454.26,155a8.46,8.46,0,1,0-10.8,8.16V286.86a8.46,8.46,0,1,0,4.57,0V163.15A8.5,8.5,0,0,0,1454.26,155Zm-12.34,0a3.89,3.89,0,1,1,3.89,3.9A3.9,3.9,0,0,1,1441.91,155Zm7.7,140.07a3.89,3.89,0,1,1-3.89-3.9A3.9,3.9,0,0,1,1449.62,295Z"/><path d="M1408.72,154.94a8.45,8.45,0,0,0-16.54-2.49h-1.6V157h1.5a8.45,8.45,0,0,0,16.64-2.1Zm-12.34,0a3.89,3.89,0,1,1,3.89,3.9A3.9,3.9,0,0,1,1396.37,154.94Z"/><path d="M1324.31,268a8.47,8.47,0,0,0-8.13,6.17h-4.92v4.59h4.91a8.46,8.46,0,1,0,8.14-10.76Zm0,12.4a3.9,3.9,0,1,1,3.89-3.9A3.9,3.9,0,0,1,1324.31,280.36Z"/><path d="M1354.72,335.19a8.46,8.46,0,1,0-8.46,8.49,8.38,8.38,0,0,0,5.07-1.71l77.11,77.45V450H1433V417.52l-78.88-79.23A8.47,8.47,0,0,0,1354.72,335.19Zm-8.46,3.9a3.9,3.9,0,1,1,3.89-3.9A3.9,3.9,0,0,1,1346.27,339.09Z"/><path d="M1360.65,364.28a8.46,8.46,0,1,0-8.46,8.49,8.38,8.38,0,0,0,4.82-1.53l58.78,59V450h4.57V428.39l-60.43-60.7A8.47,8.47,0,0,0,1360.65,364.28Zm-8.46,3.9a3.9,3.9,0,1,1,3.89-3.9A3.9,3.9,0,0,1,1352.2,368.18Z"/><path d="M1328.33,330.22a8.46,8.46,0,1,0-4.57,0v33.95l51.66,51.89V450H1380V414.15l-51.66-51.89Zm-6.16-8.17a3.89,3.89,0,1,1,3.89,3.9A3.9,3.9,0,0,1,1322.16,322Z"/><path d="M1336.13,295H1325.2a8.5,8.5,0,1,0,0,4.59h9l108.07,108.55V450h4.57V406.19L1336.8,295.62Zm-19.06,6.23a3.9,3.9,0,1,1,3.89-3.9A3.9,3.9,0,0,1,1317.07,301.18Z"/><path d="M1326,397.42a8.5,8.5,0,1,0,0,4.59h14.27l15.69,15.76V450h4.57V415.87l-18.37-18.45Zm-8.13,6.23a3.9,3.9,0,1,1,3.89-3.9A3.9,3.9,0,0,1,1317.85,403.65Z"/><rect x="1349.82" y="152.45" width="6.79" height="4.59"/><rect x="1363.41" y="152.45" width="6.79" height="4.59"/><rect x="1376.99" y="152.45" width="6.79" height="4.59"/><polygon points="1341.89 157.04 1343.03 157.04 1343.03 152.45 1337.32 152.45 1337.32 158.19 1341.89 158.19 1341.89 157.04"/><rect x="1337.32" y="205.65" width="4.57" height="6.78"/><rect x="1337.32" y="192.09" width="4.57" height="6.78"/><rect x="1337.32" y="219.21" width="4.57" height="6.78"/><rect x="1337.32" y="178.53" width="4.57" height="6.78"/><polygon points="1337.32 276.92 1340.99 280.61 1344.22 277.36 1341.89 275.02 1341.89 273.46 1337.32 273.46 1337.32 276.92"/><rect x="1337.32" y="232.77" width="4.57" height="6.78"/><polygon points="1350.54 290.2 1353.77 286.95 1349 282.16 1345.77 285.4 1350.54 290.2"/><rect x="1337.32" y="164.97" width="4.57" height="6.78"/><rect x="1337.32" y="259.9" width="4.57" height="6.78"/><rect x="1462.12" y="424.94" width="4.57" height="6.78"/><rect x="1337.32" y="246.33" width="4.57" height="6.78"/><polygon points="1450.78 390.88 1455.55 395.68 1458.78 392.43 1454.01 387.64 1450.78 390.88"/><polygon points="1441.23 381.29 1446 386.09 1449.23 382.84 1444.46 378.05 1441.23 381.29"/><rect x="1462.12" y="438.51" width="4.57" height="6.78"/><polygon points="1358.55 291.75 1355.31 294.99 1360.09 299.79 1363.32 296.54 1358.55 291.75"/><polygon points="1460.32 400.47 1462.12 402.28 1462.12 404.6 1466.69 404.6 1466.69 400.38 1463.55 397.23 1460.32 400.47"/><rect x="1462.12" y="411.38" width="4.57" height="6.78"/><polygon points="1434.91 368.46 1431.68 371.7 1436.46 376.5 1439.69 373.25 1434.91 368.46"/><polygon points="1425.37 358.87 1422.14 362.12 1426.91 366.91 1430.14 363.66 1425.37 358.87"/><polygon points="1387.18 320.51 1383.95 323.76 1388.72 328.56 1391.96 325.31 1387.18 320.51"/><polygon points="1368.09 301.34 1364.86 304.58 1369.63 309.38 1372.86 306.13 1368.09 301.34"/><polygon points="1377.64 310.93 1374.4 314.17 1379.18 318.97 1382.41 315.72 1377.64 310.93"/><polygon points="1406.28 339.69 1403.04 342.94 1407.82 347.73 1411.05 344.49 1406.28 339.69"/><polygon points="1415.82 349.28 1412.59 352.53 1417.36 357.32 1420.6 354.07 1415.82 349.28"/><polygon points="1396.73 330.1 1393.5 333.35 1398.27 338.14 1401.5 334.9 1396.73 330.1"/><path d="M1362.92,191.14a8.44,8.44,0,1,0-4.57-.09v81.28L1479,393.55V450h4.57V391.65L1362.92,270.43Zm-6-8.22a3.89,3.89,0,1,1,3.89,3.9A3.9,3.9,0,0,1,1356.92,182.92Z"/><path d="M1385.32,191.06a8.47,8.47,0,1,0-4.57.06v81.21l120.69,121.22V450H1506V391.65L1385.32,270.43Zm-6.28-8.14a3.89,3.89,0,1,1,3.89,3.9A3.9,3.9,0,0,1,1379,182.92Z"/><rect x="1298" y="299.85" width="4.57" height="6.89"/><rect x="1298" y="286.07" width="4.57" height="6.89"/><polygon points="1298.01 279.18 1302.58 279.18 1302.58 278.72 1304.4 278.72 1304.4 274.13 1298.01 274.13 1298.01 279.18"/><rect x="1298" y="396.28" width="4.57" height="6.89"/><rect x="1298" y="410.05" width="4.57" height="6.89"/><rect x="1298" y="382.5" width="4.57" height="6.89"/><rect x="1298" y="313.62" width="4.57" height="6.89"/><rect x="1298" y="368.72" width="4.57" height="6.89"/><rect x="1298" y="423.83" width="4.57" height="6.89"/><rect x="1298" y="437.6" width="4.57" height="6.89"/><rect x="1298" y="354.95" width="4.57" height="6.89"/><rect x="1298" y="341.17" width="4.57" height="6.89"/><rect x="1298" y="327.4" width="4.57" height="6.89"/><path d="M1326.35,156.73a8.45,8.45,0,1,0-4.57,0V258.06h-40.69V450h4.57V262.65h40.69Zm-6.12-8.18a3.89,3.89,0,1,1,3.89,3.9A3.9,3.9,0,0,1,1320.23,148.55Z"/><path d="M1641.9,412.72a8.47,8.47,0,0,0-8.14,6.21h-78.62L1501.47,365V341a8.46,8.46,0,1,0-4.57,0v25.93l23.31,23.42V450h4.57V394.93l27.79,27.92.67.67h30.05V450h4.57V423.52h12.34V450h4.57V423.52h29a8.46,8.46,0,1,0,8.13-10.8Zm-146.6-79.9a3.89,3.89,0,1,1,3.89,3.9A3.9,3.9,0,0,1,1495.3,332.82Zm146.6,92.3a3.9,3.9,0,1,1,3.89-3.9A3.9,3.9,0,0,1,1641.9,425.12Z"/><path d="M1660.57,293.14a8.49,8.49,0,1,0,8.46,8.49A8.49,8.49,0,0,0,1660.57,293.14Zm0,12.4a3.9,3.9,0,1,1,3.89-3.9A3.9,3.9,0,0,1,1660.57,305.54Z"/><ellipse cx="1660.57" cy="350.04" rx="8.46" ry="8.49"/><path d="M1696.28,327.06a8.46,8.46,0,1,0,8.46-8.49A8.49,8.49,0,0,0,1696.28,327.06Zm12.34,0a3.89,3.89,0,1,1-3.89-3.9A3.9,3.9,0,0,1,1708.62,327.06Z"/><path d="M1660.57,364a8.49,8.49,0,1,0,8.46,8.49A8.49,8.49,0,0,0,1660.57,364Zm0,12.4a3.9,3.9,0,1,1,3.89-3.9A3.9,3.9,0,0,1,1660.57,376.38Z"/><ellipse cx="1765.48" cy="26.76" rx="8.46" ry="8.49"/><path d="M1765.48,57.7A8.49,8.49,0,1,0,1757,49.2,8.49,8.49,0,0,0,1765.48,57.7Zm0-12.4a3.9,3.9,0,1,1-3.89,3.9A3.9,3.9,0,0,1,1765.48,45.3Z"/><path d="M1678.83,413V199.62L1558.15,74.35V0h-4.57V76.21l120.69,125.27V413a8.46,8.46,0,1,0,4.57,0Zm-2.28,12.08a3.9,3.9,0,1,1,3.89-3.9A3.9,3.9,0,0,1,1676.56,425.12Z"/><path d="M1556.45,403.39h55.07a8.49,8.49,0,1,0,0-4.59h-53.17l-8.18-8.21V214.17l-12.79-12.84h-16.17a8.5,8.5,0,1,0,0,4.59h14.27l10.11,10.15V386l-26.45-26.56V324.84l-11.4-11.45h-23.67a8.49,8.49,0,1,0,0,4.59h21.79l8.72,8.76v34.59Zm63.2-6.2a3.9,3.9,0,1,1-3.89,3.9A3.9,3.9,0,0,1,1619.65,397.19ZM1513.08,207.55a3.9,3.9,0,1,1,3.89-3.9A3.9,3.9,0,0,1,1513.08,207.55Zm-37.13,112a3.9,3.9,0,1,1,3.89-3.9A3.9,3.9,0,0,1,1475.95,319.57Z"/><path d="M1511.42,78h-4.92v4.59h4.91a8.49,8.49,0,1,0,0-4.59Zm12,2.33a3.89,3.89,0,1,1-3.89-3.9A3.9,3.9,0,0,1,1523.43,80.36Z"/><path d="M1600.1,80.87a8.5,8.5,0,0,0,2.39-16.64V0h-4.57V64.17a8.49,8.49,0,0,0,2.18,16.69Zm0-12.4a3.9,3.9,0,1,1-3.89,3.9A3.9,3.9,0,0,1,1600.1,68.47Z"/><path d="M1620.28,94.66A8.49,8.49,0,0,0,1622.53,78V0H1618V78a8.5,8.5,0,0,0,2.32,16.66Zm0-12.4a3.9,3.9,0,1,1-3.89,3.9A3.9,3.9,0,0,1,1620.28,82.26Z"/><path d="M1641,107.43a8.49,8.49,0,0,0,2.3-16.66V0h-4.57V90.76a8.49,8.49,0,0,0,2.28,16.67Zm0-12.4a3.9,3.9,0,1,1-3.89,3.9A3.9,3.9,0,0,1,1641,95Z"/><path d="M1512.3,92.68a8.49,8.49,0,1,0,8.14,10.76h9l110.85,111.34V287h4.57V212.88L1532,99.52l-.67-.67h-10.93A8.47,8.47,0,0,0,1512.3,92.68Zm0,12.4a3.9,3.9,0,1,1,3.89-3.9A3.9,3.9,0,0,1,1512.3,105.08Z"/><path d="M1529.74,125.95a8.46,8.46,0,1,0-10.75,8.17v33.95l75.83,76.17v28h4.57V242.33l-75.83-76.17v-32A8.5,8.5,0,0,0,1529.74,125.95Zm-12.34,0a3.89,3.89,0,1,1,3.89,3.9A3.9,3.9,0,0,1,1517.39,125.95Z"/><path d="M1547.42,159.69a8.49,8.49,0,0,0,0,17,8.38,8.38,0,0,0,4.82-1.53l58.78,59V351.7l-26.69,26.81h-15.66V335.77a8.46,8.46,0,1,0-4.57,0v47.33h22.12l29.37-29.5V232.29l-60.43-60.7a8.49,8.49,0,0,0-7.74-11.9Zm15.05,167.91a3.89,3.89,0,1,1,3.89,3.9A3.9,3.9,0,0,1,1562.48,327.6Zm-15.05-155.52a3.9,3.9,0,1,1,3.89-3.9A3.9,3.9,0,0,1,1547.42,172.08Z"/><path d="M1566.36,312.68a8.49,8.49,0,1,0-8.46-8.49A8.49,8.49,0,0,0,1566.36,312.68Zm0-12.4a3.9,3.9,0,1,1-3.89,3.9A3.9,3.9,0,0,1,1566.36,300.28Z"/><path d="M1566.36,266.56a8.49,8.49,0,1,0-8.46-8.49A8.49,8.49,0,0,0,1566.36,266.56Zm0-12.4a3.9,3.9,0,1,1-3.89,3.9A3.9,3.9,0,0,1,1566.36,254.16Z"/><path d="M1597.11,353.18a8.49,8.49,0,1,0-8.46-8.49A8.49,8.49,0,0,0,1597.11,353.18Zm0-12.4a3.9,3.9,0,1,1-3.89,3.9A3.9,3.9,0,0,1,1597.11,340.78Z"/><path d="M1605.57,285.53a8.46,8.46,0,1,0-8.46,8.49A8.49,8.49,0,0,0,1605.57,285.53Zm-8.46,3.9a3.9,3.9,0,1,1,3.89-3.9A3.9,3.9,0,0,1,1597.11,289.43Z"/><path d="M1522.45,294a8.49,8.49,0,0,0,0-17,8.36,8.36,0,0,0-3.54.79l-4-4-3.23,3.25,3.74,3.76a8.5,8.5,0,0,0,7,13.21Zm3.89-8.49a3.89,3.89,0,1,1-3.89-3.9A3.9,3.9,0,0,1,1526.34,285.53Z"/><rect x="1594.81" y="299.92" width="4.57" height="30.69"/><path d="M1630,223.21l-80.67-81a8.45,8.45,0,1,0-7.87,5.4,8.38,8.38,0,0,0,5.07-1.71l78.89,79.25V319.4H1630ZM1541.5,143a3.9,3.9,0,1,1,3.89-3.9A3.9,3.9,0,0,1,1541.5,143Z"/><rect x="1532.55" y="38.07" width="4.57" height="6.91"/><rect x="1532.55" y="51.88" width="4.57" height="6.91"/><rect x="1532.55" y="24.25" width="4.57" height="6.91"/><rect x="1532.55" y="65.69" width="4.57" height="6.91"/><rect x="1532.55" y="10.44" width="4.57" height="6.91"/><rect x="1657.35" y="234.8" width="4.57" height="6.91"/><rect x="1657.35" y="220.98" width="4.57" height="6.91"/><polygon points="1550.78 92.64 1545.92 87.76 1542.69 91.01 1547.55 95.89 1550.78 92.64"/><polygon points="1604.27 146.37 1601.04 149.61 1605.9 154.5 1609.13 151.25 1604.27 146.37"/><polygon points="1613.99 156.13 1610.76 159.38 1615.62 164.27 1618.86 161.02 1613.99 156.13"/><polygon points="1594.54 136.6 1591.31 139.85 1596.17 144.73 1599.4 141.48 1594.54 136.6"/><polygon points="1541.06 82.88 1536.45 78.25 1535.19 79.51 1532.55 79.51 1532.55 80.82 1537.83 86.12 1541.06 82.88"/><rect x="1657.35" y="248.61" width="4.57" height="6.91"/><rect x="1657.35" y="207.17" width="4.57" height="6.91"/><polygon points="1643.17 185.44 1639.93 188.69 1644.8 193.57 1648.03 190.32 1643.17 185.44"/><rect x="1532.55" width="4.57" height="3.53"/><polygon points="1584.82 126.83 1581.59 130.08 1586.45 134.96 1589.68 131.72 1584.82 126.83"/><polygon points="1575.09 117.06 1571.86 120.31 1576.72 125.19 1579.96 121.95 1575.09 117.06"/><polygon points="1623.72 165.9 1620.48 169.15 1625.35 174.03 1628.58 170.79 1623.72 165.9"/><polygon points="1565.37 107.3 1562.14 110.54 1567 115.43 1570.23 112.18 1565.37 107.3"/><polygon points="1555.64 97.53 1552.41 100.77 1557.28 105.66 1560.51 102.41 1555.64 97.53"/><polygon points="1633.44 175.67 1630.21 178.92 1635.07 183.8 1638.3 180.56 1633.44 175.67"/><polygon points="1649.66 198.45 1654.52 203.34 1657.75 200.09 1652.89 195.21 1649.66 198.45"/><rect x="1657.35" y="262.42" width="4.57" height="3.44"/><path d="M1199.48,294.11a8.49,8.49,0,1,0-8.46-8.49A8.49,8.49,0,0,0,1199.48,294.11Zm0-12.4a3.9,3.9,0,1,1-3.89,3.9A3.9,3.9,0,0,1,1199.48,281.72Z"/><path d="M1199.48,266.65a8.49,8.49,0,1,0-8.46-8.49A8.49,8.49,0,0,0,1199.48,266.65Zm0-12.4a3.9,3.9,0,1,1-3.89,3.9A3.9,3.9,0,0,1,1199.48,254.25Z"/><path d="M1199.48,353.28a8.49,8.49,0,1,0-8.46-8.49A8.49,8.49,0,0,0,1199.48,353.28Zm0-12.4a3.9,3.9,0,1,1-3.89,3.9A3.9,3.9,0,0,1,1199.48,340.88Z"/><path d="M1265.93,323.11a8.49,8.49,0,1,0,8.46,8.49A8.49,8.49,0,0,0,1265.93,323.11Zm0,12.4a3.9,3.9,0,1,1,3.89-3.9A3.9,3.9,0,0,1,1265.93,335.51Z"/><rect x="1197.19" y="299.69" width="4.57" height="30.69"/><polygon points="1201.76 387.98 1201.76 358.09 1197.19 358.09 1197.19 386.07 1170.5 412.88 1170.5 419.37 1201.09 388.65 1201.76 387.98"/><path d="M1222.22,398V242.15H1264v1.6h4.57v-1.6h27.11a8.49,8.49,0,1,0,0-4.59H1170.5v4.59h47.14v154l-47.14,47.36V450l51-51.27Zm81.58-162a3.9,3.9,0,1,1-3.89,3.9A3.9,3.9,0,0,1,1303.8,236Z"/><polygon points="1236.65 407.09 1236.65 310.91 1232.08 310.91 1232.08 405.19 1187.47 450 1193.93 450 1235.98 407.76 1236.65 407.09"/><path d="M1251.51,417.42V281.58a8.46,8.46,0,1,0-4.57,0V415.52L1212.61,450h6.46l31.76-31.9Zm-6.21-144a3.89,3.89,0,1,1,3.89,3.9A3.9,3.9,0,0,1,1245.3,273.42Z"/><rect x="1263.97" y="385.59" width="4.57" height="6.97"/><rect x="1263.97" y="371.65" width="4.57" height="6.97"/><rect x="1263.97" y="357.71" width="4.57" height="6.97"/><rect x="1263.97" y="399.53" width="4.57" height="6.97"/><rect x="1263.97" y="413.47" width="4.57" height="6.97"/><polygon points="1238.47 449.75 1238.72 450 1244.68 450 1246.6 448.06 1243.37 444.82 1238.47 449.75"/><polygon points="1248.28 439.89 1251.51 443.13 1256.42 438.21 1253.18 434.96 1248.28 439.89"/><polygon points="1258.09 430.03 1261.32 433.28 1266.23 428.35 1263 425.1 1258.09 430.03"/><rect x="1263.97" y="347.3" width="4.57" height="3.44"/><path d="M1772.38,118.85a8.51,8.51,0,1,0,7.87,5.4l30.26-30.39V87.37l-33.05,33.2A8.38,8.38,0,0,0,1772.38,118.85Zm0,12.4a3.9,3.9,0,1,1,3.89-3.9A3.9,3.9,0,0,1,1772.38,131.25Z"/><path d="M1778.31,89.76a8.5,8.5,0,1,0,7.74,5.09l24.45-24.56V63.79l-27.37,27.49A8.38,8.38,0,0,0,1778.31,89.76Zm0,12.4a3.9,3.9,0,1,1,3.89-3.9A3.9,3.9,0,0,1,1778.31,102.16Z"/><path d="M1745.62,98.37v33.95a8.46,8.46,0,1,0,4.57,0v-32l60.31-60.58V33.2Zm6.18,42.12a3.89,3.89,0,1,1-3.89-3.9A3.9,3.9,0,0,1,1751.8,140.49Z"/><path d="M1751.33,163a8.49,8.49,0,1,0,0,4.59h10.93l48.26-48.47v-6.49L1760.35,163Zm-8.14,6.17a3.9,3.9,0,1,1,3.89-3.9A3.9,3.9,0,0,1,1743.18,169.16Z"/><path d="M1763.43,202.7h-9.86l-39.19-39.37V128.74L1703,117.29h-23.67a8.49,8.49,0,1,0,0,4.59h21.79l8.72,8.76v34.59l41.87,42.06H1778a8.5,8.5,0,1,0,0-4.59H1768v-.89h-4.57Zm-92.25-79.23a3.9,3.9,0,1,1,3.89-3.9A3.9,3.9,0,0,1,1671.17,123.47Zm114.91,77.62a3.9,3.9,0,1,1-3.89,3.9A3.9,3.9,0,0,1,1786.08,201.09Z"/><rect x="1763.43" y="193.94" width="4.57" height="3.93"/><polygon points="1768 187.52 1769.76 185.75 1766.52 182.51 1763.43 185.62 1763.43 190.01 1768 190.01 1768 187.52"/><polygon points="1785.41 163.54 1780.69 168.28 1783.92 171.53 1788.64 166.78 1785.41 163.54"/><polygon points="1810.5 141.31 1810.5 138.34 1809.02 139.82 1810.5 141.31"/><polygon points="1804.3 144.56 1799.58 149.31 1802.81 152.55 1807.53 147.81 1804.3 144.56"/><polygon points="1798.09 157.3 1794.85 154.05 1790.13 158.79 1793.37 162.04 1798.09 157.3"/><polygon points="1775.97 173.02 1771.24 177.76 1774.48 181.01 1779.2 176.27 1775.97 173.02"/><rect x="1263.97" y="314.65" width="4.57" height="3.44"/><rect x="1263.97" y="288.87" width="4.57" height="6.44"/><rect x="1263.97" y="301.76" width="4.57" height="6.45"/><rect x="1263.97" y="275.98" width="4.57" height="6.45"/><rect x="1263.97" y="263.09" width="4.57" height="6.44"/><rect x="1263.97" y="250.19" width="4.57" height="6.45"/><polygon points="1702.67 308.38 1707.25 308.38 1707.25 201.59 1580.55 74.33 1580.55 0 1575.98 0 1575.98 76.23 1702.67 203.49 1702.67 308.38"/><rect x="1493.23" y="200.18" width="4.57" height="6.89"/><rect x="1493.23" y="213.95" width="4.57" height="6.89"/><rect x="1493.23" y="172.62" width="4.57" height="6.89"/><rect x="1493.23" y="103.75" width="4.57" height="6.89"/><rect x="1493.23" y="89.97" width="4.57" height="6.89"/><rect x="1493.23" y="131.3" width="4.57" height="6.89"/><rect x="1493.23" y="145.07" width="4.57" height="6.89"/><rect x="1493.23" y="186.4" width="4.57" height="6.89"/><rect x="1493.23" y="227.73" width="4.57" height="6.89"/><polygon points="1497.81 82.63 1499.63 82.63 1499.63 78.03 1493.23 78.03 1493.23 83.08 1497.81 83.08 1497.81 82.63"/><rect x="1493.23" y="158.85" width="4.57" height="6.89"/><polygon points="1505.22 264.07 1501.98 267.31 1506.83 272.18 1510.07 268.94 1505.22 264.07"/><polygon points="1493.23 258.52 1497.14 262.44 1500.37 259.2 1497.81 256.62 1497.81 255.28 1493.23 255.28 1493.23 258.52"/><rect x="1493.23" y="117.52" width="4.57" height="6.89"/><rect x="1493.23" y="241.5" width="4.57" height="6.89"/><path d="M1476.32,277.39a8.47,8.47,0,1,0,4.57-.07V66.47l40.69.09V0H1517V62l-40.69-.09Zm6.3,8.14a3.89,3.89,0,1,1-3.89-3.9A3.9,3.9,0,0,1,1482.62,285.53Z"/><path d="M1277.24,190.34a8.47,8.47,0,0,0-8.15,6.27H1199a8.49,8.49,0,1,0-.06,4.59h70.23a8.46,8.46,0,1,0,8.12-10.86Zm-86.45,12.36a3.9,3.9,0,1,1,3.89-3.9A3.9,3.9,0,0,1,1190.79,202.7Zm86.45,0a3.9,3.9,0,1,1,3.89-3.9A3.9,3.9,0,0,1,1277.24,202.73Z"/><path d="M1295.37,194.16A8.46,8.46,0,1,0,1306.3,186v-1.61h-4.57v1.51A8.49,8.49,0,0,0,1295.37,194.16Zm8.46-3.9a3.9,3.9,0,1,1-3.89,3.9A3.9,3.9,0,0,1,1303.82,190.26Z"/><path d="M1222.72,89.44a8.46,8.46,0,1,0,8.46-8.49A8.49,8.49,0,0,0,1222.72,89.44Zm12.34,0a3.89,3.89,0,1,1-3.89-3.9A3.9,3.9,0,0,1,1235.06,89.44Z"/><ellipse cx="1251.97" cy="89.44" rx="8.46" ry="8.49"/><path d="M1276.84,89.44a8.46,8.46,0,1,0,8.46-8.49A8.49,8.49,0,0,0,1276.84,89.44Zm12.34,0a3.89,3.89,0,1,1-3.89-3.9A3.9,3.9,0,0,1,1289.19,89.44Z"/><path d="M1191.3,117.88a8.5,8.5,0,0,0-6.14-8.16v-4.95h-4.57v4.93a8.49,8.49,0,1,0,10.71,8.18Zm-8.46,3.9a3.9,3.9,0,1,1,3.89-3.9A3.9,3.9,0,0,1,1182.84,121.78Z"/><path d="M1177.07,227.56a8.47,8.47,0,0,0,8.14-6.23h97.66a8.49,8.49,0,1,0,.05-4.59h-97.73a8.43,8.43,0,0,0-14.69-3v10.69A8.43,8.43,0,0,0,1177.07,227.56Zm114-12.33a3.9,3.9,0,1,1-3.89,3.9A3.9,3.9,0,0,1,1291,215.23Zm-114-.07a3.9,3.9,0,1,1-3.89,3.9A3.9,3.9,0,0,1,1177.07,215.16Z"/><rect x="1301.73" y="143.51" width="4.57" height="6.82"/><rect x="1301.73" y="170.79" width="4.57" height="6.82"/><rect x="1301.73" y="157.15" width="4.57" height="6.82"/><polygon points="1306.3 130.94 1300.59 130.94 1300.59 135.53 1301.73 135.53 1301.73 136.68 1306.3 136.68 1306.3 130.94"/><rect x="1260.41" y="130.94" width="6.7" height="4.59"/><rect x="1220.24" y="130.94" width="6.7" height="4.59"/><rect x="1273.8" y="130.94" width="6.7" height="4.59"/><rect x="1287.2" y="130.94" width="6.7" height="4.59"/><rect x="1247.02" y="130.94" width="6.7" height="4.59"/><rect x="1233.63" y="130.94" width="6.7" height="4.59"/><rect x="1206.85" y="130.94" width="6.7" height="4.59"/><rect x="1193.45" y="130.94" width="6.7" height="4.59"/><polygon points="1179.29 134.05 1182.52 137.3 1184.28 135.53 1186.76 135.53 1186.76 130.94 1182.38 130.94 1179.29 134.05"/><polygon points="1177.59 142.25 1174.36 139 1170.5 142.88 1170.5 145.02 1172.66 147.2 1177.59 142.25"/><path d="M1267.79,156.66a8.48,8.48,0,1,0,.09-4.59H1187l-16.48,16v6.39l18.33-17.81Zm8.18-6a3.9,3.9,0,1,1-3.89,3.9A3.9,3.9,0,0,1,1276,150.63Z"/><path d="M1267.86,179.16a8.5,8.5,0,1,0-.06-4.59H1187l-16.45,16.53v6.49l18.35-18.43Zm8.11-6.31a3.9,3.9,0,1,1-3.89,3.9A3.9,3.9,0,0,1,1276,172.84Z"/><path d="M1729.81,367.82h-4.92v4.59h4.91a8.49,8.49,0,1,0,0-4.59Zm12,2.33a3.89,3.89,0,1,1-3.89-3.9A3.9,3.9,0,0,1,1741.83,370.14Z"/><path d="M1739.68,407.24a8.49,8.49,0,0,0-2.29,16.66V450H1742V423.9a8.49,8.49,0,0,0-2.28-16.67Zm0,12.4a3.9,3.9,0,1,1,3.89-3.9A3.9,3.9,0,0,1,1739.68,419.63Z"/><path d="M1768.35,428.87a8.46,8.46,0,1,0-8.46,8.49,8.38,8.38,0,0,0,5.07-1.71L1779.25,450h6.46l-18-18A8.47,8.47,0,0,0,1768.35,428.87Zm-8.46,3.9a3.9,3.9,0,1,1,3.89-3.9A3.9,3.9,0,0,1,1759.9,432.77Z"/><path d="M1749.76,388.63h-10.93a8.5,8.5,0,1,0,0,4.59h9L1804.39,450h6.11v-.36l-60.07-60.34Zm-19.06,6.23a3.9,3.9,0,1,1,3.89-3.9A3.9,3.9,0,0,1,1730.7,394.86Z"/><path d="M1725.95,96.29a8.46,8.46,0,1,0,4.57,0V62.35l-51.66-51.89V0h-4.57V12.36l51.66,51.89Zm6.16,8.17a3.89,3.89,0,1,1-3.89-3.9A3.9,3.9,0,0,1,1732.11,104.46Z"/><path d="M1728.3,29.09a8.5,8.5,0,1,0,0-4.59H1714L1698.33,8.74V0h-4.57V10.64l18.37,18.45Zm8.13-6.23a3.9,3.9,0,1,1-3.89,3.9A3.9,3.9,0,0,1,1736.43,22.86Z"/><rect x="1762.72" y="246.13" width="6.06" height="4.59"/><rect x="1774.84" y="246.13" width="6.06" height="4.59"/><rect x="1786.95" y="246.13" width="6.06" height="4.59"/><rect x="1799.07" y="246.13" width="6.06" height="4.59"/><polygon points="1755.52 250.72 1756.66 250.72 1756.66 246.13 1750.95 246.13 1750.95 251.87 1755.52 251.87 1755.52 250.72"/><rect x="1750.95" y="326.46" width="4.57" height="6.78"/><rect x="1750.95" y="353.58" width="4.57" height="6.78"/><rect x="1750.95" y="340.02" width="4.57" height="6.78"/><rect x="1750.95" y="312.9" width="4.57" height="6.78"/><polygon points="1750.95 370.6 1754.62 374.29 1757.85 371.05 1755.52 368.7 1755.52 367.14 1750.95 367.14 1750.95 370.6"/><rect x="1750.95" y="299.33" width="4.57" height="6.78"/><polygon points="1762.63 375.84 1759.39 379.09 1764.17 383.88 1767.4 380.63 1762.63 375.84"/><polygon points="1781.72 395.02 1778.49 398.27 1783.26 403.06 1786.49 399.81 1781.72 395.02"/><polygon points="1807.13 427.03 1810.5 430.42 1810.5 423.93 1810.36 423.79 1807.13 427.03"/><polygon points="1772.17 385.43 1768.94 388.68 1773.71 393.47 1776.95 390.23 1772.17 385.43"/><polygon points="1800.81 414.2 1797.58 417.44 1802.35 422.24 1805.59 418.99 1800.81 414.2"/><polygon points="1791.27 404.61 1788.03 407.86 1792.81 412.65 1796.04 409.4 1791.27 404.61"/><rect x="1750.95" y="258.65" width="4.57" height="6.78"/><rect x="1750.95" y="285.77" width="4.57" height="6.78"/><rect x="1750.95" y="272.21" width="4.57" height="6.78"/><path d="M1776.55,284.82a8.44,8.44,0,1,0-4.57-.09V366l38.52,38.7v-6.49l-34-34.1Zm-6-8.22a3.89,3.89,0,1,1,3.89,3.9A3.9,3.9,0,0,1,1770.55,276.6Z"/><path d="M1798.95,284.74a8.47,8.47,0,1,0-4.57.06V366l16.12,16.2v-6.49l-11.55-11.6Zm-6.28-8.14a3.89,3.89,0,1,1,3.89,3.9A3.9,3.9,0,0,1,1792.66,276.6Z"/><rect x="1711.63" y="407.31" width="4.57" height="6.89"/><rect x="1711.63" y="393.53" width="4.57" height="6.89"/><polygon points="1711.63 372.87 1716.2 372.87 1716.2 372.41 1718.03 372.41 1718.03 367.82 1711.63 367.82 1711.63 372.87"/><rect x="1711.63" y="448.63" width="4.57" height="1.37"/><rect x="1711.63" y="379.75" width="4.57" height="6.89"/><rect x="1711.63" y="434.86" width="4.57" height="6.89"/><rect x="1711.63" y="421.08" width="4.57" height="6.89"/><path d="M1740,250.41a8.45,8.45,0,1,0-4.57,0V351.74h-40.69V450h4.57V356.34H1740Zm-6.12-8.18a3.89,3.89,0,1,1,3.89,3.9A3.9,3.9,0,0,1,1733.86,242.23Z"/><path d="M1458,36.65a8.47,8.47,0,0,0,8.13-6.17H1471V25.89h-4.91A8.46,8.46,0,1,0,1458,36.65Zm0-12.4a3.9,3.9,0,1,1-3.89,3.9A3.9,3.9,0,0,1,1458,24.25Z"/><path d="M1446.15,9.67h10.93A8.46,8.46,0,1,0,1469.45,0H1461a8.51,8.51,0,0,0-3.9,5.07h-9L1443,0h-6.46l9,9Zm19.06-6.23a3.9,3.9,0,1,1-3.89,3.9A3.9,3.9,0,0,1,1465.21,3.44Z"/><rect x="1440.39" y="81.51" width="4.57" height="3.44"/><rect x="1440.39" y="39.15" width="4.57" height="7.06"/><rect x="1440.39" y="53.27" width="4.57" height="7.06"/><rect x="1440.39" y="67.39" width="4.57" height="7.06"/><polygon points="1444.96 27.7 1441.87 24.59 1438.64 27.84 1440.39 29.6 1440.39 32.09 1444.96 32.09 1444.96 27.7"/><polygon points="1427.47 10.13 1422.68 5.31 1419.44 8.56 1424.24 13.38 1427.47 10.13"/><polygon points="1437.07 19.77 1432.27 14.95 1429.04 18.2 1433.84 23.02 1437.07 19.77"/><polygon points="1417.88 0.49 1417.39 0 1410.92 0 1414.65 3.74 1417.88 0.49"/><path d="M1419.36,113.48a8.44,8.44,0,1,0,4.57.09V32.29L1391.79,0h-6.46l34,34.19Zm6,8.22a3.89,3.89,0,1,1-3.89-3.9A3.9,3.9,0,0,1,1425.36,121.7Z"/><path d="M1397,113.55a8.47,8.47,0,1,0,4.57-.06V32.29L1369.39,0h-6.46l34,34.19Zm6.28,8.14a3.89,3.89,0,1,1-3.89-3.9A3.9,3.9,0,0,1,1403.25,121.7Z"/><polygon points="1484.28 25.43 1479.7 25.43 1479.7 25.89 1477.88 25.89 1477.88 30.48 1484.28 30.48 1484.28 25.43"/><rect x="1479.71" width="4.57" height="4.77"/><rect x="1479.71" y="11.66" width="4.57" height="6.89"/><path d="M1455.93,92a8.45,8.45,0,1,0,4.57,0V46.56h40.69V0h-4.57V42h-40.69Zm6.12,8.18a3.89,3.89,0,1,1-3.89-3.9A3.9,3.9,0,0,1,1462,100.17Z"/><ellipse cx="1358.1" cy="42.78" rx="8.46" ry="8.49"/><path d="M1335.86,28.94a8.49,8.49,0,1,0-8.46-8.49A8.49,8.49,0,0,0,1335.86,28.94Zm0-12.4a3.9,3.9,0,1,1-3.89,3.9A3.9,3.9,0,0,1,1335.86,16.55Z"/><path d="M1365.32,58.53a8.46,8.46,0,1,0,8.46-8.49A8.49,8.49,0,0,0,1365.32,58.53Zm12.34,0a3.89,3.89,0,1,1-3.89-3.9A3.9,3.9,0,0,1,1377.66,58.53Z"/><path d="M1209.06,23.71a8.47,8.47,0,0,0,7.82-5.27h77.7l53.67,53.91v24a8.46,8.46,0,1,0,4.57,0V70.44l-56.35-56.6H1217.4a8.46,8.46,0,1,0-8.34,9.86Zm145.36,80.84a3.89,3.89,0,1,1-3.89-3.9A3.9,3.9,0,0,1,1354.43,104.54ZM1209.06,11.31a3.9,3.9,0,1,1-3.89,3.9A3.9,3.9,0,0,1,1209.06,11.31Z"/><path d="M1330.57,77.93v34.59L1342,124h23.67a8.49,8.49,0,1,0,0-4.59h-21.78l-8.72-8.76V76l-22.39-22.49v-.22h-.22L1293.27,34h-54a8.5,8.5,0,1,0,0,4.59h52.07l14.69,14.75H1170.5v4.59h140.14Zm43.2,39.86a3.9,3.9,0,1,1-3.89,3.9A3.9,3.9,0,0,1,1373.78,117.79ZM1231.16,40.23a3.9,3.9,0,1,1,3.89-3.9A3.9,3.9,0,0,1,1231.16,40.23Z"/><polygon points="1185.16 97.88 1185.16 91.45 1180.13 91.45 1180.13 96.05 1180.59 96.05 1180.59 97.88 1185.16 97.88"/><rect x="1170.5" y="91.45" width="2.77" height="4.59"/><path d="M1196.58,119.92H1302a8.49,8.49,0,1,0,0-4.59h-100.9l.09-40.87H1170.5v4.59h26.17Zm113.61-6.14a3.9,3.9,0,1,1-3.89,3.9A3.9,3.9,0,0,1,1310.19,113.78Z"/><path d="M1696.7,168.92v-24a8.46,8.46,0,1,0-4.57,0v25.93l55.68,55.93.67.67h62v-4.59h-60.13Zm-6.17-32.2a3.89,3.89,0,1,1,3.89,3.9A3.9,3.9,0,0,1,1690.53,136.72Z"/><ellipse cx="1689.36" cy="66.58" rx="8.46" ry="8.49"/><path d="M1667.12,52.74a8.49,8.49,0,1,0-8.46-8.49A8.49,8.49,0,0,0,1667.12,52.74Zm0-12.4a3.9,3.9,0,1,1-3.89,3.9A3.9,3.9,0,0,1,1667.12,40.35Z"/><path d="M1705,90.83a8.49,8.49,0,1,0-8.46-8.49A8.49,8.49,0,0,0,1705,90.83Zm0-12.4a3.9,3.9,0,1,1-3.89,3.9A3.9,3.9,0,0,1,1705,78.43Z"/></g><polygon class="cls-2" points="2341 470 0 470 0 405 1170.5 445 2341 405 2341 470"/></svg>