<svg id="Layer_1" data-name="Layer 1" xmlns="http://www.w3.org/2000/svg" viewBox="0 0 530 200"><defs><style>.cls-1{fill:#fff;}</style></defs><title>skycabit_white</title><path class="cls-1" d="M15,133.95l3.6-8.76a34.94,34.94,0,0,0,21.72,7.2q6.24,0,9.48-2.1a6.68,6.68,0,0,0,3.24-5.94,6.3,6.3,0,0,0-2.22-5.1q-2.22-1.86-7.5-3.18l-10.08-2.4q-7.92-1.68-12.06-5.94a14.63,14.63,0,0,1-4.14-10.62,15.88,15.88,0,0,1,6.54-13.2q6.54-5,17.34-5a36.93,36.93,0,0,1,12.3,2,28.51,28.51,0,0,1,9.9,5.76l-3.72,8.52q-8.76-7-18.48-7-5.88,0-9.12,2.22a7.08,7.08,0,0,0-3.24,6.18,6.59,6.59,0,0,0,2,5,14.4,14.4,0,0,0,6.48,3l10.32,2.52q8.64,1.92,12.78,6.06A14.53,14.53,0,0,1,64.36,124a15.09,15.09,0,0,1-6.54,12.9q-6.54,4.74-17.82,4.74Q24.16,141.63,15,133.95Z"/><path class="cls-1" d="M132.22,140.79H116.74L87.82,112.23v28.56h-12V52.47h12v55.2L114.7,80.43h15l-28.92,29Z"/><path class="cls-1" d="M197.17,80.3,169,145.71q-4.68,10.68-11.7,15.66A40.93,40.93,0,0,1,139.93,168l-2.64-9.36q8.52-1.92,12.9-5a20.94,20.94,0,0,0,7-9.18l2.16-5L133.93,80.3h12.84l19,46.8,19.32-46.8Z"/><path class="cls-1" d="M212.65,137.79a25.65,25.65,0,0,1-10.38-10.86,35.44,35.44,0,0,1-3.6-16.38A35.09,35.09,0,0,1,202.45,94a27.2,27.2,0,0,1,10.62-11.16,31.28,31.28,0,0,1,16-4A36.16,36.16,0,0,1,241.27,81a25.14,25.14,0,0,1,9.48,5.7L247,95.43q-8.52-6.72-17.16-6.72t-13.68,5.7q-4.92,5.7-4.92,16t4.92,15.9q4.92,5.58,13.68,5.58T247,125.19l3.72,8.76a26.79,26.79,0,0,1-9.78,5.64,38,38,0,0,1-12.42,2A31.7,31.7,0,0,1,212.65,137.79Z"/><path class="cls-1" d="M314.72,80.3v60.48h-12V130.46a18.53,18.53,0,0,1-7.86,8.28,24.81,24.81,0,0,1-12.18,2.88,24.91,24.91,0,0,1-23.52-14.7,37.55,37.55,0,0,1-3.36-16.38A38.15,38.15,0,0,1,259.22,94a26.41,26.41,0,0,1,9.54-11.16,25,25,0,0,1,13.92-4A24.09,24.09,0,0,1,294.8,81.8a19.73,19.73,0,0,1,7.92,8.34V80.3Zm-16.5,46q4.5-5.7,4.5-16t-4.5-16.08q-4.5-5.64-12.78-5.64t-12.78,5.82Q268,100.23,268,110.54t4.62,15.84q4.62,5.64,12.9,5.64T298.22,126.33Z"/><path class="cls-1" d="M375.51,82.71A25.39,25.39,0,0,1,385,93.63a38,38,0,0,1,3.36,16.44,37.77,37.77,0,0,1-3.42,16.5,26.5,26.5,0,0,1-9.54,11.1,25.07,25.07,0,0,1-13.92,4,24.39,24.39,0,0,1-12.18-2.94,18.73,18.73,0,0,1-7.86-8.46v10.56h-12V52.47h12v37.8a19.22,19.22,0,0,1,7.86-8.4,24,24,0,0,1,12.18-3A25.87,25.87,0,0,1,375.51,82.71Zm-4.08,43.5q4.56-5.82,4.56-16.14t-4.56-15.84q-4.56-5.64-12.72-5.64t-12.78,5.64q-4.5,5.64-4.5,16.08t4.5,16.08q4.5,5.64,12.78,5.64T371.43,126.21Z"/><path class="cls-1" d="M508,46H417a12,12,0,0,0-12,12v91a12,12,0,0,0,12,12h91a12,12,0,0,0,12-12V58A12,12,0,0,0,508,46Zm-57.95,91.56h-10V87.16h10Zm.8-61.8h-11.7V65.16h11.7ZM490.45,95h-13.9v25.3q0,5.2,2.25,7.35a8.67,8.67,0,0,0,6.25,2.15,18.57,18.57,0,0,0,5.3-.8v8.2a23.67,23.67,0,0,1-7.5,1.1q-7.8,0-12.1-4.4t-4.3-12.8V95h-9.8v-7.8h9.8V74.56l10.1-3.5v16.1h13.9Z"/></svg>