<svg id="Layer_1" data-name="Layer 1" xmlns="http://www.w3.org/2000/svg" viewBox="0 0 192 192"><defs><style>.cls-1{fill:#eb6651;}.cls-2{fill:#fff;}</style></defs><title>skycabit_favicon</title><rect class="cls-1" width="192" height="192" rx="12" ry="12"/><path class="cls-2" d="M50,69.17c-3.62-1.84-7.85-.86-9.41,2.19s.15,7.05,3.77,8.89l14,7.11,5.65-11.08ZM61.85,45.85C58.23,44,54,45,52.45,48s.13,7,3.76,8.89l14,7.11L75.81,53Zm19.71,2L57.51,95l16,8.16.08-.15a27.42,27.42,0,0,0,2.54,1.48,26.5,26.5,0,0,0,24.06-47.22,26.29,26.29,0,0,0-2.7-1.19L97.6,56Zm33.91,45.73,0,.06a18.2,18.2,0,0,1,10.46,1.47,11.57,11.57,0,0,1,4.29,3.7c2.7,3.89,2.7,9.47-.23,15.28-.13.24-.27.51-.42.78l-.23.42c-.2.34-.41.72-.59,1.1a23.77,23.77,0,0,0-2.47,16,17.94,17.94,0,0,0,9.58,12.23,24.64,24.64,0,0,0,13,2.37,3.49,3.49,0,0,0,2.84-1.89,3.42,3.42,0,0,0,.37-1.84,3.48,3.48,0,0,0-3.72-3.21,17.71,17.71,0,0,1-9.29-1.62,11,11,0,0,1-6-7.57,17,17,0,0,1,1.88-11.36c.14-.29.29-.57.46-.86l.27-.47.51-1c3.75-7.33,4.28-15.79-.24-22.38A18.57,18.57,0,0,0,129,88.89a24.22,24.22,0,0,0-11.15-2.44A26.27,26.27,0,0,1,115.48,93.55Z"/></svg>