<svg id="icons" xmlns="http://www.w3.org/2000/svg" xmlns:xlink="http://www.w3.org/1999/xlink" viewBox="0 0 400 400"><defs><style>.cls-1{fill:none;}.cls-2{opacity:0.1;}.cls-3{fill:#fff;}.cls-4{clip-path:url(#clip-path);}</style><clipPath id="clip-path"><rect class="cls-1" x="271.16" y="290.45" width="37.71" height="52.4" transform="translate(-120.09 443.89) rotate(-64.75)"/></clipPath></defs><title>Skycabhr_community_pattern</title><g class="cls-2"><path class="cls-3" d="M15.66,45.36-12.12,56.47a2.14,2.14,0,0,0-1.19,2.78L-5,80.09A2.14,2.14,0,0,0-2.2,81.28L8.72,76.91l1.19,3L6.43,81.28a1.07,1.07,0,0,0,.79,2l12.9-5.16a1.07,1.07,0,0,0-.79-2L15.86,77.5l-1.19-3,10.91-4.37a2.14,2.14,0,0,0,1.19-2.78L18.44,46.55a2.14,2.14,0,0,0-2.78-1.19ZM11.89,79.09l-1.19-3,2-.79,1.19,3Zm12.9-10.92L-3,79.29l-1.59-4L23.2,64.21Zm-2.38-6L-5.37,73.34l-6-14.88L16.45,47.34Zm0,0"/></g><g class="cls-2"><path class="cls-3" d="M335.26-10.43,319-18a2.24,2.24,0,0,0-3,1.1L302.81,11.66a2.24,2.24,0,0,0,1.1,3l16.3,7.53a2.24,2.24,0,0,0,3-1.1L336.36-7.45a2.24,2.24,0,0,0-1.1-3ZM318-15.92l16.3,7.53-1.88,4.07-16.3-7.53ZM331.5-2.28,324,14l-16.3-7.53,7.53-16.3ZM304.84,12.6l1.88-4.07L323,16.06l-1.88,4.07Zm0,0"/></g><g class="cls-2"><g class="cls-4"><path class="cls-3" d="M313.71,319.65l-16.42-7.74a15.68,15.68,0,1,0-25,9.93l1.85,5.15a1.69,1.69,0,0,0,3.13.15l1.16-2.45a15.81,15.81,0,0,0,1.91.31l0,.1a3.45,3.45,0,0,0,1.65,4.58l5.23,2.47,1.47,4.1a1.44,1.44,0,0,0,2.65.13l.88-1.87,11.91,5.62a3.45,3.45,0,0,0,4.58-1.65l6.71-14.24a3.45,3.45,0,0,0-1.65-4.58Zm-35.55,3.29a.82.82,0,0,0-1,.44l-1.44,3.06a.05.05,0,0,1-.1,0L273.73,321a.81.81,0,0,0-.28-.38,14.05,14.05,0,0,1,12.87-24.59,14.76,14.76,0,0,1,1.51.61,13.89,13.89,0,0,1,6.93,7.22,14,14,0,0,1-16.59,19Zm29,14.83a1.81,1.81,0,0,1-2.4.86l-12.66-6a.82.82,0,0,0-1.09.39l-1,2.16-1.42-4a.82.82,0,0,0-.42-.46l-5.54-2.61a1.81,1.81,0,0,1-.86-2.4l.34-.72a15.66,15.66,0,0,0,14.84-11.51L313,321.13a1.81,1.81,0,0,1,.86,2.4Zm0,0"/></g><path class="cls-3" d="M308.36,324.15a.82.82,0,0,0-1-.49l-10.87,3.9-1.81-5a.82.82,0,1,0-1.54.55l2.09,5.82a.82.82,0,0,0,1,.49l11.64-4.18a.82.82,0,0,0,.49-1Zm0,0"/><path class="cls-3" d="M279.18,315h0a.82.82,0,0,0-1.09.39h0a.82.82,0,0,0,.39,1.09h0a.82.82,0,0,0,1.09-.39h0a.82.82,0,0,0-.39-1.09Zm0,0"/><path class="cls-3" d="M287.79,305.26a5.17,5.17,0,0,0-9.56-.47.82.82,0,1,0,1.48.7,3.56,3.56,0,0,1,4.73-1.7,3.62,3.62,0,0,1,1.7,4.73,3.57,3.57,0,0,1-3.74,2,2.56,2.56,0,0,0-2.71,1.44l-.11.24a.82.82,0,1,0,1.48.7l.11-.24a.93.93,0,0,1,1-.51,5.23,5.23,0,0,0,5.47-2.92,5.15,5.15,0,0,0,.16-4Zm0,0"/></g><g class="cls-2"><path class="cls-3" d="M33.29,333.08H-20.55a5.32,5.32,0,0,0-5.32,5.32v21.54a5.32,5.32,0,0,0,5.32,5.32h19L4.14,371a3.16,3.16,0,0,0,4.47,0l5.72-5.72h19a5.32,5.32,0,0,0,5.32-5.32V338.4a5.32,5.32,0,0,0-5.32-5.32Zm3.3,26.85a3.3,3.3,0,0,1-3.3,3.3H13.91a1,1,0,0,0-.73.32l-6,6a1.14,1.14,0,0,1-1.62,0l-6-6a1,1,0,0,0-.74-.32H-20.55a3.3,3.3,0,0,1-3.3-3.3V338.4a3.3,3.3,0,0,1,3.3-3.3H33.29a3.3,3.3,0,0,1,3.3,3.3Zm0,0"/><path class="cls-3" d="M17.14,354.62H10.68a.07.07,0,0,1-.07-.07V342.71a1,1,0,1,0-2,0v11.84a2.09,2.09,0,0,0,2.09,2.09h6.46a1,1,0,1,0,0-2Zm0,0"/><path class="cls-3" d="M5.3,354.62H-1.17a.07.07,0,0,1-.07-.07v-4.37H3.14a1,1,0,0,0,0-2H-1.23v-4.37a.07.07,0,0,1,.07-.07H5.3a1,1,0,0,0,0-2H-1.17a2.09,2.09,0,0,0-2.09,2.09v10.77a2.09,2.09,0,0,0,2.09,2.09H5.3a1,1,0,0,0,0-2Zm0,0"/><path class="cls-3" d="M24.68,341.7H21.45a2.09,2.09,0,0,0-2.09,2.09v11.84a1,1,0,1,0,2,0v-3.3h3.3a5.32,5.32,0,1,0,0-10.63Zm0,8.61h-3.3v-6.53a.07.07,0,0,1,.07-.07h3.23a3.3,3.3,0,1,1,0,6.59Zm0,0"/></g><g class="cls-2"><path class="cls-3" d="M280,55.52a2.37,2.37,0,0,1,.05,2.09c-.07.22-.19.62-.14.7a.7.7,0,0,1-.21,1h0a.7.7,0,0,1-1-.2,2.12,2.12,0,0,1,0-1.9c.14-.44.22-.74.11-.9a.7.7,0,0,0-1.18.76.71.71,0,1,1-1.19.77A2.12,2.12,0,0,1,280,55.52Zm.07,4.31a.7.7,0,0,0-.2,1h0a.69.69,0,0,0,1,.22.71.71,0,0,0-.77-1.19ZM270.8,71.75a.71.71,0,1,0,.77,1.19l0,0a.71.71,0,1,0-.77-1.19Zm2.07-1.34a.71.71,0,0,0,.77,1.19l0,0a.71.71,0,1,0-.77-1.19Zm11.34-20.83,4.34,6.7a3.41,3.41,0,0,1-1,4.73l-7.73,5-.38.24-.28.18c0,.07-.08.26-.13.44l-.06.24-.9,3.41a.73.73,0,0,1-1.3.22l-4.09-6.32-6.24,4a2,2,0,0,0-.61,2.79l4.34,6.7a2,2,0,0,0,2.78.56l8.63-5.58a.71.71,0,0,1,.51-.09l2.84.49-3.66-5.66a.71.71,0,1,1,1.19-.77l4.54,7a.7.7,0,0,1,0,.77.68.68,0,0,1-.21.2.72.72,0,0,1-.51.1l-4.16-.71-8.4,5.43a3.42,3.42,0,0,1-4.74-1L264.65,72a3.45,3.45,0,0,1,1-4.76l6.24-4-2.6-4a3.44,3.44,0,0,1,1.05-4.74l9.13-5.91a3.4,3.4,0,0,1,4.71,1Zm-1.19.77a2,2,0,0,0-2.75-.59l-9.13,5.91a2,2,0,0,0-.63,2.78l6.58,10.18.5-1.86c0-.09.05-.17.07-.24a1.79,1.79,0,0,1,1-1.48l.36-.23,7.73-5a2,2,0,0,0,.58-2.76Zm0,0"/></g><g class="cls-2"><path class="cls-3" d="M117.42,230.38l-6.09-5.14a1.8,1.8,0,0,0-1.16-.42H82.45v-3.73a4.87,4.87,0,0,0-4.86-4.86h-7a4.87,4.87,0,0,0-4.86,4.86v3.73H56.17a1.8,1.8,0,0,0-1.8,1.8v14.32a1.8,1.8,0,0,0,1.8,1.8h9.55v5.41H38a1.8,1.8,0,0,0-1.16.42l-6.1,5.14a4.45,4.45,0,0,0,0,6.8l6.1,5.14a1.79,1.79,0,0,0,1.16.42H65.72v38.64H58.38a1.8,1.8,0,1,0,0,3.6H89.79a1.8,1.8,0,1,0,0-3.6H82.45V279.35a1.8,1.8,0,1,0-3.6,0v25.37H69.32V266.08H91.95a1.8,1.8,0,0,0,1.8-1.8V250a1.8,1.8,0,0,0-1.8-1.8h-9.5v-5.41h27.71a1.8,1.8,0,0,0,1.16-.42l6.09-5.14a4.45,4.45,0,0,0,0-6.8Zm-48.1-9.29a1.26,1.26,0,0,1,1.26-1.26h7a1.27,1.27,0,0,1,1.26,1.26v3.73H69.32Zm20.83,30.67v10.73H38.61L33,257.77a.85.85,0,0,1,0-1.3l5.59-4.71Zm-20.83-3.6v-5.41h9.54v5.41Zm45.78-13.73-5.59,4.71H58V228.42h51.54l5.59,4.71a.85.85,0,0,1,0,1.3Zm0,0"/><path class="cls-3" d="M75.89,233.52a1.8,1.8,0,1,1-1.8-1.8,1.8,1.8,0,0,1,1.8,1.8Zm0,0"/><path class="cls-3" d="M75.89,257.12a1.8,1.8,0,1,1-1.8-1.8,1.8,1.8,0,0,1,1.8,1.8Zm0,0"/><path class="cls-3" d="M82.45,271.39a1.8,1.8,0,1,1-1.8-1.8,1.8,1.8,0,0,1,1.8,1.8Zm0,0"/></g><g class="cls-2"><path class="cls-3" d="M187.13,14.74a1.42,1.42,0,1,1-1.84-.72,1.4,1.4,0,0,1,1.84.72Zm0,0"/><path class="cls-3" d="M232.92-17l-.06-.13a5.89,5.89,0,0,0-7.74-3l-15.7,6.59A24.41,24.41,0,0,0,207.91-26c-.27-.67-.56-1.35-.87-2.07l-.63-1.49a5.52,5.52,0,0,0-7.24-2.85,5.62,5.62,0,0,0-3.05,3,5.16,5.16,0,0,0-.28,2.86,24.27,24.27,0,0,1,.45,5.07,33.89,33.89,0,0,1-4.16,15.62,33.2,33.2,0,0,1-2.34,3.64,4,4,0,0,0-4.65-1.13L164.86,5.14A1.4,1.4,0,0,0,164.09,7l13.8,32.89a1.4,1.4,0,0,0,1.84.72L200,32.06a4,4,0,0,0,2.3-4.81,15.2,15.2,0,0,0,10.42-.53L240,15.29a5.89,5.89,0,0,0,3.26-7.65,5.72,5.72,0,0,0-3.65-3.26,5.72,5.72,0,0,0,.23-4.89l-.07-.16a5.72,5.72,0,0,0-3.65-3.26,5.72,5.72,0,0,0,.23-4.89v0a5.72,5.72,0,0,0-3.65-3.26,5.72,5.72,0,0,0,.23-4.89ZM188.19.9,199.58,28a1.14,1.14,0,0,1-.63,1.48l-4.77,2-4.65-11.09a1.42,1.42,0,0,0-2.62,1.1l4.65,11.09L180,37.48,167.24,7.13l19-8a1.14,1.14,0,0,1,1.49.59ZM226-7.8l3.63-1.52a3.08,3.08,0,0,1,4.06,1.59v0a3.08,3.08,0,0,1-1.71,4l-3.63,1.52a1.4,1.4,0,0,0-.78,1.82,1.4,1.4,0,0,0,1.84.72l3.63-1.52A3.08,3.08,0,0,1,237.14.44l.07.16a3.08,3.08,0,0,1-1.71,4l-3.63,1.52a1.38,1.38,0,1,0,1.07,2.55l3.63-1.52a3,3,0,1,1,2.35,5.6L211.66,24.19a12.31,12.31,0,0,1-9.08.21l-1.72-.64L191.13.58a36.18,36.18,0,0,0,3.48-5.18,36.64,36.64,0,0,0,4.5-16.88,26.83,26.83,0,0,0-.49-5.64,2.4,2.4,0,0,1,.13-1.35,2.69,2.69,0,0,1,1.42-1.42l.06,0a2.71,2.71,0,0,1,3.56,1.4l.64,1.51c.3.71.59,1.37.84,2a21.85,21.85,0,0,1,.9,13.42,1.35,1.35,0,0,0,.45,1.37,1.42,1.42,0,0,0,1.46.2l18.1-7.6A3.08,3.08,0,0,1,230.24-16l.06.13h0a3.08,3.08,0,0,1-1.71,4L225-10.35a1.4,1.4,0,0,0-.78,1.82A1.4,1.4,0,0,0,226-7.8Zm0,0"/></g><g class="cls-2"><path class="cls-3" d="M8.88,159.53a7.77,7.77,0,1,0,2.87,10.61,7.72,7.72,0,0,0-2.87-10.61Zm-.3,8.79a4.12,4.12,0,1,1-1.52-5.63,4.13,4.13,0,0,1,1.52,5.63Zm0,0"/><path class="cls-3" d="M22.39,135.18a4.23,4.23,0,0,0-3.44-.32l-1.61.55a55.1,55.1,0,0,0-32.53,29.71l-2.58,5.8L-28,173.35H-28A30.9,30.9,0,0,0-46.87,187.9l-7.56,13.16a1.83,1.83,0,0,0,.11,2,1.82,1.82,0,0,0,1.86.71l22.23-4.8-.6,1.34a1.83,1.83,0,0,0,.35,2q.77.81,1.58,1.57l-3.53,7.58a1.83,1.83,0,0,0,.27,2A23.93,23.93,0,0,0-26,218.6a23.92,23.92,0,0,0,7.79,2.85,1.82,1.82,0,0,0,.8,0,1.83,1.83,0,0,0,1-.69c.87-1.21,1.87-2.64,2.84-4l2.06-2.92c.59.17,1.19.33,1.78.47a1.82,1.82,0,0,0,.9,0,1.82,1.82,0,0,0,1-.66l1-1.26L.23,234a1.82,1.82,0,0,0,1.55,1.25,1.8,1.8,0,0,0,.66-.05,1.83,1.83,0,0,0,1.11-.85l7.56-13.16a30.89,30.89,0,0,0,3.06-23.61l-2.61-9.66,3.23-4.28a54.89,54.89,0,0,0,9.84-44.84l-.19-.87a4.23,4.23,0,0,0-2-2.78Zm-71.6,64.13,5.51-9.59A27.27,27.27,0,0,1-27.09,176.9l7.45-1.78-8.76,19.7Zm32.71,15.29-2.12,3a20.18,20.18,0,0,1-5.49-2.18,20.16,20.16,0,0,1-4.49-3.55l2.59-5.55a42.34,42.34,0,0,0,5,3.36h0a42.35,42.35,0,0,0,6,2.86l-1.43,2Zm27.15-16a27.27,27.27,0,0,1-2.7,20.83L2.43,229l-6.6-20.23L8.77,191.64Zm10.42-58.95a51.23,51.23,0,0,1-9.19,41.86L-10,210.4a38.75,38.75,0,0,1-7.66-3l6.8-11.84a1.83,1.83,0,0,0-.67-2.49,1.83,1.83,0,0,0-2.49.67l-6.8,11.83A38.64,38.64,0,0,1-27,200.64l15.13-34a51.44,51.44,0,0,1,30.36-27.73l1.61-.55a.58.58,0,0,1,.75.42Zm0,0"/></g><g class="cls-2"><rect class="cls-3" x="275.62" y="244.85" width="8.38" height="2.79" transform="translate(-81.61 155.12) rotate(-27.2)"/><rect class="cls-3" x="261.13" y="208.16" width="2.79" height="2.79" transform="translate(-66.76 143.16) rotate(-27.2)"/><rect class="cls-3" x="276.05" y="200.5" width="2.79" height="2.79" transform="translate(-61.6 149.13) rotate(-27.2)"/><path class="cls-3" d="M282.52,208.71,280,210c.26.51,2.32,5.1-3.66,8.17s-8.51-1.28-8.77-1.79l-1.24.65-1.24.64c1.33,2.58,5.65,6.52,12.53,3s6.19-9.35,4.87-11.93Zm0,0"/><rect class="cls-3" x="287.11" y="240.37" width="2.79" height="2.79" transform="translate(-78.61 158.6) rotate(-27.2)"/><rect class="cls-3" x="289.67" y="245.35" width="2.79" height="2.79" transform="translate(-80.6 160.31) rotate(-27.2)"/><path class="cls-3" d="M313.7,202.12a11.07,11.07,0,0,0-5.09,5.38,11.26,11.26,0,0,0-10.7,3.64l-13.78-26.81a22.36,22.36,0,0,0-39.77,20.44l18,35.07a17.29,17.29,0,0,0-2.92,12.82L261.16,265l1.39,2.7,60.66-31.17.3,0,.38-.45c12.18-14.42,5.79-27.31,5.51-27.85-3.38-6.59-9.84-9.09-15.69-6.08Zm-66.86,1.36a19.56,19.56,0,0,1,34.8-17.88l3.85,7.49a6.92,6.92,0,0,0-3.08.13l-3.9-7.58L276,186.91l2.55,5-3.73,1.92-2.55-5-2.49,1.28,2.55,5-5,2.55-2.55-5-2.49,1.28,2.55,5-5,2.55-2.55-5-2.49,1.28,2.55,5-3.73,1.92-2.55-5L248.68,201l3.9,7.58a6.94,6.94,0,0,0-1.9,2.43ZM275,230.74l-1.7-3.31A16.58,16.58,0,0,0,285.71,221l1.7,3.31A10.46,10.46,0,0,1,275,230.74Zm6.82,2.47a4.94,4.94,0,0,1-5.47,3.63l-5.64-.77,3.62-2.62a13.16,13.16,0,0,0,7.49-.24Zm-21.69-16.12L255,207.14l24.86-12.77,5.11,9.94a14,14,0,1,1-24.86,12.77Zm29.9,8.3,4.24-1.41-2.66,5a4.94,4.94,0,0,1-6.14,2.33,13.17,13.17,0,0,0,4.56-6Zm-.37-2.82-2.18-4.24a16.77,16.77,0,0,0,1-12.8,6.92,6.92,0,0,0,2.09-2.55l5.62,10.94a11.59,11.59,0,0,0-.59,6.66Zm-2.3-19.76-3.6-7a4.17,4.17,0,0,1,3.6,7Zm-33.43,8.33,3.6,7a4.17,4.17,0,0,1-3.6-7Zm1.85,9.72a6.91,6.91,0,0,0,3.3-.22,16.77,16.77,0,0,0,11,6.62l2.18,4.24-5.91,4.28a17,17,0,0,0-2,1.72ZM308.33,241l-32,16.44L273,248.35l-2.62,1,3.44,9.42-10,5.15-1.62-11.66a14.52,14.52,0,0,1,5.27-13.76l8.47,1.16a7.76,7.76,0,0,0,8.55-5.64,7.77,7.77,0,0,0,9.56-3.67l3-5.61,0,.1a21.89,21.89,0,0,0,7,7.38l-1.22.83Zm2.5-1.29-4.09-6a27.78,27.78,0,0,0,10.3,2.81Zm11.28-5.93c-16.43,1.05-22.3-9.77-22.56-10.27-2.67-5.2-1.47-10.24,3-12.53a8.32,8.32,0,0,1,6.48-.49l1.35.45.42-1.36a8.32,8.32,0,0,1,4.17-5c4.46-2.29,9.25-.34,11.93,4.87.06.11,5.7,11.49-4.79,24.32Zm0,0"/><path class="cls-3" d="M304.53,221c-.72-1.39-1.59-3.89.57-5l-1.28-2.49c-3.07,1.58-3.75,4.94-1.78,8.77,0,.06,3.06,5.8,11.2,8l.72-2.7c-6.83-1.83-9.42-6.52-9.43-6.56Zm0,0"/><path class="cls-3" d="M316.6,230.87a28,28,0,0,0,3.4.2v-2.79a24.89,24.89,0,0,1-3.06-.17Zm0,0"/></g><g class="cls-2"><path class="cls-3" d="M186.62,99.53a9.31,9.31,0,1,0,11-7.18,9.32,9.32,0,0,0-11,7.18Zm6.45,8a6.67,6.67,0,0,1-4-6.15l5.07,1.08Zm1.63-7.68-5.07-1.08a6.67,6.67,0,0,1,6.15-4Zm3.68-4.52a6.67,6.67,0,0,1,4,6.15l-5.07-1.08ZM196.76,103l5.07,1.08a6.67,6.67,0,0,1-6.15,4Zm0,0"/><path class="cls-3" d="M232.68,119.61l-5.1-8,5.94-28L215.3,79.78l-2,9.53-5.18-8.08A12.16,12.16,0,0,0,192.56,78l-38,25a4.6,4.6,0,0,0-2,2.9,4.63,4.63,0,0,0,5.64,5.45L150,150.24l67.67,14.37,8.25-38.86a4.47,4.47,0,0,0,1.85.89,4.7,4.7,0,0,0,1.84,0,4.63,4.63,0,0,0,3.05-7ZM216.24,88.14l7.81,1.66.55-2.6-7.81-1.66.55-2.6,13,2.76-.55,2.6-2.6-.55-.55,2.6,2.6.55-3.73,17.54-10.21-16Zm-45.72,61,7.65,1.62,2.59,3.25a25.76,25.76,0,0,1-10.24-4.87Zm-.17-8.2-6.61-1.4a6.66,6.66,0,0,1,1.7-4.76Zm-2.76-7.74a6.59,6.59,0,0,1,4-.5l.2,0a6.63,6.63,0,0,1,2.17.9l-1.26,6Zm5.37,11,2.61,3.27-8.68-1.84a26.24,26.24,0,0,1-2.1-2.76c-.1-.15-.16-.31-.24-.46Zm1.87-1.92,1.35-6.35,3.07,4.73-1.2,5.66Zm5.37,6.74,1.07-5.05a17.74,17.74,0,0,1,1.94,8.83Zm7.64-10.38-8.64-13.3a7.14,7.14,0,0,1,12-7.77l.86,1.33,1.33-.86a7.14,7.14,0,1,1,7.78,12Zm-1.2,14.89a17.74,17.74,0,0,1,5.36-7.28l-1.07,5.05Zm1.74,2.09,3.69-1.92,7.65,1.62a25.74,25.74,0,0,1-11.34.29Zm13.25-9.89,1.26-5.95a6.93,6.93,0,0,1,2.55.1,6.6,6.6,0,0,1,3.44,2.08Zm8.57-1.46a6.66,6.66,0,0,1-.38,5l-6.61-1.4Zm-2.29,7.35c-.14.1-.26.23-.4.32a26.3,26.3,0,0,1-3,1.67l-8.68-1.84,3.71-1.93Zm-9.33-4.3L194,149.74l1.2-5.66,4.73-3.07Zm17.07,14.11-15.9-3.37a28.19,28.19,0,0,0,5-1.65h0v0a28.78,28.78,0,0,0,4.14-2.2,9.34,9.34,0,0,0,3-12.43,9.32,9.32,0,0,0-13.19-3.21l-6.71,4.36a20.65,20.65,0,0,0-4.67,4.16l1.22-5.76,14-9.06a9.8,9.8,0,0,0-9.79-16.94A9.8,9.8,0,0,0,177,126.82l9.06,14-1.1,5.19a20.66,20.66,0,0,0-2.37-5.06l-4.36-6.71a9.33,9.33,0,0,0-15.64,10.16,28.8,28.8,0,0,0,2.89,3.69v0h0a28.2,28.2,0,0,0,3.91,3.55l-16.22-3.44,8.18-38.51,36-23.72a3.28,3.28,0,0,1,3.18.63l23.28,36.36ZM229.14,124a1.9,1.9,0,0,1-2-.86l-.79-1.21L202.68,85l-.2-.24a6,6,0,0,0-6.21-1.24l-36.84,24.23h0l-1.21.79a2,2,0,0,1-3-2.06,2,2,0,0,1,.84-1.23l37.86-25a9.53,9.53,0,0,1,12,2.47L230.44,121a2,2,0,0,1,.27,1.47,1.91,1.91,0,0,1-1.57,1.52Zm0,0"/></g><g class="cls-2"><path class="cls-3" d="M127.12,43.15c5.74-10,3.38-22.15-5.27-27.13a15.53,15.53,0,0,0-1.42-.71,24.36,24.36,0,0,0,1.6-2.4c5.74-10,3.38-22.15-5.27-27.12s-20.36-.91-26.1,9.07c-5,8.71-3.85,19.09,2.28,24.9l-2.06,1A3.53,3.53,0,0,0,90.69,27l1.77,1L73.71,60.6,76.12,62,93,32.74C91.79,39.31,93.63,45.82,98,50L96,51a3.53,3.53,0,0,0-.19,6.22l.56.32L89.39,69.62,91.81,71l6.94-12.07.56.32A3.53,3.53,0,0,0,104.59,56l-.15-2.3c8.1,2.38,17.66-1.82,22.68-10.53Zm-32-16.82-3-1.74a.74.74,0,0,1,0-1.31L94.79,22a1.2,1.2,0,0,1,1.14,0c.46.26.93.5,1.41.72a24,24,0,0,0-1.59,2.39c-.23.41-.43.82-.64,1.24Zm4.13-5.87a13.22,13.22,0,0,1-1.92-.89C90,15.36,88.09,4.9,93.07-3.75s15-12.26,22.3-8,9.22,14.67,4.25,23.32a21.32,21.32,0,0,1-2,2.85c-6.3-1.51-13.34.83-18.4,6.09Zm1.47,36.39-3.54-2a.75.75,0,0,1,0-1.31l2.67-1.32a1.21,1.21,0,0,1,1.74,1l.2,3a.74.74,0,0,1-.1.42.75.75,0,0,1-1,.27Zm1.7-7.05c-7.32-4.21-9.22-14.67-4.25-23.32s15-12.26,22.3-8,9.22,14.67,4.25,23.32-15,12.26-22.3,8Zm0,0"/><path class="cls-3" d="M104.4,23.19l1.83,2.1c3.63-3.15,8.12-3.95,11.45-2l1.39-2.41c-4.37-2.52-10.13-1.6-14.67,2.34Zm0,0"/><path class="cls-3" d="M100.57,27.87,103,29.26a15.93,15.93,0,0,1,1.45-2.11l-2.16-1.76a18.91,18.91,0,0,0-1.7,2.47Zm0,0"/><rect class="cls-3" x="58.82" y="12.89" width="2.78" height="2.78" transform="translate(17.8 59.34) rotate(-60.08)"/><rect class="cls-3" x="68.47" y="18.44" width="2.78" height="2.78" transform="translate(17.82 70.49) rotate(-60.08)"/><path class="cls-3" d="M67.16,27,65.64,24.7c-.08,0-2,1.2-4.77-.4s-2.74-3.83-2.74-3.92l-2.78-.14c0,.16-.18,4,4.13,6.48s7.54.41,7.68.32Zm0,0"/><path class="cls-3" d="M64.55,35l-2-1.79a12.56,12.56,0,0,0,9.63-4.1,5.54,5.54,0,0,0,7.19-6.47c.55-.46,6.87-5.83,6.31-12.79-.36-4.58-3.59-8.64-9.58-12.09S65-6.44,60.88-4.45C54.58-1.44,53.11,6.72,53,7.43a5.52,5.52,0,0,0-3.13,2.5,5.57,5.57,0,0,0,1.15,7,12.56,12.56,0,0,0,1.29,10.38l-2.53-.79a9.7,9.7,0,0,0-8.89,1.6L33,33.61l-1.54,2.68L65.26,55.74l1.54-2.68.82-9.5A9.74,9.74,0,0,0,64.55,35ZM74,26.59l2.39-4.15A2.76,2.76,0,0,1,74,26.59ZM52.29,14.09a2.76,2.76,0,0,1,2.39-4.15ZM57,6l-.79,1.38-.3-.07c.42-1.83,2-7.21,6.23-9.24C65.35-3.5,69.61-2.79,74.76.17s7.9,6.29,8.19,9.89c.38,4.69-3.49,8.75-4.86,10l-.21-.22,1.49-2.58c1.2-2.09,2-6.9-3.77-10.2-3.42-2-5.84-.73-8,.35-2.32,1.18-4.33,2.2-8.26-.06Zm-2.45,9.83,3.47-6c5.23,3,8.38,1.41,10.91.12,1.94-1,3.22-1.63,5.33-.42,4.63,2.66,2.94,6,2.74,6.4L71.4,25.54a9.74,9.74,0,1,1-16.89-9.72Zm4.77,16.83-.51.88a5.92,5.92,0,0,1-4.83-2.78l.51-.88a12.14,12.14,0,0,0,4.83,2.78ZM58.2,48.46l3.47-6L59.26,41l-3.47,6L43.73,40.13l3.47-6-2.41-1.39-3.47,6-5.91-3.4,7.15-5a7,7,0,0,1,6.39-1.18l2.3.72-.35.6L51,31a7.39,7.39,0,0,0,3.58,4.13,7.39,7.39,0,0,0,5.37,1l.56-.15.35-.6L62.67,37a7,7,0,0,1,2.18,6.2l-.74,8.62Zm0,0"/></g><g class="cls-2"><path class="cls-3" d="M326.31,94.5a35.85,35.85,0,0,0-11.48,1.88,9.14,9.14,0,0,0-14.6-4.8A9.14,9.14,0,0,0,288,105.14l7.21,7.21A36,36,0,1,0,326.31,94.5Zm-36.54,8.89A6.66,6.66,0,0,1,299.19,94l1,1,1-1a6.66,6.66,0,0,1,9.42,9.42l-10.47,10.47Zm19.16,55.78a33.39,33.39,0,0,1-15.75-33.68l10.6-2.36a3.07,3.07,0,0,1,.65-.07h1.49a3,3,0,0,1,3,3v1.71a5.51,5.51,0,0,0,1.2,3.43l3.1,3.88a3,3,0,0,1,.66,1.88v4a3,3,0,0,1-2.18,2.89l-2.53.72a5.52,5.52,0,0,0-4,5.28,5.46,5.46,0,0,0,1.61,3.88L308,155a3,3,0,0,1,.88,2.13ZM326.31,164a33.5,33.5,0,0,1-7.45-.84v-5.24a3.69,3.69,0,0,1,.53-1.9l1.58-2.64a3.75,3.75,0,0,1,3.24-1.8,3.68,3.68,0,0,1,3.43,2.32,6.15,6.15,0,0,0,5.74,3.88h.76a3.68,3.68,0,0,1,3.43,2.32l.67,1.68a33.36,33.36,0,0,1-11.94,2.2Zm14.22-3.17-.65-1.63a6.15,6.15,0,0,0-5.74-3.88h-.76a3.68,3.68,0,0,1-3.43-2.32,6.23,6.23,0,0,0-11.1-.89l-1.58,2.64a6.17,6.17,0,0,0-.88,3.18v4.58a33.38,33.38,0,0,1-5-2V157.1a5.46,5.46,0,0,0-1.61-3.88L308.57,152a3,3,0,0,1-.88-2.13,3,3,0,0,1,2.18-2.89l2.53-.72a5.51,5.51,0,0,0,4-5.28v-4a5.52,5.52,0,0,0-1.2-3.43l-3.1-3.88a3,3,0,0,1-.66-1.88v-1.71a5.5,5.5,0,0,0-5.49-5.49h-1.49a5.57,5.57,0,0,0-1.19.13l-9.54,2.12a33.3,33.3,0,0,1,3.35-8.65l3.19,3.19,12.22-12.22a9.07,9.07,0,0,0,2.67-6.24,33.48,33.48,0,0,1,30.63,4.33l-6,7.05a4.08,4.08,0,0,0-1,2.65v7.37a4.06,4.06,0,0,0,1.81,3.39l4.92,3.28a1.58,1.58,0,0,1,.71,1.33v8.24a1.6,1.6,0,0,1-.64,1.28l-3.08,2.31a1.6,1.6,0,0,1-1,.32h-2.85a1.58,1.58,0,0,1-1.13-.47l-.21-.21a4.08,4.08,0,0,0-6.07,5.43l2.42,3a4.08,4.08,0,0,0,1.21,1l10,5.58a4.07,4.07,0,0,0,2,.51h1.9a33.63,33.63,0,0,1-8.28,5.52ZM351.14,153v-.15h-4.23a1.61,1.61,0,0,1-.78-.2l-10-5.58a1.57,1.57,0,0,1-.47-.4l-2.43-3a1.6,1.6,0,0,1,2.37-2.12l.21.21a4.05,4.05,0,0,0,2.88,1.19h2.85a4.1,4.1,0,0,0,2.45-.82L347,139.8a4.1,4.1,0,0,0,1.63-3.26V128.3a4.07,4.07,0,0,0-1.82-3.39l-4.92-3.28a1.59,1.59,0,0,1-.71-1.33v-7.37a1.59,1.59,0,0,1,.38-1l6.13-7.16A33.47,33.47,0,0,1,351.14,153Zm0,0"/><rect class="cls-3" x="347.42" y="144.16" width="2.48" height="2.48"/><path class="cls-3" d="M335,126.37a5.41,5.41,0,0,0-2.15-4.3l-1.65-1.24A2.91,2.91,0,0,1,330,118.5v-1.24a5.39,5.39,0,0,0-5.38-5.38h-2.9a5.39,5.39,0,0,0-5.38,5.38v3.45a5.38,5.38,0,0,0,.71,2.67l3.23,5.65a5.39,5.39,0,0,0,4.67,2.71h4.63a5.39,5.39,0,0,0,5.38-5.38Zm-5.38,2.9H325a2.9,2.9,0,0,1-2.52-1.46l-3.23-5.65a2.88,2.88,0,0,1-.38-1.44v-3.45a2.9,2.9,0,0,1,2.9-2.9h2.9a2.9,2.9,0,0,1,2.9,2.9v1.24a5.41,5.41,0,0,0,2.15,4.31l1.66,1.24a2.9,2.9,0,0,1-1.74,5.21Zm0,0"/><rect class="cls-3" x="301.48" y="126.78" width="2.48" height="2.48"/></g><g class="cls-2"><path class="cls-3" d="M197.8,200.42l-6.33,10.19-2.87-6a4.2,4.2,0,0,0,.07-3.75l-4-8.36-6.08,2.93-1.52.73-4.56,2.19-1.52.73-4.56,2.19-1.52.73-4.56,2.19-1.52.73-6.08,2.93,4,8.36a4.2,4.2,0,0,0,3,2.29l3.23,6.72L151,223.85l7.13,14.82,5-.34,3.86.76,3.88,2.55a3.28,3.28,0,0,0,.22.61,3.23,3.23,0,0,0,4.31,1.51l.14-.08c0,.05,0,.1.06.15a3.23,3.23,0,0,0,4.31,1.51l.14-.08c0,.05,0,.1.06.15a3.23,3.23,0,0,0,4.31,1.51l.14-.08c0,.05,0,.1.06.15a3.23,3.23,0,0,0,6-.33l.58-1.65,1.65.58a3.23,3.23,0,0,0,4-4.45l-.07-.14v0c.08,0,.16,0,.24-.08a3.13,3.13,0,0,0,1.46-4.17l-.12-.25c.08,0,.17,0,.25-.09a3.11,3.11,0,0,0,1.45-4.15l-.14-.3a3.16,3.16,0,0,0-.19-.32l3.48-8.14-.66-5.17,2.41-3.12ZM179.3,197l4.56-2.19,3.29,6.84a2.53,2.53,0,1,1-4.56,2.19Zm-6.08,2.93,4.56-2.19,3.29,6.84a2.53,2.53,0,1,1-4.56,2.19Zm-6.08,2.93,4.56-2.19,3.29,6.84a2.53,2.53,0,1,1-4.56,2.19Zm-6.08,2.93,4.56-2.19,3.29,6.84a2.53,2.53,0,1,1-4.56,2.19ZM155,208.68l4.56-2.19,3.29,6.84a2.53,2.53,0,1,1-4.56,2.19Zm7.4,9.54a4.2,4.2,0,0,0,2.3-3,4.18,4.18,0,0,0,6.08-2.93,4.18,4.18,0,0,0,6.08-2.93,4.18,4.18,0,0,0,6.08-2.93,4.18,4.18,0,0,0,4.51-.36l2.46,5.12-12.47,3.5-5.47,6.44-4.74,3.17-2.52.65-3.1-6.45A4.21,4.21,0,0,0,162.38,218.23Zm-8.48,7.66,8.64,1-.15,9.78-3.19.22Zm20.81,16.36a1.54,1.54,0,0,1-2.12-1.9l.92-2.64a1.54,1.54,0,0,1,2.85-.16,1.55,1.55,0,0,1,.07,1.18l-.92,2.64A1.53,1.53,0,0,1,174.71,242.24Zm4.5,1.58a1.54,1.54,0,0,1-2.12-1.9h0l.92-2.64a1.54,1.54,0,1,1,2.91,1l-.92,2.64A1.53,1.53,0,0,1,179.21,243.82Zm4.5,1.58a1.54,1.54,0,0,1-2.12-1.9h0l.92-2.64a1.54,1.54,0,1,1,2.91,1l-.92,2.64A1.53,1.53,0,0,1,183.72,245.4Zm5.29.7a1.54,1.54,0,0,1-2.85.16,1.56,1.56,0,0,1-.07-1.18h0l.92-2.64a1.54,1.54,0,1,1,2.91,1ZM198.48,233a1.42,1.42,0,0,1-1.91,1.89L189,231.07l-.75,1.51,7.62,3.79h0l.29.14a1.44,1.44,0,0,1,.65.66l.14.28a1.44,1.44,0,0,1-1.92,1.92l-8.75-4.2-.73,1.52,8.75,4.2h0l.23.11a1.55,1.55,0,0,1,.72.72l.07.14a1.54,1.54,0,0,1-1.9,2.12l-1.71-.6a3.23,3.23,0,0,0-4.6-3.35l-.14.08c0-.05,0-.1-.06-.15a3.23,3.23,0,0,0-4.31-1.51l-.14.08c0-.05,0-.1-.06-.15a3.23,3.23,0,0,0-4.31-1.51l-.14.08c0-.05,0-.1-.06-.15a3.23,3.23,0,0,0-6,.33L171,239.7l-3.34-2.2-3.61-.71.15-10,3.68-.94,3.57-2.39-.59,5.37a3.46,3.46,0,0,0,4.92,3.51,3.42,3.42,0,0,0,1.47-1.35l4.19-7.08L197.69,232a1.43,1.43,0,0,1,.65.66Zm2.93-9.73-3.08,7.21-10.59-5.26c1.22-.41,3-1.07,5.36-2.14l-.69-1.54a40.93,40.93,0,0,1-6.9,2.57l-3.21-1.6.75-1.26-1.45-.86-5.79,9.79a1.77,1.77,0,0,1-3.26-1.12l.76-6.91,5-5.94,13.39-3.76,9.07,6.13Zm1.51-8.26-1.5,1.95L193,211.26l4.56-7.35Z"/><path class="cls-3" d="M194.48,222.42l1.41-.67-.73-1.52-1.39.66Z"/></g><g class="cls-2"><path class="cls-3" d="M172.28,319.85a3.32,3.32,0,0,0-.39-.42,8.19,8.19,0,1,0-6.21-.24l-11.1,1.8a3.24,3.24,0,0,0-2.14,1.33,3.18,3.18,0,0,0-.55,2.41,3.3,3.3,0,0,0,3.78,2.67l4.83-.79-.78,4.23-.15.81-2.76,15-2,1.37a2.56,2.56,0,0,0,1,4.62l3.22.59.71.13,6.44,1.19a2.46,2.46,0,0,0,2.86-2l.59-3.22.15-.81,2.68-14.5.15-.81,1.49-8.05A5.71,5.71,0,0,0,172.28,319.85Zm-.95,1.73a1.56,1.56,0,0,1-.27,1.18,1.62,1.62,0,0,1-1.07.66l-4.06.66-.55-3.17,4-.66.25,0a4.07,4.07,0,0,1,1.43.78A1.57,1.57,0,0,1,171.33,321.58Zm-8.69-11a6.55,6.55,0,1,1,5.25,7.63A6.56,6.56,0,0,1,162.64,310.57Zm-7.22,15.22a1.66,1.66,0,0,1-1.91-1.33,1.56,1.56,0,0,1,.27-1.18,1.62,1.62,0,0,1,1.07-.66l8.92-1.45.55,3.17Zm0,24.14a.92.92,0,0,1,.38-.59l2-1.37.94.17-.64.44a2.57,2.57,0,0,0-1.06,1.64,2.54,2.54,0,0,0,0,.94l-.88-.16A.92.92,0,0,1,155.37,349.93Zm12.06,2.33a.82.82,0,0,1-1,.66L160,351.73l-.71-.13a.92.92,0,0,1-.35-1.66l2-1.37,6.91,1.28Zm.74-4L161.73,347l.3-1.61-1.61-.3-.3,1.61-1.61-.3,2.68-14.5,1.61.3-2.08,11.27,1.61.3,2.08-11.27,6.44,1.19Zm3-16.11-9.66-1.78.74-4,8-1.31a3.24,3.24,0,0,0,2.14-1.33c0-.06.07-.12.1-.18a4.07,4.07,0,0,1,0,1.35Z"/><path class="cls-3" d="M132.66,342.16l2.76-15,.15-.81.78-4.23,4.23,2.46a3.3,3.3,0,0,0,4.49-1.14,3.19,3.19,0,0,0,.35-2.45,3.24,3.24,0,0,0-1.53-2l-9.72-5.65a8.19,8.19,0,1,0-5.88-2,3.32,3.32,0,0,0-.52.25,5.71,5.71,0,0,0-3.6,4.32L122.68,324l-.15.81-2.68,14.5-.15.81-.59,3.22a2.46,2.46,0,0,0,2,2.86l6.44,1.19.71.13,3.22.59a2.56,2.56,0,0,0,2.57-4Zm-1.52-.77-1.61-.3,2.68-14.5,1.61.3Zm12.69-20a1.57,1.57,0,0,1-.17,1.2,1.66,1.66,0,0,1-2.26.56l-7.8-4.53,1.65-2.77,7.81,4.54A1.61,1.61,0,0,1,143.82,321.44ZM128,313.59a1.57,1.57,0,0,1,.41-.44,4.08,4.08,0,0,1,1.62-.22l.23.11,3.54,2.06-1.65,2.77-3.56-2.07a1.63,1.63,0,0,1-.76-1A1.56,1.56,0,0,1,128,313.59ZM127.2,304a6.55,6.55,0,1,1,5.25,7.63A6.56,6.56,0,0,1,127.2,304Zm-1.42,12.23a4.1,4.1,0,0,1,.47-1.27c0,.07,0,.14,0,.21a3.24,3.24,0,0,0,1.53,2l7,4.09-.74,4-9.66-1.78Zm-1.64,8.86,6.44,1.19-2.68,14.5-6.44-1.19Zm3.68,20.67-6.44-1.19a.82.82,0,0,1-.66-1l.45-2.42,6.91,1.28,1.37,2a.92.92,0,0,1-.92,1.42Zm3.93.73-.88-.16a2.54,2.54,0,0,0,.34-.87,2.57,2.57,0,0,0-.41-1.91l-.44-.64.94.17,1.37,2a.92.92,0,0,1-.92,1.42Z"/><path class="cls-3" d="M145.13,310.67l7,1.3,6,5,2.34-12.66a2.46,2.46,0,0,0-2-2.86l-11.27-2.08a2.46,2.46,0,0,0-2.86,2l-1.19,6.44A2.46,2.46,0,0,0,145.13,310.67Zm.83-9a.82.82,0,0,1,1-.66l11.27,2.08a.82.82,0,0,1,.66,1L157,313.92l-4.13-3.49-7.46-1.38a.82.82,0,0,1-.66-1Z"/><rect class="cls-3" x="151.29" y="299.55" width="1.64" height="9.83" transform="translate(-174.91 398.77) rotate(-79.54)"/><rect class="cls-3" x="154.72" y="307.61" width="1.64" height="1.64" transform="translate(-176 405.39) rotate(-79.54)"/><rect class="cls-3" x="149.08" y="304.11" width="1.64" height="6.55" transform="translate(-179.59 399) rotate(-79.54)"/><path class="cls-3" d="M152.84,332.08l-7-1.3-6-5-2.34,12.66a2.46,2.46,0,0,0,2,2.86l11.27,2.08a2.46,2.46,0,0,0,2.86-2l1.19-6.44A2.46,2.46,0,0,0,152.84,332.08Zm-.83,9a.82.82,0,0,1-1,.66l-11.27-2.08a.82.82,0,0,1-.66-1l1.82-9.89,4.13,3.49,7.46,1.38a.82.82,0,0,1,.66,1Z"/><rect class="cls-3" x="143.43" y="334.71" width="1.64" height="6.55" transform="translate(-214.3 418.49) rotate(-79.54)"/><rect class="cls-3" x="149.07" y="338.21" width="1.64" height="1.64" transform="translate(-210.71 424.89) rotate(-79.54)"/><rect class="cls-3" x="145.64" y="330.15" width="1.64" height="9.83" transform="translate(-209.62 418.27) rotate(-79.54)"/></g><g class="cls-2"><path class="cls-3" d="M407.94,290.61l-.5-.19a6,6,0,1,0-8.33-3.09l-1.75-.65-.34-8.57,3.67-1.68a9.45,9.45,0,0,0-7.88-17.19l-1,.47-.47-1a9.45,9.45,0,0,0-17.19,7.88l1.68,3.67-5.85,6.27-1.75-.65a6,6,0,1,0-8.33-3.09l-.5-.19a5,5,0,0,0-6.41,2.94l-3.47,9.34a3,3,0,0,0,1.76,3.84,3,3,0,0,0,1,.17l-6,16.06,11.21,4.16L367.55,282l4.34,1.61,6.89-6.86.26.57a8.21,8.21,0,0,0,10.89,4l.57-.26.75,9.69,4.34,1.61-10.06,27.1,11.21,4.16,6-16.06a3,3,0,0,0,.87.52,3,3,0,0,0,3.84-1.76l3.47-9.34A5,5,0,0,0,407.94,290.61Zm-7-6.86a4,4,0,1,1,2.35,5.12A4,4,0,0,1,400.91,283.75Zm-39.24-14.57a4,4,0,1,1,2.35,5.12A4,4,0,0,1,361.67,269.18Zm-9.74,17.65a1,1,0,0,1-.59-1.28l2.08-5.61,1.87.69-1.39,3.74-.69,1.87A1,1,0,0,1,351.93,286.83Zm4.57,4.88L353,301.06l-2.8-1,4.51-12.15,7.47,2.78-4.51,12.15-2.8-1,3.47-9.34Zm-7,10.17,2.8,1-.69,1.87-2.8-1Zm4,3.6.69-1.87,2.8,1-.69,1.87Zm12.86-26.05-3.47,9.34L355.43,286l.35-.93,3.12-8.41L357,276l-1,2.8-1.87-.69.69-1.87a3,3,0,0,1,3.84-1.76l11.83,4.39,1-1.07,1.08,2.35-1.19,1.18Zm7.7-.82L373,276.19l3.73-4,1.2,2.62Zm10.27,1.11a6.18,6.18,0,0,1-3.49-3.24l-4.93-10.75a7.46,7.46,0,0,1,13.56-6.22l1.31,2.85,2.85-1.31a7.46,7.46,0,0,1,6.22,13.56l-10.75,4.93A6.18,6.18,0,0,1,384.34,279.73Zm10.71-.71.09,2.3-2.57.76-.14-1.85Zm-1.92,10.36-.41-5.27,2.5-.74.19,4.73,11.83,4.39a3,3,0,0,1,1.76,3.84l-2.08,5.61-1.87-.69,2.43-6.54-1.87-.69-3.12,8.41-.35.93-7.47-2.78,3.47-9.34Zm2.61,16.91-3.47,9.34-2.8-1L394,302.44l7.47,2.78-4.51,12.15-2.8-1,3.47-9.34Zm-7,10.17,2.8,1-.69,1.87-2.8-1Zm4,3.6.69-1.87,2.8,1-.69,1.87Zm11.5-13.8a1,1,0,0,1-.59-1.28l.69-1.87,1.87.69-.69,1.87A1,1,0,0,1,404.25,306.26Z"/><path class="cls-3" d="M379.54,264.07a3.47,3.47,0,0,1,4.37-4.7l.69-1.87a5.47,5.47,0,0,0-6.87,7.4l3.3,7.19,1.81-.83Z"/><rect class="cls-3" x="382.15" y="273.33" width="1.99" height="2" transform="translate(-79.47 184.64) rotate(-24.63)"/><path class="cls-3" d="M379.83,291.87a5,5,0,1,0,2.94,6.41A5,5,0,0,0,379.83,291.87Zm-2.78,7.47a3,3,0,1,1,3.84-1.76A3,3,0,0,1,377.05,299.35Z"/><rect class="cls-3" x="388.31" y="299.71" width="1.99" height="1.99" transform="translate(-28.1 561) rotate(-69.63)"/><rect class="cls-3" x="384.57" y="298.32" width="1.99" height="1.99" transform="translate(-29.24 556.59) rotate(-69.63)"/><rect class="cls-3" x="369.62" y="292.77" width="1.99" height="1.99" transform="translate(-33.78 538.96) rotate(-69.63)"/><rect class="cls-3" x="365.88" y="291.38" width="1.99" height="1.99" transform="translate(-34.92 534.55) rotate(-69.63)"/></g><g class="cls-2"><path class="cls-3" d="M249.48,346.05a9.39,9.39,0,0,0-6-16.51,18.94,18.94,0,0,0-10.13-4.7,9.39,9.39,0,0,0-16.51,6A18.94,18.94,0,0,0,212.1,341a9.33,9.33,0,0,0-2.38,3.13,9.39,9.39,0,0,0,8.43,13.38,18.94,18.94,0,0,0,10.13,4.7,9.39,9.39,0,0,0,16.51-6,18.94,18.94,0,0,0,4.7-10.13Zm-10.94-8,3.18-6.86a16.53,16.53,0,0,1,5.39,14.73l-6.85-3.18-.08,0a9.49,9.49,0,0,0-1.69-4.61l0-.07Zm-1.33,8.48a7.07,7.07,0,1,1-3.44-9.39,7.07,7.07,0,0,1,3.44,9.39Zm-1.69-18.77a14.92,14.92,0,0,1,4.28,2l-3,6.52a9.14,9.14,0,0,0-4.28-2Zm-2.35-.53L230,334.07s0,.06,0,.08a9.49,9.49,0,0,0-4.61,1.69l-.07,0-6.85-3.18a16.53,16.53,0,0,1,14.73-5.4Zm-4-2.61.24.13a18.94,18.94,0,0,0-9.72,3.56c0-.08.05-.17.09-.25a7.07,7.07,0,0,1,9.39-3.44ZM217,334.53l6.53,3a9.16,9.16,0,0,0-2,4.28l-6.53-3a16.75,16.75,0,0,1,.83-2.21,16.54,16.54,0,0,1,1.15-2.06Zm-1.68,20a7.07,7.07,0,0,1-3.44-9.39c0-.08.09-.15.13-.24a18.94,18.94,0,0,0,3.56,9.72l-.25-.09ZM223,349l-3.18,6.86a16.53,16.53,0,0,1-5.39-14.73l6.85,3.18.08,0a9.49,9.49,0,0,0,1.69,4.61l0,.07Zm3,10.29a14.92,14.92,0,0,1-4.28-2l3-6.52a9.16,9.16,0,0,0,4.28,2Zm2.35.53,3.18-6.86s0-.05,0-.08a9.49,9.49,0,0,0,4.61-1.69l.07.05,6.85,3.18a16.53,16.53,0,0,1-14.73,5.4Zm4,2.61-.24-.13a18.94,18.94,0,0,0,9.72-3.56c0,.08-.05.17-.09.25a7.07,7.07,0,0,1-9.39,3.44Zm12.2-9.93-6.53-3a9.17,9.17,0,0,0,2-4.28l6.53,3a15.64,15.64,0,0,1-2,4.28Zm5-10.38a18.94,18.94,0,0,0-3.56-9.72l.25.09a7.07,7.07,0,0,1,3.44,9.39c0,.08-.09.15-.13.24Zm0,0"/></g><g class="cls-2"><path class="cls-3" d="M104.39,132.6a9.39,9.39,0,0,0-16.19-6.85,18.94,18.94,0,0,0-10.35,4.19A9.39,9.39,0,0,0,71,146.13a18.94,18.94,0,0,0,4.19,10.35,9.33,9.33,0,0,0,.66,3.88,9.39,9.39,0,0,0,15.53,3,18.94,18.94,0,0,0,10.35-4.19,9.39,9.39,0,0,0,6.85-16.19,18.94,18.94,0,0,0-4.19-10.35Zm-13.33,2.52-2.84-7a16.53,16.53,0,0,1,14.44,6.12l-7,2.84-.07,0a9.49,9.49,0,0,0-4.52-1.91s0-.06,0-.08Zm5.28,6.76a7.07,7.07,0,1,1-9.21-3.9,7.07,7.07,0,0,1,9.21,3.9ZM81.48,130.3a14.92,14.92,0,0,1,4.37-1.77l2.7,6.67A9.14,9.14,0,0,0,84.18,137Zm-2,1.35,2.84,7s0,0,0,.07a9.49,9.49,0,0,0-1.91,4.52l-.08,0-7,2.84a16.53,16.53,0,0,1,6.11-14.45Zm-4.63,1.13.26-.08a18.94,18.94,0,0,0-4,9.53c0-.08-.09-.16-.12-.24a7.07,7.07,0,0,1,3.9-9.21Zm-1.08,15.7,6.67-2.7a9.16,9.16,0,0,0,1.77,4.37l-6.67,2.7a16.75,16.75,0,0,1-1-2.12,16.54,16.54,0,0,1-.72-2.25Zm13.47,14.89a7.07,7.07,0,0,1-9.21-3.9c0-.08,0-.17-.08-.26a18.94,18.94,0,0,0,9.53,4l-.24.12ZM88.52,154l2.84,7a16.53,16.53,0,0,1-14.44-6.12l7-2.84.07,0a9.49,9.49,0,0,0,4.52,1.91s0,.06,0,.08Zm9.58,4.82a14.92,14.92,0,0,1-4.37,1.77L91,153.87a9.16,9.16,0,0,0,4.37-1.77Zm2-1.35-2.84-7s0,0,0-.07a9.49,9.49,0,0,0,1.91-4.52l.08,0,7-2.84a16.53,16.53,0,0,1-6.11,14.45Zm4.63-1.13-.26.08a18.94,18.94,0,0,0,4-9.53c0,.08.09.16.12.24a7.07,7.07,0,0,1-3.9,9.21Zm1.08-15.7-6.67,2.7a9.17,9.17,0,0,0-1.77-4.37l6.67-2.7a15.64,15.64,0,0,1,1.77,4.37Zm-4.18-10.73a18.94,18.94,0,0,0-9.53-4l.24-.12a7.07,7.07,0,0,1,9.21,3.9c0,.09,0,.17.08.26Zm0,0"/></g><g class="cls-2"><path class="cls-3" d="M205.34,265.11l-16.7,6.59a2.24,2.24,0,0,0-1.26,2.91l11.54,29.22a2.24,2.24,0,0,0,2.91,1.26l16.7-6.59a2.24,2.24,0,0,0,1.26-2.91l-11.54-29.22a2.24,2.24,0,0,0-2.91-1.26Zm-15.88,8.68,16.7-6.59,1.65,4.17L191.11,278Zm19.17-.33,6.59,16.7-16.7,6.59L191.94,280ZM201,303l-1.65-4.17,16.7-6.59,1.65,4.17Zm0,0"/></g><g class="cls-2"><path class="cls-3" d="M92.3,353.72a2.37,2.37,0,0,1-1.78,1.09c-.22.05-.63.14-.68.23a.7.7,0,0,1-.95.31h0a.7.7,0,0,1-.32-.94,2.12,2.12,0,0,1,1.62-1c.45-.1.75-.19.84-.36a.7.7,0,0,0-1.25-.64.71.71,0,1,1-1.27-.64,2.12,2.12,0,0,1,3.78,1.92Zm-3.69,2.23a.7.7,0,0,0-.94.32h0a.69.69,0,0,0,.3.94.71.71,0,0,0,.64-1.27Zm-15-2.06a.71.71,0,1,0-.64,1.27l.05,0a.71.71,0,1,0,.64-1.27Zm2.2,1.12a.71.71,0,0,0-.64,1.27l.05,0a.71.71,0,1,0,.64-1.27Zm23.71-.68-3.61,7.12A3.41,3.41,0,0,1,91.33,363l-8.21-4.16-.4-.21-.3-.15-.44.11-.24.07-3.39.94a.73.73,0,0,1-.84-1l3.4-6.71-6.63-3.36a2,2,0,0,0-2.72.88l-3.61,7.12a2,2,0,0,0,.91,2.68L78,363.8a.71.71,0,0,1,.33.39l1,2.7,3.05-6a.71.71,0,1,1,1.27.64L79.9,369a.7.7,0,0,1-.66.39.68.68,0,0,1-.28-.08.72.72,0,0,1-.34-.39l-1.48-4-8.92-4.52a3.42,3.42,0,0,1-1.54-4.59l3.61-7.12a3.45,3.45,0,0,1,4.63-1.5l6.63,3.36,2.17-4.27a3.44,3.44,0,0,1,4.63-1.48l9.7,4.92a3.4,3.4,0,0,1,1.5,4.58Zm-1.27-.64A2,2,0,0,0,97.4,351l-9.7-4.92a2,2,0,0,0-2.72.85L79.5,357.75l1.86-.5.25-.06a1.79,1.79,0,0,1,1.79.15l.37.19L92,361.69a2,2,0,0,0,2.68-.89Zm0,0"/></g><g class="cls-2"><path class="cls-3" d="M364.87,56.79,317.16,46a4.84,4.84,0,0,0-5.78,3.64L307,68.68a4.84,4.84,0,0,0,3.64,5.78l16.8,3.82,3.92,6.22a2.87,2.87,0,0,0,4,.9l6.22-3.92,16.8,3.82a4.84,4.84,0,0,0,5.78-3.64l4.34-19.08a4.84,4.84,0,0,0-3.64-5.78Zm-2.48,24.46a3,3,0,0,1-3.59,2.26l-17.17-3.9a.92.92,0,0,0-.71.13l-6.52,4.1a1,1,0,0,1-1.43-.33L328.86,77a.92.92,0,0,0-.59-.43l-17.18-3.9a3,3,0,0,1-2.26-3.59L313.17,50a3,3,0,0,1,3.59-2.26l47.7,10.84a3,3,0,0,1,2.26,3.59Zm0,0"/><path class="cls-3" d="M327.83,56.4a.92.92,0,0,0-1.1.69l-1.1,4.83-5.84-1.33,1.1-4.83a.92.92,0,0,0-1.79-.41l-2.6,11.45a.92.92,0,0,0,1.79.41l1.1-4.83,5.84,1.33-1.1,4.83a.92.92,0,0,0,1.79.41l2.6-11.45a.92.92,0,0,0-.69-1.1Zm0,0"/><path class="cls-3" d="M346.22,72.62l-5.72-1.3a.06.06,0,0,1,0-.07l2.38-10.5a.92.92,0,1,0-1.79-.41l-2.38,10.5a1.9,1.9,0,0,0,1.43,2.27l5.72,1.3a.92.92,0,1,0,.41-1.79Zm0,0"/><path class="cls-3" d="M335.72,70.24,330,68.94a.06.06,0,0,1,0-.07l.88-3.88,3.88.88a.92.92,0,0,0,.41-1.79l-3.88-.88.88-3.88a.06.06,0,0,1,.07,0l5.72,1.3a.92.92,0,0,0,.41-1.79l-5.72-1.3a1.9,1.9,0,0,0-2.27,1.43l-2.17,9.54a1.9,1.9,0,0,0,1.43,2.27l5.72,1.3a.92.92,0,0,0,.41-1.79Zm0,0"/><path class="cls-3" d="M355.5,62.69,352.64,62a1.9,1.9,0,0,0-2.27,1.43L348,74a.92.92,0,1,0,1.79.41l.66-2.92,2.92.66a4.83,4.83,0,1,0,2.14-9.42Zm-1.73,7.63-2.92-.66,1.31-5.78a.06.06,0,0,1,.07,0l2.86.65a3,3,0,1,1-1.33,5.84Zm0,0"/></g><g class="cls-2"><path class="cls-3" d="M415.66,45.36,387.88,56.47a2.14,2.14,0,0,0-1.19,2.78L395,80.09a2.14,2.14,0,0,0,2.78,1.19l10.91-4.37,1.19,3-3.47,1.39a1.07,1.07,0,0,0,.79,2l12.9-5.16a1.07,1.07,0,0,0-.79-2l-3.47,1.39-1.19-3,10.91-4.37a2.14,2.14,0,0,0,1.19-2.78l-8.34-20.84a2.14,2.14,0,0,0-2.78-1.19Zm-3.77,33.74-1.19-3,2-.79,1.19,3Zm12.9-10.92L397,79.29l-1.59-4L423.2,64.21Zm-2.38-6L394.63,73.34l-6-14.88,27.78-11.12Zm0,0"/></g><g class="cls-2"><path class="cls-3" d="M433.29,333.08H379.45a5.32,5.32,0,0,0-5.32,5.32v21.54a5.32,5.32,0,0,0,5.32,5.32h19l5.72,5.72a3.16,3.16,0,0,0,4.47,0l5.72-5.72h19a5.32,5.32,0,0,0,5.32-5.32V338.4a5.32,5.32,0,0,0-5.32-5.32Zm3.3,26.85a3.3,3.3,0,0,1-3.3,3.3H413.91a1,1,0,0,0-.73.32l-6,6a1.14,1.14,0,0,1-1.62,0l-6-6a1,1,0,0,0-.74-.32H379.45a3.3,3.3,0,0,1-3.3-3.3V338.4a3.3,3.3,0,0,1,3.3-3.3h53.84a3.3,3.3,0,0,1,3.3,3.3Zm0,0"/><path class="cls-3" d="M393.45,341.7a1,1,0,0,0-1,1v5.45h-6.6v-5.45a1,1,0,0,0-2,0v12.92a1,1,0,0,0,2,0v-5.45h6.6v5.45a1,1,0,0,0,2,0V342.71a1,1,0,0,0-1-1Zm0,0"/><path class="cls-3" d="M405.3,354.62h-6.46a.07.07,0,0,1-.07-.07v-4.37h4.37a1,1,0,0,0,0-2h-4.37v-4.37a.07.07,0,0,1,.07-.07h6.46a1,1,0,0,0,0-2h-6.46a2.09,2.09,0,0,0-2.09,2.09v10.77a2.09,2.09,0,0,0,2.09,2.09h6.46a1,1,0,0,0,0-2Zm0,0"/></g><g class="cls-2"><path class="cls-3" d="M360.58,244.64a1.83,1.83,0,1,1-2.24-1.29,1.83,1.83,0,0,1,2.24,1.29Zm0,0"/><path class="cls-3" d="M393.6,187.65a1.83,1.83,0,1,1-2.24-1.29,1.83,1.83,0,0,1,2.24,1.29Zm0,0"/><path class="cls-3" d="M408.88,159.53a7.77,7.77,0,1,0,2.87,10.61,7.72,7.72,0,0,0-2.87-10.61Zm-.3,8.79a4.12,4.12,0,1,1-1.52-5.63,4.13,4.13,0,0,1,1.52,5.63Zm0,0"/><path class="cls-3" d="M374.85,224a1.83,1.83,0,0,0-2.15,1.43l-1,4.78a6,6,0,0,1-3.93,4.49l-2.4.83a1.08,1.08,0,0,1-1.41-.81l-.49-2.49a6,6,0,0,1,1.9-5.66l3.65-3.24a1.83,1.83,0,0,0-2.42-2.73L363,223.86a9.69,9.69,0,0,0-3.06,9.1l.49,2.49a4.73,4.73,0,0,0,5.88,3.65l.31-.09,2.4-.83a9.7,9.7,0,0,0,6.32-7.23l1-4.78a1.83,1.83,0,0,0-1.43-2.15Zm0,0"/><path class="cls-3" d="M422.39,135.18a4.23,4.23,0,0,0-3.44-.32l-1.61.55a55.1,55.1,0,0,0-32.53,29.71l-2.58,5.8L372,173.35H372a30.9,30.9,0,0,0-18.85,14.53l-7.56,13.16a1.83,1.83,0,0,0,2,2.69l22.23-4.8-.6,1.34a1.83,1.83,0,0,0,.35,2q.77.81,1.58,1.57l-3.53,7.58a1.83,1.83,0,0,0,.27,2,23.78,23.78,0,0,0,14,8,1.83,1.83,0,0,0,1.8-.73c.87-1.21,1.87-2.64,2.84-4l2.06-2.92c.59.17,1.19.33,1.78.47a1.83,1.83,0,0,0,1.88-.68l1-1.26L400.23,234a1.82,1.82,0,0,0,1.55,1.25,1.8,1.8,0,0,0,.66-.05,1.83,1.83,0,0,0,1.11-.85l7.56-13.16a30.89,30.89,0,0,0,3.06-23.61l-2.61-9.66,3.23-4.28a54.89,54.89,0,0,0,9.84-44.84l-.19-.87a4.23,4.23,0,0,0-2-2.78Zm-71.6,64.13,5.51-9.59a27.27,27.27,0,0,1,16.62-12.82l7.45-1.78-8.76,19.7Zm32.71,15.29-2.12,3a20.07,20.07,0,0,1-10-5.73l2.59-5.55a42.34,42.34,0,0,0,5,3.36h0a42.35,42.35,0,0,0,6,2.86l-1.43,2Zm27.15-16a27.27,27.27,0,0,1-2.7,20.83L402.43,229l-6.6-20.23,12.94-17.12Zm10.42-58.95a51.23,51.23,0,0,1-9.19,41.86L390,210.4a38.75,38.75,0,0,1-7.66-3l6.8-11.84a1.83,1.83,0,0,0-3.17-1.82l-6.8,11.83a38.64,38.64,0,0,1-6.19-4.94l15.13-34a51.44,51.44,0,0,1,30.36-27.73l1.61-.55a.58.58,0,0,1,.75.42Zm0,0"/></g><g class="cls-2"><path class="cls-3" d="M7.94,290.61l-.5-.19A6,6,0,1,0-1,283.06a6,6,0,0,0,.05,4.27l-1.75-.65L-3,278.11l3.67-1.68a9.39,9.39,0,0,0,4.92-5.3A9.46,9.46,0,0,0,0,259a9.39,9.39,0,0,0-7.23.27l-1,.47-.47-1a9.39,9.39,0,0,0-5.3-4.92,9.46,9.46,0,0,0-12.15,5.57,9.39,9.39,0,0,0,.27,7.23l1.68,3.67-5.85,6.27-1.75-.65a6,6,0,0,0,2.83-3.2A6,6,0,0,0-32.51,265a6,6,0,0,0-7.69,3.52,6,6,0,0,0,.05,4.27l-.5-.19a5,5,0,0,0-6.41,2.94l-3.47,9.34a3,3,0,0,0,1.76,3.84,3,3,0,0,0,1,.17l-6,16.06,11.21,4.16L-32.45,282l4.34,1.61,6.89-6.86.26.57a8.16,8.16,0,0,0,4.61,4.28,8.16,8.16,0,0,0,6.28-.23l.57-.26.75,9.69,4.34,1.61-10.06,27.1,11.21,4.16,6-16.06a3,3,0,0,0,.87.52,3,3,0,0,0,3.84-1.76L10.87,297A5,5,0,0,0,7.94,290.61Zm-7-6.86a4,4,0,1,1,2.35,5.12A4,4,0,0,1,.91,283.75Zm-39.24-14.57a4,4,0,0,1,5.12-2.35A4,4,0,0,1-30.85,272,4,4,0,0,1-36,274.31,4,4,0,0,1-38.33,269.18Zm-9.74,17.65a1,1,0,0,1-.59-1.28l2.08-5.61,1.87.69-1.39,3.74-.69,1.87A1,1,0,0,1-48.07,286.83Zm4.57,4.88L-47,301.06l-2.8-1,4.51-12.15,7.47,2.78-4.51,12.15-2.8-1,3.47-9.34Zm-7,10.17,2.8,1-.69,1.87-2.8-1Zm4,3.6.69-1.87,2.8,1-.69,1.87Zm12.86-26.05-3.47,9.34L-44.57,286l.35-.93,3.12-8.41L-43,276l-1,2.8-1.87-.69.69-1.87a3,3,0,0,1,3.84-1.76l11.83,4.39,1-1.07,1.08,2.35-1.19,1.18Zm7.7-.82L-27,276.19l3.73-4,1.2,2.62Zm10.27,1.11a6.18,6.18,0,0,1-3.49-3.24l-4.93-10.75A7.41,7.41,0,0,1-24.3,260a7.47,7.47,0,0,1,9.59-4.4,7.41,7.41,0,0,1,4.18,3.88l1.31,2.85,2.85-1.31a7.41,7.41,0,0,1,5.71-.21,7.47,7.47,0,0,1,4.4,9.59,7.41,7.41,0,0,1-3.88,4.18l-10.75,4.93A6.18,6.18,0,0,1-15.66,279.73ZM-4.95,279l.09,2.3-2.57.76-.14-1.85Zm-1.92,10.36-.41-5.27,2.5-.74.19,4.73,11.83,4.39A3,3,0,0,1,9,296.33l-2.08,5.61-1.87-.69,2.43-6.54L5.61,294l-3.12,8.41-.35.93-7.47-2.78,3.47-9.34Zm2.61,16.91-3.47,9.34-2.8-1L-6,302.44l7.47,2.78-4.51,12.15-2.8-1L-2.39,307Zm-7,10.17,2.8,1-.69,1.87-2.8-1Zm4,3.6.69-1.87,2.8,1-.69,1.87Zm11.5-13.8A1,1,0,0,1,3.67,305l.69-1.87,1.87.69-.69,1.87A1,1,0,0,1,4.25,306.26Z"/></g><g class="cls-2"><path class="cls-3" d="M335.26,389.57,319,382a2.24,2.24,0,0,0-3,1.1l-13.18,28.52a2.24,2.24,0,0,0,1.1,3l16.3,7.53a2.24,2.24,0,0,0,3-1.1l13.18-28.52a2.24,2.24,0,0,0-1.1-3ZM318,384.08l16.3,7.53-1.88,4.07-16.3-7.53Zm13.47,13.64L324,414l-16.3-7.53,7.53-16.3ZM304.84,412.6l1.88-4.07,16.3,7.53-1.88,4.07Zm0,0"/></g><g class="cls-2"><path class="cls-3" d="M232.92,383l-.06-.13a5.89,5.89,0,0,0-7.74-3l-15.7,6.59A24.41,24.41,0,0,0,207.91,374c-.27-.67-.56-1.35-.87-2.07l-.63-1.49a5.52,5.52,0,0,0-7.24-2.85,5.62,5.62,0,0,0-3.05,3,5.16,5.16,0,0,0-.28,2.86,24.27,24.27,0,0,1,.45,5.07,33.89,33.89,0,0,1-4.16,15.62,33.2,33.2,0,0,1-2.34,3.64,4,4,0,0,0-4.65-1.13l-20.28,8.51a1.4,1.4,0,0,0-.78,1.82l13.8,32.89a1.4,1.4,0,0,0,1.84.72L200,432.06a4,4,0,0,0,2.3-4.81,15.2,15.2,0,0,0,10.42-.53L240,415.29a5.89,5.89,0,0,0,3.26-7.65,5.72,5.72,0,0,0-3.65-3.26,5.72,5.72,0,0,0,.23-4.89l-.07-.16a5.72,5.72,0,0,0-3.65-3.26,5.72,5.72,0,0,0,.23-4.89v0a5.72,5.72,0,0,0-3.65-3.26,5.72,5.72,0,0,0,.23-4.89ZM188.19,400.9,199.58,428a1.14,1.14,0,0,1-.63,1.48l-4.77,2-4.65-11.09a1.42,1.42,0,0,0-2.62,1.1l4.65,11.09L180,437.48l-12.73-30.35,19-8a1.14,1.14,0,0,1,1.49.59ZM226,392.2l3.63-1.52a3.08,3.08,0,0,1,4.06,1.59v0a3.08,3.08,0,0,1-1.71,4l-3.63,1.52a1.38,1.38,0,1,0,1.07,2.55l3.63-1.52a3.08,3.08,0,0,1,4.06,1.59l.07.16a3.08,3.08,0,0,1-1.71,4l-3.63,1.52a1.38,1.38,0,1,0,1.07,2.55l3.63-1.52a3,3,0,1,1,2.35,5.6l-27.26,11.44a12.31,12.31,0,0,1-9.08.21l-1.72-.64-9.73-23.18a36.18,36.18,0,0,0,3.48-5.18,36.64,36.64,0,0,0,4.5-16.88,26.83,26.83,0,0,0-.49-5.64,2.4,2.4,0,0,1,.13-1.35,2.69,2.69,0,0,1,1.42-1.42l.06,0a2.71,2.71,0,0,1,3.56,1.4l.64,1.51c.3.71.59,1.37.84,2a21.85,21.85,0,0,1,.9,13.42,1.35,1.35,0,0,0,.45,1.37,1.42,1.42,0,0,0,1.46.2l18.1-7.6a3.08,3.08,0,0,1,4.06,1.59l.06.13h0a3.08,3.08,0,0,1-1.71,4L225,389.65A1.38,1.38,0,1,0,226,392.2Zm0,0"/></g><g class="cls-2"><path class="cls-3" d="M127.12,443.15c5.74-10,3.38-22.15-5.27-27.13a15.53,15.53,0,0,0-1.42-.71,24.36,24.36,0,0,0,1.6-2.4c5.74-10,3.38-22.15-5.27-27.12s-20.36-.91-26.1,9.07c-5,8.71-3.85,19.09,2.28,24.9l-2.06,1a3.53,3.53,0,0,0-.19,6.22l1.77,1L73.71,460.6,76.12,462,93,432.74c-1.16,6.57.68,13.09,5.08,17.25L96,451a3.53,3.53,0,0,0-.19,6.22l.56.32-6.94,12.07L91.81,471l6.94-12.07.56.32a3.53,3.53,0,0,0,5.28-3.29l-.15-2.3c8.1,2.38,17.66-1.82,22.68-10.53Zm-32-16.82-3-1.74a.74.74,0,0,1,0-1.31L94.79,422a1.2,1.2,0,0,1,1.14,0c.46.26.93.5,1.41.72a24,24,0,0,0-1.59,2.39c-.23.41-.43.82-.64,1.24Zm4.13-5.87a13.22,13.22,0,0,1-1.92-.89c-7.32-4.21-9.22-14.67-4.25-23.32s15-12.26,22.3-8,9.22,14.67,4.25,23.32a21.32,21.32,0,0,1-2,2.85c-6.3-1.51-13.34.83-18.4,6.09Zm1.47,36.39-3.54-2a.75.75,0,0,1,0-1.31l2.67-1.32a1.21,1.21,0,0,1,1.74,1l.2,3a.74.74,0,0,1-.1.42.75.75,0,0,1-1,.27Zm1.7-7.05c-7.32-4.21-9.22-14.67-4.25-23.32s15-12.26,22.3-8,9.22,14.67,4.25,23.32-15,12.26-22.3,8Zm0,0"/><path class="cls-3" d="M95.48,397.64,97.9,399a16,16,0,0,1,1.46-2.13l-2.15-1.76a18.83,18.83,0,0,0-1.72,2.5Zm0,0"/><path class="cls-3" d="M99.4,392.89l1.81,2.11c3.61-3.1,8.08-3.87,11.38-2l1.39-2.41c-4.34-2.5-10.06-1.61-14.58,2.27Zm0,0"/><path class="cls-3" d="M64.55,435l-2-1.79a12.56,12.56,0,0,0,9.63-4.1,5.54,5.54,0,0,0,7.19-6.47c.55-.46,6.87-5.83,6.31-12.79-.36-4.58-3.59-8.64-9.58-12.09S65,393.56,60.88,395.55c-6.29,3-7.77,11.17-7.88,11.88a5.52,5.52,0,0,0-3.13,2.5,5.57,5.57,0,0,0,1.15,7,12.56,12.56,0,0,0,1.29,10.38l-2.53-.79a9.7,9.7,0,0,0-8.89,1.6L33,433.61l-1.54,2.68,33.78,19.44,1.54-2.68.82-9.5A9.74,9.74,0,0,0,64.55,435Zm9.45-8.4,2.39-4.15A2.76,2.76,0,0,1,74,426.59Zm-21.72-12.5a2.76,2.76,0,0,1,2.39-4.15ZM57,406l-.79,1.38-.3-.07c.42-1.83,2-7.21,6.23-9.24,3.26-1.56,7.52-.85,12.67,2.11s7.9,6.29,8.19,9.89c.38,4.69-3.49,8.75-4.86,10l-.21-.22,1.49-2.58c1.2-2.09,2-6.9-3.77-10.2-3.42-2-5.84-.73-8,.35-2.32,1.18-4.33,2.2-8.26-.06Zm-2.45,9.83,3.47-6c5.23,3,8.38,1.41,10.91.12,1.94-1,3.22-1.63,5.33-.42,4.63,2.66,2.94,6,2.74,6.4l-5.55,9.65a9.74,9.74,0,1,1-16.89-9.72Zm4.77,16.83-.51.88a5.92,5.92,0,0,1-4.83-2.78l.51-.88a12.14,12.14,0,0,0,4.83,2.78ZM58.2,448.46l3.47-6L59.26,441l-3.47,6-12.07-6.94,3.47-6-2.41-1.39-3.47,6-5.91-3.4,7.15-5a7,7,0,0,1,6.39-1.18l2.3.72-.35.6L51,431A8.3,8.3,0,0,0,60,436.17l.56-.15.35-.6L62.67,437a7,7,0,0,1,2.18,6.2l-.74,8.62Zm0,0"/></g></svg>