<svg id="Skycabhr_hero" xmlns="http://www.w3.org/2000/svg" viewBox="0 0 2880 450"><defs><style>.cls-1{fill:#aff3ee;}.cls-1,.cls-2,.cls-4{opacity:0.3;}.cls-2{fill:#2a98a0;}.cls-3{fill:#5fd4cc;opacity:0.5;}.cls-4{fill:#03b3a7;}.cls-5{fill:#fafafa;}</style></defs><title>Skycabhr_home_pattern</title><path class="cls-1" d="M290.5,450c746-26,739-280,987-99,152.81,111.53,151,40,279,59,155,23,260-132,309-104,219.65,125.51,357,64,522,104s214,40,214,40Z"/><path class="cls-2" d="M290.5,450c304-23,478-284,777-116,266,178,422.42-26.08,483,17,270,192,300-108,547-71,63.76,9.55,125,90,290,130s214,40,214,40Z"/><path class="cls-3" d="M320.5,450c160-46,511-225,727-67,158.36,115.84,282-102,459-75s174,97,339,90,204-135,381-71,326,123,326,123Z"/><path class="cls-4" d="M554.5,450c120-35,211-159,505-63,137,20,195,50,478,1s202,7,511,20,339,42,339,42Z"/><path class="cls-5" d="M0,448.5c67,0,118,1.5,172.7-24C284.48,365,445.28,291.7,639.5,346.23,868.42,410.51,1143.76,448,1440,448s571.58-37.49,800.5-101.77c194.22-54.54,355,18.77,466.8,78.25,54.7,25.51,105.7,24,172.7,24v7H0Z"/></svg>