<svg id="Layer_1" data-name="Layer 1" xmlns="http://www.w3.org/2000/svg" viewBox="0 0 600 200"><defs><style>.cls-1{fill:#fff;}</style></defs><title>skycabhr_white</title><path class="cls-1" d="M0,129.43l3.6-8.76a34.94,34.94,0,0,0,21.72,7.2q6.24,0,9.48-2.1A6.68,6.68,0,0,0,38,119.83a6.3,6.3,0,0,0-2.22-5.1q-2.22-1.86-7.5-3.18l-10.08-2.4q-7.92-1.68-12.06-5.94A14.63,14.63,0,0,1,2,92.59a15.88,15.88,0,0,1,6.54-13.2q6.54-5,17.34-5a36.93,36.93,0,0,1,12.3,2,28.51,28.51,0,0,1,9.9,5.76L44.4,90.67q-8.76-7-18.48-7-5.88,0-9.12,2.22a7.08,7.08,0,0,0-3.24,6.18,6.59,6.59,0,0,0,2,5,14.4,14.4,0,0,0,6.48,3l10.32,2.52q8.64,1.92,12.78,6.06a14.53,14.53,0,0,1,4.14,10.74,15.09,15.09,0,0,1-6.54,12.9q-6.54,4.74-17.82,4.74Q9.12,137.11,0,129.43Z"/><path class="cls-1" d="M117.18,136.27H101.7L72.78,107.71v28.56h-12V48h12v55.2L99.66,75.91h15L85.74,105Z"/><path class="cls-1" d="M182.13,75.79l-28.2,65.4q-4.68,10.68-11.7,15.66a40.93,40.93,0,0,1-17.34,6.66l-2.64-9.36q8.52-1.92,12.9-5a20.94,20.94,0,0,0,7-9.18l2.16-5L118.89,75.79h12.84l19,46.8L170,75.79Z"/><path class="cls-1" d="M197.61,133.27a25.65,25.65,0,0,1-10.38-10.86,35.44,35.44,0,0,1-3.6-16.38,35.09,35.09,0,0,1,3.78-16.56A27.2,27.2,0,0,1,198,78.31a31.28,31.28,0,0,1,16-4,36.16,36.16,0,0,1,12.24,2.1,25.14,25.14,0,0,1,9.48,5.7L232,90.91q-8.52-6.72-17.16-6.72t-13.68,5.7q-4.92,5.7-4.92,16t4.92,15.9q4.92,5.58,13.68,5.58T232,120.67l3.72,8.76a26.79,26.79,0,0,1-9.78,5.64,38,38,0,0,1-12.42,2A31.7,31.7,0,0,1,197.61,133.27Z"/><path class="cls-1" d="M299.68,75.79v60.48h-12V126a18.53,18.53,0,0,1-7.86,8.28,24.81,24.81,0,0,1-12.18,2.88,24.91,24.91,0,0,1-23.52-14.7A37.55,37.55,0,0,1,240.76,106a38.15,38.15,0,0,1,3.42-16.56,26.41,26.41,0,0,1,9.54-11.16,25,25,0,0,1,13.92-4,24.09,24.09,0,0,1,12.12,2.94,19.73,19.73,0,0,1,7.92,8.34V75.79Zm-16.5,46q4.5-5.7,4.5-16t-4.5-16.08q-4.5-5.64-12.78-5.64t-12.78,5.82Q253,95.71,253,106t4.62,15.84q4.62,5.64,12.9,5.64T283.18,121.81Z"/><path class="cls-1" d="M360.47,78.19A25.39,25.39,0,0,1,370,89.11a38,38,0,0,1,3.36,16.44,37.77,37.77,0,0,1-3.42,16.5,26.5,26.5,0,0,1-9.54,11.1,25.07,25.07,0,0,1-13.92,4,24.39,24.39,0,0,1-12.18-2.94,18.73,18.73,0,0,1-7.86-8.46v10.56h-12V48h12v37.8a19.22,19.22,0,0,1,7.86-8.4,24,24,0,0,1,12.18-3A25.87,25.87,0,0,1,360.47,78.19Zm-4.08,43.5q4.56-5.82,4.56-16.14t-4.56-15.84q-4.56-5.64-12.72-5.64t-12.78,5.64q-4.5,5.64-4.5,16.08t4.5,16.08q4.5,5.64,12.78,5.64T356.39,121.69Z"/><path class="cls-1" d="M493,36.49H402a12,12,0,0,0-12,12v91a12,12,0,0,0,12,12h91a12,12,0,0,0,12-12v-91A12,12,0,0,0,493,36.49ZM449,130.79h-10.1V100q0-6.6-2.55-9.6t-8.15-3a13.58,13.58,0,0,0-10.25,4q-3.85,4-3.85,10.7v28.7h-10V57.19h10v31a16.67,16.67,0,0,1,6.9-6.7,21,21,0,0,1,9.9-2.3q18.1,0,18.1,20.2Zm41.56-41.7a16.88,16.88,0,0,0-5.9-1q-6.9,0-10.35,4.15a15.79,15.79,0,0,0-3.45,10.45v28.1h-10V94.59a113.64,113.64,0,0,0-.8-14.2h9.4l.9,9.1a15.59,15.59,0,0,1,6.2-7.65,17.26,17.26,0,0,1,9.4-2.65,17.86,17.86,0,0,1,4.8.7Z"/></svg>