<svg width="172" height="157" viewBox="0 0 172 157" xmlns="http://www.w3.org/2000/svg" xmlns:xlink="http://www.w3.org/1999/xlink"><defs><path d="M5.927 0h82.911a5 5 0 0 1 4.905 5.971l-8.586 43.37a5 5 0 0 1-4.904 4.029h-65.74a5 5 0 0 1-4.906-4.03L1.022 5.972A5 5 0 0 1 5.927 0z" id="a"/><path d="M.144 23.93H.141V5.317a29.38 29.38 0 0 0 9.492-.531c3.162-.697 7.03-2.115 11.6-4.255.024 4.962 2.837 8.33 8.438 10.105V23.93h-.031c-.164 7.816-6.704 12.232-14.748 12.232S.307 31.747.144 23.931z" id="b"/><path d="M10.616 33.986v7.429c0 .495.25.928.688 1.114.188.063.376.124.561.124.25 0 .561-.063.75-.247l10.616-8.42h15.485c4.808 0 8.743-3.9 8.743-8.667V8.667C47.46 3.9 43.524 0 38.716 0H8.743C3.935 0 0 3.9 0 8.667v16.652c0 4.766 3.935 8.667 8.743 8.667h1.873z" id="e"/><filter x="-59%" y="-42.2%" width="218%" height="231.3%" filterUnits="objectBoundingBox" id="d"><feMorphology radius=".5" operator="dilate" in="SourceAlpha" result="shadowSpreadOuter1"/><feOffset dy="10" in="shadowSpreadOuter1" result="shadowOffsetOuter1"/><feGaussianBlur stdDeviation="7.5" in="shadowOffsetOuter1" result="shadowBlurOuter1"/><feComposite in="shadowBlurOuter1" in2="SourceAlpha" operator="out" result="shadowBlurOuter1"/><feColorMatrix values="0 0 0 0 0 0 0 0 0 0 0 0 0 0 0 0 0 0 0.0502717391 0" in="shadowBlurOuter1"/></filter></defs><g fill="none" fill-rule="evenodd"><g transform="matrix(-1 0 0 1 27 125)"><path d="M.59 4.683v15.784C3.3 22.822 6.838 24 11.2 24c4.363 0 7.72-1.178 10.073-3.533V4.783c-2.497 1.97-5.67 2.955-9.518 2.955-3.847 0-7.569-1.018-11.164-3.055z" fill="#F7F9F9"/><ellipse stroke="#E2E5EC" fill="#D3D7DF" cx="10.932" cy="3.805" rx="10.341" ry="3.805"/><ellipse fill="#9E6939" cx="11.227" cy="5.561" rx="8.864" ry="2.049"/><path d="M.59 4.098v15.804M21.273 4.098v15.804" stroke="#E2E5EC"/><path d="M21.864 16.976v-8.78c2.284 0 4.136 2.116 4.136 4.38 0 2.262-1.852 4.4-4.136 4.4z" stroke="#E2E5EC" stroke-width="2" stroke-linecap="round" stroke-linejoin="round"/><path d="M.59 20.488C3.02 22.829 6.469 24 10.933 24s7.91-1.17 10.34-3.512" stroke="#E2E5EC" stroke-linecap="round"/><path d="M.59 4.683v15.385c.54.427 1.13.762 1.774 1.005V5.976L.59 4.683z" fill="#9DA5B2" opacity=".2"/></g><g transform="translate(39 103)"><use fill="#E2E5EC" xlink:href="#a"/><path stroke="#BAC1D3" d="M5.927.5a4.5 4.5 0 0 0-4.415 5.374l8.586 43.37a4.5 4.5 0 0 0 4.414 3.626h65.74a4.5 4.5 0 0 0 4.415-3.626l8.585-43.37A4.5 4.5 0 0 0 88.838.5H5.927z"/><path d="M13.838 52.835h66.83c2.635-1.31 3.952-2.733 3.952-4.268-1.22 1.438-2.653 2.157-4.296 2.157H14.347c-2.256.032-3.671-.687-4.246-2.157.616 2.39 1.685 3.818 3.21 4.283l.527-.015z" fill="#373C50" opacity=".05"/><path d="M88.866.613c2.603 1.31 3.904 2.733 3.904 4.268-1.206-2.04-2.62-3.06-4.244-3.06H6.159c-2.229.57-3.627 1.59-4.195 3.06C2.92 2.501 4.15 1.078 5.656.613h83.21z" fill="#FFF" opacity=".25"/><ellipse fill="#9DA5B2" opacity=".497" cx="47.487" cy="26.685" rx="5.283" ry="5.337"/></g><g transform="translate(63 48)"><path fill="#FFDBC3" d="M18.94 50.981h8.338v4.784H18.94z"/><path d="M19.019 52.627c3.12.743 6.087.743 8.898 0l-.017-1.57h-8.916" fill="#804A54" opacity=".3"/><path d="M10.638 55.761h7.735v-5.36c-.31.101-.509.101-.596 0-4.692-5.458-9.498-8.974-9.498-11.924V20.08c7.568.796 14.67-.806 21.304-4.806-.065.788-.065 1.373 0 1.755.743 4.35 3.796 7.28 8.287 8.37v13.078c-4.53 5.78-7.684 9.756-9.461 11.925-.093.113-.462-.039-.593 0v5.36h7.724c.101-5.86 4.024-9.192 11.767-9.995-3.093-6.664-4.689-12.751-4.787-18.26-.147-8.264-.88-22.828-12.859-25.319-2.63.566-4.307 1.225-5.032 1.978C25.258 1.71 23.053.48 18.014.48 10.455.481 2.143 7.47 1.566 21.623c3.93 12.96 3.435 21.468-1.483 25.525l2.06.06c4.202.67 6.805 2.653 7.809 5.948l.686 2.605z" fill="#E7AA51"/><g transform="translate(8.296 14.894)"><mask id="c" fill="#fff"><use xlink:href="#b"/></mask><use stroke="#7F4953" fill="#FFDBC3" stroke-linecap="round" stroke-linejoin="round" xlink:href="#b"/><path d="M7.523 25.526c1.426 1.773 3.887 2.66 7.383 2.66s5.957-.887 7.383-2.66" stroke="#7F4953" stroke-width="2" stroke-linecap="round" stroke-linejoin="round" mask="url(#c)"/><path d="M14.906 28.186c6.802-2.343 11.894-5.461 15.276-9.354" stroke="#373C50" stroke-width="2" mask="url(#c)"/></g><path d="M8.94 40.588c.387.39 1.215-18.255 1.616-18.225 6.518.486 12.398-.69 18.464-3.715 1.51 4.088 4.326 6.758 8.45 8.011v-1.093c-5.176-2.198-7.763-5.536-7.763-10.012-5.936 3.456-12.859 5.184-20.767 5.184-.28 12.951-.28 19.568 0 19.85z" fill="#DF9F84" opacity=".5"/><path d="M20.566 33.528c-.005 1.758.87 2.637 2.625 2.637 1.756 0 2.638-.886 2.648-2.659" stroke="#7F4953" stroke-linecap="round" stroke-linejoin="round"/><ellipse fill="#373C50" cx="15.82" cy="27.656" rx="1.582" ry="1.596"/><ellipse fill="#373C50" cx="30.585" cy="27.656" rx="1.582" ry="1.596"/><path d="M27.948 21.274l5.273 2.127m-20.565 0l6.328-1.596" stroke="#7F4953" stroke-width="2"/><ellipse fill="#373C50" opacity=".2" cx="23.73" cy="43.611" rx="3.164" ry="3.191"/><ellipse fill="#373C50" cx="23.73" cy="42.547" rx="3.164" ry="3.191"/><path d="M18.612 50.405v5.318m8.922-5.309v5.33" stroke="#7F4953"/><path d="M10.546 55.843C9.845 50.17 6.33 47.333 0 47.333c2.812-3.363 4.217-7.087 4.217-11.17 0-6.124-2.635-11.207-2.635-15.421C1.582 16.528 4.119.53 18.456.53c5.609.7 7.542 1.942 5.8 3.724 1.772-1.419 3.705-2.128 5.802-2.128 3.144 0 12.128 6.11 12.128 18.615 0 12.505 3.973 24.996 5.273 24.996 1.3 0-12.128.213-12.128 10.105" stroke="#D17358" stroke-linecap="round" stroke-linejoin="round"/></g><g fill-rule="nonzero"><g transform="matrix(-1 0 0 1 62.46 5)"><use fill="#000" filter="url(#d)" xlink:href="#e"/><use stroke-opacity=".246" stroke="#373C50" fill="#F7F9F9" fill-rule="evenodd" xlink:href="#e"/></g><path d="M27.419 30.9c2.25-4.268 4.786-7.502 12.074-7.179.127 0 .317.195.317.324v3.233c0 .227.317.647.634.324l8.461-7.31a.246.246 0 0 0 0-.387l-8.46-6.856c-.16-.128-.635 0-.635.324v3.234c0 .128-.19.323-.317.323-12.676 1.294-12.01 11.319-12.485 13.744-.065.259.285.452.41.226z" fill="#373C50" opacity=".75"/></g><path d="M170.505 142.004h-4.232m-6.283 0h-34.392m-79.695 0h-5.29m-5.16 0h-7.936" opacity=".1" stroke="#373C50" stroke-linecap="round" stroke-linejoin="round" stroke-width="2"/></g></svg>