<svg width="173" height="157" viewBox="0 0 173 157" xmlns="http://www.w3.org/2000/svg" xmlns:xlink="http://www.w3.org/1999/xlink"><defs><path d="M5.929 0h83.083a5 5 0 0 1 4.904 5.974l-8.598 43.287a5 5 0 0 1-4.905 4.026H14.527a5 5 0 0 1-4.904-4.026L1.024 5.974A5 5 0 0 1 5.93 0z" id="a"/><path d="M10.655 33.968v7.424c0 .496.25.928.69 1.114.19.063.378.124.564.124.25 0 .563-.063.752-.247l10.655-8.416h15.543c4.825 0 8.775-3.898 8.775-8.662V8.662c0-4.764-3.95-8.662-8.775-8.662H8.775C3.95 0 0 3.898 0 8.662v16.643c0 4.764 3.95 8.662 8.775 8.662h1.88z" id="c"/><filter x="-58.8%" y="-42.2%" width="217.6%" height="231.4%" filterUnits="objectBoundingBox" id="b"><feMorphology radius=".5" operator="dilate" in="SourceAlpha" result="shadowSpreadOuter1"/><feOffset dy="10" in="shadowSpreadOuter1" result="shadowOffsetOuter1"/><feGaussianBlur stdDeviation="7.5" in="shadowOffsetOuter1" result="shadowBlurOuter1"/><feComposite in="shadowBlurOuter1" in2="SourceAlpha" operator="out" result="shadowBlurOuter1"/><feColorMatrix values="0 0 0 0 0 0 0 0 0 0 0 0 0 0 0 0 0 0 0.0502717391 0" in="shadowBlurOuter1"/></filter></defs><g fill="none" fill-rule="evenodd"><g transform="translate(145.72 125.574)"><path d="M.597 4.775V20.87c2.74 2.402 6.314 3.603 10.724 3.603s7.803-1.2 10.181-3.603V4.877c-2.524 2.01-5.73 3.014-9.62 3.014-3.89 0-7.65-1.039-11.285-3.116z" fill="#F7F9F9"/><ellipse stroke="#E2E5EC" fill="#D3D7DF" cx="11.05" cy="3.88" rx="10.452" ry="3.88"/><ellipse fill="#9E6939" cx="11.217" cy="5.231" rx="8.493" ry="1.649"/><path d="M.597 4.178v16.117M21.502 4.178v16.117" stroke="#E2E5EC"/><path d="M22.1 17.31V8.357c2.309 0 4.18 2.158 4.18 4.466 0 2.308-1.871 4.487-4.18 4.487z" stroke="#E2E5EC" stroke-width="2" stroke-linecap="round" stroke-linejoin="round"/><path d="M.597 20.891c2.456 2.388 5.94 3.582 10.453 3.582 4.512 0 7.996-1.194 10.452-3.582" stroke="#E2E5EC" stroke-linecap="round"/><path d="M.597 4.775v15.688a6.632 6.632 0 0 0 1.792 1.025V6.094L.597 4.775z" fill="#9DA5B2" opacity=".1"/></g><g transform="translate(39 103.581)"><use fill="#E2E5EC" xlink:href="#a"/><path stroke="#BAC1D3" d="M5.929.5a4.5 4.5 0 0 0-4.414 5.377l8.599 43.287a4.5 4.5 0 0 0 4.413 3.623h65.886a4.5 4.5 0 0 0 4.414-3.623l8.6-43.287A4.5 4.5 0 0 0 89.011.5H5.93z"/><path d="M88.665.597c2.608 1.308 3.912 2.729 3.912 4.262-1.21-2.037-2.627-3.055-4.253-3.055H5.8c-2.232.568-3.633 1.587-4.203 3.055.958-2.377 2.191-3.798 3.7-4.262h83.368z" fill="#FFF" opacity=".25"/><path d="M13.863 52.754h66.956c2.64-1.309 3.96-2.73 3.96-4.263-1.224 1.436-2.658 2.154-4.304 2.154H14.372c-2.26.033-3.678-.685-4.254-2.154.617 2.387 1.689 3.813 3.216 4.277l.529-.014z" fill="#373C50" opacity=".05"/><ellipse fill="#9DA5B2" opacity=".497" cx="47.575" cy="26.644" rx="5.293" ry="5.329"/></g><g transform="translate(67.522 44.901)"><path fill="#FFDBC3" d="M14.819 53.884h8.468v4.796h-8.468z"/><path d="M14.852 55.458c2.96.744 5.771.744 8.436 0l-.017-1.574H14.82" fill="#804A54" opacity=".3"/><path d="M2.017 27.24C.672 22.506 0 19.273 0 17.54 0 14.942 1.335 2.755 17.995.75c3.244 1.175 6.738 1.175 10.482 0 5.616-1.762 6.926 3.87 3.467 5.231 3.152 1.836 4.43 8.416 3.832 19.74h-1.67c-.199-4.138-.426-6.591-.682-7.36-.256-.767-1.271-2.406-3.046-4.915-.484-.314-.927-.314-1.328 0-.603.473-3.697 1.35-5.661 0-1.965-1.35-3.225-3.507-7.782-3.096-4.558.41-10.231 2.16-10.992 10.805l-.417 5.333-2.181.752z" fill="#BC7856"/><path d="M33.865 22.435h.008v19.19h-.038c-.287 7.699-6.788 12.26-14.782 12.26-7.993 0-14.521-4.561-14.809-12.26h-.01v-19.19h.045c.424-8.164 4.538-12.246 12.34-12.246 6.071 0 4.505 3.702 9.157 3.702s3.076-2.378 5.393.544c2.14 2.697 2.633 6.142 2.696 8z" stroke="#7F4953" fill="#FFDBC3" stroke-linecap="round" stroke-linejoin="round"/><path d="M19.08 41.343v-.146c12.534 0 12.53-3.609 12.53-4.793 0-.79.617-1.185 1.851-1.187v9.239c-1.496 5.52-6.29 8.6-14.381 9.238v.145c-8.091-.639-12.885-3.718-14.381-9.238v-9.239c1.234.002 1.85.397 1.85 1.187 0 1.184-.003 4.794 12.531 4.794z" fill="#825059" opacity=".153"/><path d="M5.323 25.147c.483-6.755 2.615-10.845 6.397-12.268 3.782-1.424 6.582-1.424 8.398 0 2.418 1.554 4.47 2.286 6.152 2.194 2.524-.136 3.865-1.898 4.47-.737-.558-.953-.917-1.44-1.076-1.457-.239-.027-1.914 1.134-3.703 1.02-1.79-.113-3.862-1.353-5.843-3.143-1.321-1.194-4.475-1.026-9.46.504-3.17 1.864-5.102 4.334-5.798 7.41-.696 3.074-.74 5.234-.132 6.477h.595z" fill="#DF9F84" opacity=".5"/><path d="M4.234 34.7v-7.992c-2.046 0-3.705 1.927-3.705 3.987s1.659 4.006 3.705 4.006z" stroke="#7F4953" fill="#FFDBC3" stroke-linecap="round" stroke-linejoin="round"/><path d="M34.402 34.7v-7.992c2.046 0 3.705 1.927 3.705 3.987s-1.659 4.006-3.705 4.006z" stroke="#373C50" stroke-width="4" fill="#373C50" stroke-linecap="round" stroke-linejoin="round"/><path d="M1.916 27.24C-2.961 13.6 1.473 5.05 15.219 1.592c5.645-1.42 4.653 1.275 11.679-.565 7.026-1.84 9.905 2.687 4.248 4.924 3.492 0 5.044 6.627 4.655 19.882" stroke="#905F64" stroke-linecap="round" stroke-linejoin="round"/><path d="M11.644 43.227c1.43 1.776 3.9 2.664 7.41 2.664 3.508 0 5.978-.888 7.41-2.664" stroke="#7F4953" stroke-width="2" stroke-linecap="round" stroke-linejoin="round"/><path d="M16.407 36.854c-.005 1.762.874 2.643 2.635 2.643 1.762 0 2.648-.889 2.658-2.665" stroke="#7F4953" stroke-linecap="round" stroke-linejoin="round"/><path fill="#F7F9F9" opacity=".2" d="M12.173 26.175h2.646l-2.646 6.394H9.527zm-2.804 0h1.216L7.94 32.569H6.722zm21.328 0h2.647l-2.647 6.394h-2.646zm-2.647 0h1.218l-2.647 6.394h-1.216z"/><ellipse fill="#373C50" cx="10.585" cy="29.372" rx="1.588" ry="1.599"/><ellipse fill="#373C50" cx="27.522" cy="29.372" rx="1.588" ry="1.599"/><path d="M5.557 33.901h9.658m7.808 0h9.658m-16.009-4.263h4.895" stroke="#707482" opacity=".2" stroke-linecap="square"/><rect stroke="#373C50" stroke-width="1.5" fill-opacity=".05" fill="#F7F9F9" stroke-linecap="round" stroke-linejoin="round" x="4.763" y="25.642" width="11.115" height="7.46" rx="1.5"/><rect stroke="#373C50" stroke-width="1.5" fill-opacity=".05" fill="#F7F9F9" stroke-linecap="round" stroke-linejoin="round" x="22.229" y="25.642" width="11.115" height="7.46" rx="1.5"/><path fill="#373C50" d="M15.878 28.306h6.351v1.066h-6.351z"/><path d="M24.346 20.313l5.822 2.132m-21.7-1.066l6.351-1.066" stroke="#7F4953" stroke-width="2"/><ellipse fill="#373C50" opacity=".2" cx="19.583" cy="46.424" rx="3.176" ry="3.197"/><ellipse fill="#373C50" cx="19.583" cy="45.358" rx="3.176" ry="3.197"/><path d="M19.053 46.957C30.697 43.012 36.52 37.683 36.52 30.97" stroke="#373C50" stroke-width="4" opacity=".2"/><path d="M19.053 45.891c11.644-3.945 17.466-9.273 17.466-15.986" stroke="#373C50" stroke-width="2"/><path d="M14.592 53.25v5.36m8.948-5.374v5.337" stroke="#7F4953"/></g><g fill-rule="nonzero"><g transform="translate(110.392 5)"><use fill="#000" filter="url(#b)" xlink:href="#c"/><use stroke-opacity=".246" stroke="#373C50" fill="#FFF" fill-rule="evenodd" xlink:href="#c"/></g><path d="M134.707 32.042c-.724.273-1.557.123-2.109-.382-.554-.503-.72-1.262-.42-1.921.3-.658 1.006-1.089 1.788-1.089.513 0 1.006.187 1.369.517.362.33.567.78.567 1.247 0 .713-.471 1.356-1.195 1.628zm-4.316-14.296a1.873 1.873 0 0 0 1.099-.893c.45-.863 1.4-1.418 2.449-1.428 1.483.017 2.695 1.082 2.77 2.43.038 1.1-.718 2.092-1.861 2.445-1.66.495-2.787 1.897-2.806 3.486v1.4c0 .969.862 1.754 1.926 1.754s1.927-.785 1.927-1.754v-1.4c0-.103.191-.164.191-.164 1.336-.408 2.493-1.198 3.298-2.253a5.6 5.6 0 0 0 1.173-3.6c-.063-1.558-.784-3.034-2.011-4.123-1.228-1.087-2.867-1.703-4.58-1.719h-.04a7.033 7.033 0 0 0-3.475.932 6.18 6.18 0 0 0-2.402 2.47 1.61 1.61 0 0 0-.084 1.34c.168.439.522.8.983 1 .431.203.961.23 1.443.077z" fill="#373C50" opacity=".75"/></g><path d="M1.498 143.004H5.76m6.327 0h34.63m80.249 0h5.327m5.195 0h7.992" opacity=".1" stroke="#373C50" stroke-linecap="round" stroke-linejoin="round" stroke-width="2"/></g></svg>