<svg width="340" height="260" viewBox="0 0 340 260" xmlns="http://www.w3.org/2000/svg" xmlns:xlink="http://www.w3.org/1999/xlink"><defs><path d="M10.234 0h135.137c5.523 0 10 4.477 10 10a10 10 0 0 1-.191 1.947l-13.752 69.274a10 10 0 0 1-9.809 8.052H23.986a10 10 0 0 1-9.808-8.052L.426 11.947A10 10 0 0 1 10.235 0z" id="a"/><path d="M17.84 56.907v12.439c0 .83.418 1.554 1.156 1.866.315.105.63.207.942.207.419 0 .943-.106 1.259-.413l17.84-14.1h26.022c8.08 0 14.691-6.53 14.691-14.511V14.512C79.75 6.532 73.138 0 65.06 0H14.692C6.612 0 0 6.531 0 14.512v27.883c0 7.98 6.612 14.511 14.692 14.511h3.148z" id="c"/><filter x="-35.1%" y="-25.2%" width="170.2%" height="178.4%" filterUnits="objectBoundingBox" id="b"><feMorphology radius=".5" operator="dilate" in="SourceAlpha" result="shadowSpreadOuter1"/><feOffset dy="10" in="shadowSpreadOuter1" result="shadowOffsetOuter1"/><feGaussianBlur stdDeviation="7.5" in="shadowOffsetOuter1" result="shadowBlurOuter1"/><feComposite in="shadowBlurOuter1" in2="SourceAlpha" operator="out" result="shadowBlurOuter1"/><feColorMatrix values="0 0 0 0 0 0 0 0 0 0 0 0 0 0 0 0 0 0 0.0502717391 0" in="shadowBlurOuter1"/></filter></defs><g fill="none" fill-rule="evenodd"><path d="M1 53.227h168.79M14.326 30.893H192M62.298 96.107h84.395M14.326 74.667h137.697M76.512 32.68v18.537m63.962-18.537v18.537M44.53 55.013V73.55m31.982 2.903V94.99m31.981-39.977V73.55m31.981 2.903V94.99" opacity=".1" stroke="#373C50" stroke-linecap="round" stroke-linejoin="round" stroke-width="2"/><g transform="translate(295 207)"><path d="M1 8v26.965C5.586 38.988 11.57 41 18.954 41c7.383 0 13.065-2.012 17.046-6.035V8.17c-4.226 3.366-9.595 5.049-16.106 5.049C13.382 13.22 7.084 11.48 1 8z" fill="#F7F9F9"/><ellipse stroke="#E2E5EC" fill="#D3D7DF" cx="18.5" cy="6.5" rx="17.5" ry="6.5"/><ellipse fill="#9E6939" cx="18.78" cy="8.763" rx="14.22" ry="2.763"/><path d="M1 7v27M36 7v27" stroke="#E2E5EC"/><path d="M37 29V14c3.866 0 7 3.617 7 7.483C44 25.349 40.866 29 37 29z" stroke="#E2E5EC" stroke-width="2" stroke-linecap="round" stroke-linejoin="round"/><path d="M1 35c4.112 4 9.945 6 17.5 6s13.388-2 17.5-6" stroke="#E2E5EC" stroke-linecap="round"/><path d="M1 8v26.282c.911.73 1.911 1.302 3 1.718V10.209L1 8z" fill="#9DA5B2" opacity=".1"/></g><g transform="translate(118 170.156)"><use fill="#E2E5EC" xlink:href="#a"/><path stroke="#BAC1D3" d="M10.234.5A9.5 9.5 0 0 0 .916 11.85l13.752 69.273a9.5 9.5 0 0 0 9.318 7.65H131.62a9.5 9.5 0 0 0 9.319-7.65L154.69 11.85A9.5 9.5 0 0 0 145.371.5H10.234z"/><path d="M146.772 1c4.366 2.192 6.55 4.572 6.55 7.14-2.024-3.412-4.397-5.118-7.12-5.118H8.037C4.299 3.974 1.953 5.681 1 8.141 2.604 4.158 4.668 1.778 7.194 1h139.578z" fill="#FFF" opacity=".25"/><path d="M21.535 88.38h112.102c4.42-2.192 6.629-4.573 6.629-7.141-2.048 2.405-4.45 3.608-7.206 3.608H22.388c-3.783.055-6.157-1.148-7.122-3.608 1.033 3.999 2.827 6.387 5.384 7.165l.885-.025z" fill="#373C50" opacity=".05"/><ellipse fill="#9DA5B2" opacity=".497" cx="77.978" cy="44.637" rx="8.861" ry="8.927"/></g><g transform="translate(164.078 71.848)"><path fill="#FFDBC3" d="M24.811 90.273h14.178v8.035H24.811z"/><path d="M24.867 92.91c4.954 1.246 9.661 1.246 14.122 0l-.027-2.637h-14.15" fill="#804A54" opacity=".3"/><path d="M3.377 45.637C1.126 37.705 0 32.287 0 29.386c0-4.354 2.235-24.77 30.128-28.13 5.432 1.969 11.282 1.969 17.55 0 9.402-2.951 11.595 6.484 5.804 8.764 5.277 3.075 7.416 14.1 6.415 33.072h-2.794c-.334-6.933-.715-11.043-1.143-12.33-.428-1.287-2.128-4.032-5.1-8.235-.81-.527-1.551-.527-2.224 0-1.009.791-6.188 2.262-9.477 0-3.29-2.262-5.4-5.876-13.03-5.188C18.5 18.027 9 20.959 7.727 35.44l-.698 8.935-3.652 1.26z" fill="#BC7856"/><path d="M56.699 37.586h.012v32.148h-.064c-.48 12.9-11.363 20.54-24.747 20.54s-24.313-7.64-24.795-20.54H7.09V37.586h.074c.711-13.678 7.598-20.517 20.661-20.517 10.165 0 7.543 6.203 15.331 6.203 7.789 0 5.15-3.984 9.03.911 3.581 4.52 4.408 10.29 4.514 13.403z" stroke="#7F4953" fill="#FFDBC3" stroke-linecap="round" stroke-linejoin="round"/><path d="M31.944 69.262v-.243c20.986 0 20.979-6.047 20.979-8.031 0-1.323 1.033-1.985 3.1-1.988v15.478c-2.506 9.247-10.532 14.407-24.079 15.477v.243c-13.546-1.07-21.572-6.23-24.077-15.477V59.243c2.066.003 3.099.665 3.099 1.988 0 1.984-.007 8.031 20.978 8.031z" fill="#825059" opacity=".153"/><path d="M8.912 42.13c.808-11.318 4.378-18.169 10.71-20.554 6.333-2.385 11.02-2.385 14.06 0 4.05 2.604 7.483 3.83 10.3 3.677 4.226-.23 6.472-3.18 7.483-1.235-.934-1.598-1.534-2.412-1.8-2.442-.4-.046-3.205 1.9-6.2 1.71-2.996-.19-6.465-2.267-9.783-5.267-2.212-2-7.491-1.718-15.84.845-5.304 3.123-8.54 7.261-9.705 12.413-1.165 5.152-1.239 8.77-.221 10.853h.996z" fill="#DF9F84" opacity=".5"/><path d="M7.089 58.135V44.744c-3.426 0-6.203 3.229-6.203 6.68 0 3.452 2.777 6.71 6.203 6.71z" stroke="#7F4953" fill="#FFDBC3" stroke-linecap="round" stroke-linejoin="round"/><path d="M57.597 58.135V44.744c3.426 0 6.203 3.229 6.203 6.68 0 3.452-2.777 6.71-6.203 6.71z" stroke="#373C50" stroke-width="4" fill="#373C50" stroke-linecap="round" stroke-linejoin="round"/><path d="M3.208 45.637C-4.958 22.785 2.466 8.46 25.48 2.667c9.45-2.38 7.79 2.137 19.553-.947 11.764-3.083 16.584 4.503 7.113 8.25 5.847 0 8.445 11.103 7.794 33.31" stroke="#905F64" stroke-linecap="round" stroke-linejoin="round"/><path d="M19.495 72.419c2.396 2.975 6.53 4.463 12.405 4.463 5.875 0 10.01-1.488 12.406-4.463" stroke="#7F4953" stroke-width="2" stroke-linecap="round" stroke-linejoin="round"/><path d="M27.47 61.743c-.008 2.951 1.462 4.427 4.412 4.427s4.432-1.488 4.449-4.464" stroke="#7F4953" stroke-linecap="round" stroke-linejoin="round"/><path fill="#F7F9F9" opacity=".2" d="M20.38 43.851h4.431l-4.43 10.713h-4.43zm-4.695 0h2.037l-4.43 10.713h-2.037zm35.71 0h4.43l-4.43 10.713h-4.43zm-4.431 0h2.037l-4.43 10.713h-2.037z"/><ellipse fill="#373C50" cx="17.722" cy="49.208" rx="2.658" ry="2.678"/><ellipse fill="#373C50" cx="46.078" cy="49.208" rx="2.658" ry="2.678"/><path d="M9.304 56.796h16.17m13.072 0h16.17m-26.803-7.142h8.196" stroke="#707482" opacity=".2" stroke-linecap="square"/><rect stroke="#373C50" stroke-width="2" fill-opacity=".05" fill="#F7F9F9" stroke-linecap="round" stroke-linejoin="round" x="7.975" y="42.958" width="18.608" height="12.498" rx="2"/><rect stroke="#373C50" stroke-width="2" fill-opacity=".05" fill="#F7F9F9" stroke-linecap="round" stroke-linejoin="round" x="37.217" y="42.958" width="18.608" height="12.498" rx="2"/><path fill="#373C50" d="M26.583 47.422h10.633v1.785H26.583z"/><path d="M40.761 34.031l9.748 3.571m-36.331-1.785L24.81 34.03" stroke="#7F4953" stroke-width="2"/><ellipse fill="#373C50" opacity=".2" cx="32.786" cy="77.775" rx="5.317" ry="5.356"/><ellipse fill="#373C50" cx="32.786" cy="75.99" rx="5.317" ry="5.356"/><path d="M31.9 78.668c19.495-6.609 29.242-15.536 29.242-26.782" stroke="#373C50" stroke-width="4" opacity=".2"/><path d="M31.9 76.882C51.395 70.274 61.142 61.347 61.142 50.1" stroke="#373C50" stroke-width="4"/><path d="M24.43 89.211v8.98m14.982-9.004v8.941" stroke="#7F4953"/></g><g fill-rule="nonzero"><g transform="translate(235.853 5)"><use fill="#000" filter="url(#b)" xlink:href="#c"/><use stroke-opacity=".246" stroke="#373C50" fill="#FFF" fill-rule="evenodd" xlink:href="#c"/></g><path d="M276.562 50.304c-1.212.458-2.606.206-3.53-.64-.928-.843-1.205-2.114-.703-3.218.5-1.103 1.684-1.824 2.993-1.824a3.41 3.41 0 0 1 2.291.866c.607.554.95 1.306.95 2.088 0 1.196-.788 2.273-2 2.728zm-7.225-23.95c.807-.257 1.468-.794 1.84-1.497.753-1.446 2.344-2.375 4.1-2.392 2.482.028 4.512 1.813 4.637 4.071.064 1.843-1.201 3.506-3.116 4.096-2.777.83-4.666 3.179-4.697 5.841v2.345c0 1.623 1.443 2.938 3.224 2.938 1.781 0 3.226-1.315 3.226-2.938v-2.345c0-.172.32-.275.32-.275 2.237-.684 4.175-2.006 5.523-3.774 1.347-1.766 2.037-3.88 1.962-6.03-.105-2.611-1.312-5.085-3.367-6.909-2.055-1.822-4.8-2.854-7.667-2.88h-.066c-2.06.012-4.077.552-5.82 1.56-1.74 1.007-3.134 2.441-4.02 4.14a2.699 2.699 0 0 0-.141 2.243c.282.736.874 1.341 1.645 1.677.723.34 1.61.386 2.417.129z" fill="#373C50" opacity=".75"/></g><path d="M53.831 236.506h7.114m10.559 0H129.3m133.932 0h8.892m8.67 0h13.338" opacity=".1" stroke="#373C50" stroke-linecap="round" stroke-linejoin="round" stroke-width="2"/></g></svg>