<svg id="Layer_1" data-name="Layer 1" xmlns="http://www.w3.org/2000/svg" viewBox="0 0 192 192"><defs><style>.cls-1{fill:#30aabc;}.cls-2{fill:#fff;}</style></defs><title>skycabhr_favicon</title><rect class="cls-1" width="192" height="192" rx="12" ry="12"/><path class="cls-2" d="M136.75,134.5a1.24,1.24,0,0,1-.53.43H56.06c-.1-.06-.25-.12-.34-.18-1.35-1.55-1.68-8.63-.72-11,.68-1.7.55-3,1.46-4.39,3.74-5.73,12-7.31,19.27-9.52,3.32-1,6.54-1.67,9.52-4.64a7.81,7.81,0,0,0,1-3.3c-1.94-4.89-5.16-7-6.18-10.37-.08-.73-.15-1.46-.24-2.19-.67-1.64-2.92-2.46-3.65-4.15-.64-1.45-1.32-4.73-.5-5.84.72-.47,1.08-.09,1.47-1-1.07-1.69-.44-5.91,0-7.59a12.93,12.93,0,0,1,3.88-9.23s.05-.05.06-.08a11.27,11.27,0,0,1,1.72-1.28A21.63,21.63,0,0,1,94.5,57.08c7.87,0,14.47,3.57,15.87,8.24,1.92,4.54,1.54,13.79,1.54,13.79,1.71-.15,1.63,1,1.48,3.18-.75,1.13-.5,3-1.24,4.14s-2.37,1.52-2.93,2.44c-.07.65-.15,1.3-.24,2a44.14,44.14,0,0,1-1.46,4.63c-.76,1.85-2.9,4.36-3.41,5.87-.74,2.18,2.87,5.15,3.83,5.84,2.74,2,6.87,2,10.5,3.17,8.36,2.69,16,4.43,18.55,12.94C137.65,125.44,137.89,132.64,136.75,134.5Z"/></svg>